<svg width="91" height="24" viewBox="0 0 91 24" fill="none" xmlns="http://www.w3.org/2000/svg">
<g id="tez1 1" clip-path="url(#clip0_99_1181)">
<path id="Vector" d="M84.5116 16.5094C84.422 15.934 84.2117 15.385 83.8948 14.8993C83.6074 14.4699 86.4297 10.4315 86.4297 10.4315L90.1501 6.6665L86.6572 1.60328C86.6572 1.60328 80.6793 5.26095 79.0406 5.26095C77.4339 5.25284 77.4618 1.0686 77.4618 1.0686L73.8112 5.10703L70.8791 1.0686L67.0449 5.10703L54.5202 1.0686L51.8736 4.10654L50.0772 1.0686L46.4845 4.71412L42.293 1.0686L37.9457 5.06247L38.8998 1.27113L29.5188 1.0686H6.76474L1.72693 5.10703L0.928541 8.23205H4.44343L0.708984 22.8445H4.7588L9.79059 18.9661L8.79264 22.8445H18.6487L19.1497 22.4172L19.0399 22.8445H29.5707L34.4109 18.8911L33.4129 22.8748H37.2292L41.7421 18.8911L40.9996 22.8708H44.8358L46.2909 21.4815L45.8518 22.8486H55.6958L58.4783 20.0658L58.1528 22.8445H63.4761L65.6437 20.7321L65.3982 22.8445H70.4739L73.5618 19.7134C73.5572 20.1046 73.6296 20.4929 73.7749 20.8552C73.9203 21.2177 74.1355 21.547 74.408 21.8238C75.2064 22.6339 76.4439 23.0389 78.0865 23.0389C79.7293 23.0389 81.0805 22.644 82.1803 21.8643C83.2801 21.0846 87.4596 16.9671 87.8289 15.5211C88.0025 14.8142 84.6154 17.1251 84.5116 16.5094Z" fill="#241E20"/>
<path id="Vector_2" d="M17.8191 1.25488H6.95305L6.16864 4.31914H9.61767L5.95508 18.6501H9.92702L13.5896 4.31914H17.0367L17.8191 1.25488Z" fill="white"/>
<path id="Vector_3" d="M10.0904 18.8525H5.69922L9.35782 4.52156H5.91079L6.797 1.05225H18.0742L17.19 4.52156H13.743L10.0904 18.8525ZM6.22216 18.4474H9.77295L13.4336 4.11651H16.8766L17.5612 1.4573H7.10637L6.42774 4.11651H9.87481L6.22216 18.4474Z" fill="#241E20"/>
<path id="Vector_4" d="M18.647 15.5859L19.7267 11.3611H24.2396L25.02 8.30896H20.5072L21.5271 4.31914H27.2076L27.992 1.25488H18.3375L13.8926 18.6501H23.547L24.3295 15.5859H18.647Z" fill="white"/>
<path id="Vector_5" d="M23.7004 18.8525H13.6328L18.1816 1.05225H28.2533L27.3671 4.52156H21.6806L20.7644 8.10632H25.2773L24.3951 11.5635H19.8802L18.9042 15.3832H24.5867L23.7004 18.8525ZM14.1498 18.4474H23.3911L24.0717 15.7883H18.3892L19.5728 11.1585H24.0857L24.7624 8.51138H20.2495L21.3712 4.11651H27.0557L27.7343 1.4573H18.491L14.1498 18.4474Z" fill="#241E20"/>
<path id="Vector_6" d="M38.7018 1.25488H28.6821L27.8997 4.31914H33.5882L24.6543 15.8167L23.9297 18.6501H34.2568L35.0392 15.5859H29.0433L37.9773 4.08826L38.7018 1.25488Z" fill="white"/>
<path id="Vector_7" d="M34.4122 18.8525H23.6738L24.4722 15.7234L24.4982 15.691L33.1766 4.52156H27.6438L28.53 1.05225H38.961L38.1626 4.18131L38.1366 4.21372L29.4522 15.3832H35.3003L34.4122 18.8525ZM24.1908 18.4474H34.1048L34.7833 15.7883H28.6338L37.7973 3.99702L38.446 1.4573H28.8394L28.1587 4.11651H34.0029L24.8395 15.9077L24.1908 18.4474Z" fill="#241E20"/>
<path id="Vector_8" d="M50.2209 1.26904L47.9456 10.2937L47.217 1.26904H42.4067L38.0176 18.6723H41.762L44.5704 7.53326L45.4646 18.6723H49.2269L53.6141 1.26904H50.2209Z" fill="white"/>
<path id="Vector_9" d="M49.3802 18.875H45.2785L44.4682 8.74849L41.9173 18.875H37.7617L42.2506 1.0686H47.4022L48.0469 9.07456L50.0649 1.0686H53.8711L49.3802 18.875ZM45.6477 18.4699H49.0708L53.3561 1.47366H50.3762L47.8433 11.5151L47.033 1.47366H42.56L38.2746 18.4699H41.606L44.6717 6.31815L45.6477 18.4699Z" fill="#241E20"/>
<path id="Vector_10" d="M60.5697 11.3611L61.3501 8.30896H56.8372L57.8572 4.31914H63.5397L64.3221 1.25488H54.6676L50.2227 18.6501H59.8771L60.6596 15.5859H54.9771L56.0568 11.3611H60.5697Z" fill="white"/>
<path id="Vector_11" d="M60.0325 18.8525H49.9648L54.5136 1.05225H64.5813L63.6951 4.52156H58.0126L57.0964 8.10632H61.6093L60.7271 11.5635H56.2122L55.2382 15.3832H60.9187L60.0325 18.8525ZM50.4818 18.4474H59.7231L60.4037 15.7883H54.7212L55.9048 11.1585H60.4177L61.0944 8.51138H56.5815L57.7032 4.11651H63.3838L64.0644 1.4573H54.823L50.4818 18.4474Z" fill="#241E20"/>
<path id="Vector_12" d="M77.6421 1.25488L73.4585 12.1388L74.9036 1.25488H71.0075L66.9716 12.0436L68.281 1.25488H64.3249L62.2871 18.6501H67.5065L70.1772 11.8856L69.3927 18.6501H74.3707L81.2208 1.25488H77.6421Z" fill="white"/>
<path id="Vector_13" d="M74.5053 18.8525H69.172L69.8088 13.3842L67.6451 18.8525H62.0645L64.1482 1.05225H68.5074L67.3757 10.403L70.8706 1.05225H75.132L73.8805 10.4881L77.5052 1.05225H81.5171L74.5053 18.8525ZM69.6172 18.4474H74.2358L80.9283 1.4573H77.7787L73.0403 13.7913L74.6749 1.4573H71.1461L66.5773 13.684L68.0623 1.4573H64.5095L62.5135 18.4474H67.3757L70.5533 10.3848L69.6172 18.4474Z" fill="#241E20"/>
<path id="Vector_14" d="M89.7065 2.27163C89.0059 1.47366 87.8363 1.0686 86.2295 1.0686C84.6547 1.0686 83.2814 1.45341 82.1457 2.21491C81.003 2.98558 80.1923 4.16885 79.8784 5.52423C79.7039 6.15957 79.6685 6.82592 79.7745 7.47661C79.8665 8.04224 80.079 8.58068 80.3973 9.05431C80.6988 9.4897 81.0439 9.89218 81.4272 10.2553C81.8105 10.6218 82.1877 10.9723 82.5489 11.3004C82.8834 11.5997 83.1987 11.9204 83.493 12.2603C83.7418 12.5504 83.93 12.8886 84.0459 13.2547C84.154 13.6242 84.154 14.0175 84.0459 14.3869C83.8064 15.3286 83.2755 15.7661 82.3733 15.7661C81.9741 15.7661 81.7027 15.6811 81.5749 15.5109C81.3992 15.28 81.4572 14.8649 81.537 14.555L81.9482 12.9348H77.8943L77.567 14.2127C77.1937 15.677 77.4133 16.8314 78.2217 17.6436C79.03 18.4557 80.2177 18.8324 81.8284 18.8324C83.4391 18.8324 84.7685 18.4455 85.8443 17.68C86.944 16.8883 87.7201 15.7154 88.0258 14.3829C88.1991 13.7481 88.2366 13.0831 88.1356 12.4325C88.0488 11.8694 87.8448 11.3315 87.5368 10.8548C87.2438 10.4222 86.9095 10.0199 86.5389 9.6538C86.1696 9.29127 85.7924 8.93685 85.4132 8.60267C85.07 8.30322 84.7454 7.98263 84.4411 7.64269C84.1852 7.35478 83.9909 7.01619 83.8703 6.64827C83.754 6.28239 83.7478 5.88969 83.8523 5.52019C83.9323 5.10446 84.1474 4.72794 84.4631 4.45084C84.7955 4.22085 85.193 4.10774 85.5948 4.12881C86.0339 4.12881 86.3273 4.22198 86.467 4.40425C86.6067 4.58653 86.6247 4.90855 86.5109 5.35209L86.2255 6.47207H90.0178L90.2174 5.68423C90.5906 4.23413 90.419 3.09389 89.7065 2.27163Z" fill="white"/>
<path id="Vector_15" d="M81.8271 19.0388C80.1625 19.0388 78.9011 18.6196 78.0807 17.7913C77.2184 16.9245 76.9809 15.7032 77.3722 14.1661L77.7374 12.7362H82.2104L81.7453 14.5995C81.6495 14.97 81.6515 15.2536 81.7453 15.3792C81.8391 15.5048 82.0606 15.5574 82.388 15.5574C83.1864 15.5574 83.6514 15.1787 83.869 14.3301C83.9646 13.9995 83.9646 13.648 83.869 13.3174C83.7596 12.9735 83.5801 12.6567 83.3421 12.3879C83.0537 12.054 82.7443 11.7393 82.4159 11.446C82.0547 11.118 81.6755 10.7656 81.2902 10.397C80.8972 10.0256 80.5428 9.61433 80.2324 9.16964C79.8981 8.67151 79.6747 8.1055 79.5776 7.51093C79.4662 6.83141 79.5023 6.13537 79.6835 5.47147C80.0111 4.06712 80.8541 2.84235 82.0407 2.04671C83.2044 1.27102 84.6135 0.865967 86.2282 0.865967C87.8949 0.865967 89.1144 1.2933 89.8549 2.13784C90.6134 3.00264 90.801 4.21579 90.4118 5.73881L90.1703 6.67854H85.9608L86.3121 5.30539C86.4059 4.9368 86.4039 4.66339 86.3121 4.53376C86.2203 4.40414 85.9608 4.33123 85.5975 4.33123C85.239 4.31133 84.8839 4.41013 84.5856 4.61275C84.3062 4.86228 84.1171 5.19951 84.0487 5.57071C83.9543 5.9021 83.9584 6.25436 84.0607 6.58335C84.173 6.92504 84.3537 7.23947 84.5915 7.50689C84.8876 7.84207 85.2036 8.1586 85.5377 8.45472C85.9209 8.79092 86.3021 9.14737 86.6713 9.51394C87.0527 9.88837 87.3957 10.301 87.6952 10.7453C88.0227 11.2476 88.2398 11.8152 88.332 12.4101C88.4362 13.0857 88.3974 13.7762 88.2183 14.4354C87.9008 15.8147 87.0972 17.0284 85.9587 17.848C84.849 18.6399 83.4578 19.0388 81.8271 19.0388ZM78.0468 13.1412L77.7534 14.2673C77.3981 15.6566 77.6017 16.7442 78.3522 17.5077C79.1026 18.2713 80.2623 18.6379 81.8171 18.6379C83.372 18.6379 84.6774 18.2632 85.7193 17.5239C86.7841 16.7586 87.5354 15.6238 87.831 14.3342C87.998 13.728 88.0341 13.0924 87.9368 12.4709C87.8546 11.9355 87.6599 11.4244 87.3659 10.9722C87.081 10.5509 86.7553 10.1593 86.3939 9.80356C86.0287 9.44306 85.6534 9.09269 85.2761 8.76054C84.9272 8.45487 84.5971 8.12749 84.2882 7.7803C84.0126 7.47268 83.8039 7.10973 83.6754 6.715C83.5469 6.31254 83.5393 5.88038 83.6534 5.47349C83.745 5.01278 83.9869 4.59681 84.3401 4.29276C84.7078 4.03662 85.1479 3.90932 85.5935 3.93022C86.1045 3.93022 86.4418 4.04567 86.6234 4.28466C86.8051 4.52364 86.835 4.89224 86.7033 5.40666L86.4818 6.27348H89.8749L90.0366 5.63754C90.3919 4.25225 90.2361 3.16467 89.5675 2.39709C88.8989 1.6295 87.7751 1.27102 86.2282 1.27102C84.6814 1.27102 83.358 1.6457 82.2603 2.38291C81.1556 3.12271 80.3704 4.26199 80.0647 5.56868C79.8976 6.17558 79.8635 6.81227 79.9649 7.43398C80.051 7.97119 80.252 8.48274 80.5537 8.93268C80.8456 9.3568 81.1801 9.7491 81.5517 10.1033C81.935 10.4679 82.3102 10.8182 82.6694 11.1423C83.0099 11.4484 83.3312 11.7758 83.6315 12.1225C83.9011 12.4321 84.1049 12.7948 84.2303 13.1878C84.3523 13.5925 84.3565 14.0244 84.2423 14.4314C83.9788 15.4622 83.368 15.9625 82.376 15.9625C81.909 15.9625 81.5876 15.8511 81.418 15.6283C81.2483 15.4055 81.2183 15.0207 81.3441 14.4982L81.6915 13.1412H78.0468Z" fill="#241E20"/>
</g>
<defs>
<clipPath id="clip0_99_1181">
<rect width="89.9508" height="22.2459" fill="white" transform="translate(0.671875 0.835938)"/>
</clipPath>
</defs>
</svg>
