<svg width="134" height="32" viewBox="0 0 134 32" fill="none" xmlns="http://www.w3.org/2000/svg">
<g id="Asset 1 2 1" clip-path="url(#clip0_99_1209)">
<path id="Vector" d="M117.063 26.1311C115.987 22.835 115.467 19.3811 115.523 15.9123C115.467 12.4434 115.987 8.98953 117.063 5.69332C117.119 5.52999 117.179 5.37135 117.239 5.2267C117.369 4.89073 117.503 4.5781 117.643 4.29346C116.877 4.83473 112.541 8.62835 108.691 11.4421L93.8789 14.4704V17.3961L108.909 20.4619L117.374 26.9664C117.267 26.6864 117.16 26.4111 117.063 26.1311Z" fill="url(#paint0_radial_99_1209)"/>
<path id="Vector_2" d="M22.2236 14.5429L1.79297 13.0273V18.1858L22.2236 16.6703V14.5429Z" fill="#858585"/>
<path id="Vector_3" d="M28.7288 24.7499H24.6426V6.31372H32.3141C36.2425 6.31372 39.2249 8.31551 39.2249 12.2398C39.2249 15.9727 36.0292 18.2732 32.3141 18.2732H28.7288V24.7499ZM28.7288 16.7193H30.0878C32.968 16.7193 34.4846 14.7689 34.4846 12.2958C34.4846 8.76347 32.495 7.86757 29.4847 7.86757H28.7288V16.7193Z" fill="black"/>
<path id="Vector_4" d="M45.4681 24.7499H41.3867V6.31372H49.0534C52.9818 6.31372 55.9642 8.31551 55.9642 12.2398C55.9642 15.1375 54.0301 17.1673 51.4375 17.9279L56.3584 24.7499H51.7203L46.9802 18.2732H45.4681V24.7499ZM45.4681 16.7193H46.8318C49.7073 16.7193 51.2288 14.7689 51.2288 12.2958C51.2288 8.76347 49.2389 7.86757 46.2288 7.86757H45.4681V16.7193Z" fill="black"/>
<path id="Vector_5" d="M57.9258 14.4299H61.9124V17.0023H57.9258V14.4299Z" fill="#858585"/>
<path id="Vector_6" d="M68.0901 20.009C68.0901 22.0901 68.4007 22.8787 70.1585 22.8787C72.0829 22.7199 73.958 22.184 75.678 21.3016V6.31372H79.7642V24.7499H75.678V23.0654C73.5863 23.9986 70.2606 25.1184 67.8535 25.1184C65.2607 25.1184 64.0039 24.0918 64.0039 20.6156V6.31372H68.0901V20.009Z" fill="black"/>
<path id="Vector_7" d="M82.733 6.31372H95.0891L87.0558 22.9954H95.1957V24.7592H81.9492L89.9083 8.06353H82.733V6.31372Z" fill="black"/>
<path id="Vector_8" d="M122.605 0.131104C121.677 0.131104 120.749 0.76104 119.905 1.87626C119.498 2.43484 119.142 3.02996 118.843 3.65407C118.657 4.04604 118.472 4.46133 118.3 4.91396C118.24 5.06794 118.18 5.22658 118.124 5.38056C117.048 8.67507 116.528 12.1275 116.584 15.5949C116.528 19.0637 117.048 22.5176 118.124 25.8138C118.226 26.0984 118.328 26.3738 118.44 26.6398C118.639 27.1063 118.848 27.5729 119.066 27.9883C119.421 28.6615 119.857 29.2882 120.364 29.8548C120.637 30.1973 120.976 30.4799 121.361 30.6854C121.747 30.891 122.17 31.0148 122.605 31.0494C125.513 31.0494 128.634 24.8339 128.634 15.5762C128.634 6.31847 125.513 0.131104 122.605 0.131104Z" fill="url(#paint1_radial_99_1209)"/>
</g>
<defs>
<radialGradient id="paint0_radial_99_1209" cx="0" cy="0" r="1" gradientUnits="userSpaceOnUse" gradientTransform="translate(124.453 16.2129) rotate(0.362179) scale(24.4522 22.8781)">
<stop stop-color="#E30613"/>
<stop offset="0.69" stop-color="#FCEC00"/>
<stop offset="0.93" stop-color="#029F28"/>
</radialGradient>
<radialGradient id="paint1_radial_99_1209" cx="0" cy="0" r="1" gradientUnits="userSpaceOnUse" gradientTransform="translate(117.971 16.7649) scale(24.832 45.7841)">
<stop offset="0.13" stop-color="#851622"/>
<stop offset="0.16" stop-color="#A6101D"/>
<stop offset="0.19" stop-color="#C10C18"/>
<stop offset="0.22" stop-color="#D40915"/>
<stop offset="0.25" stop-color="#DF0714"/>
<stop offset="0.28" stop-color="#E30613"/>
<stop offset="0.5" stop-color="#FCD600"/>
<stop offset="0.69" stop-color="#00923E"/>
<stop offset="0.9" stop-color="#E30613"/>
</radialGradient>
<clipPath id="clip0_99_1209">
<rect width="133.475" height="30.9508" fill="white" transform="translate(0.015625 0.131104)"/>
</clipPath>
</defs>
</svg>
