<svg width="119" height="32" viewBox="0 0 119 32" fill="none" xmlns="http://www.w3.org/2000/svg">
<g id="logo 2">
<path id="Vector" d="M55.3095 23.0852H50.2939C49.9116 23.0852 49.582 22.7452 49.582 22.3586V9.52518C49.582 9.15812 49.9231 8.79506 50.3038 8.79506H55.367C57.5711 8.79506 59.304 9.42983 60.5568 10.7093C61.8154 11.9952 62.4404 13.7455 62.4404 15.9499C62.4404 18.1542 61.8059 19.8946 60.5373 21.1709C59.2945 22.4472 57.552 23.0852 55.3095 23.0852ZM53.176 12.2566V19.624H55.4824C56.5206 19.624 57.3149 19.2694 57.8657 18.5604C58.4296 17.8382 58.7116 16.9617 58.7116 15.9303C58.7116 14.9121 58.4296 14.042 57.8657 13.3198C57.3149 12.6109 56.5206 12.2566 55.4824 12.2566H53.176ZM75.4879 23.0852C74.7337 23.0852 73.9798 23.0852 73.226 23.0852C72.8881 23.0852 72.3869 22.7508 72.2853 22.371L71.6853 20.4747H67.1686L66.5626 22.3451C66.4294 22.7564 65.9825 23.0852 65.6117 23.0852C64.8546 23.0852 64.0972 23.0852 63.3402 23.0852C62.9758 23.0852 62.741 22.7329 62.8762 22.3606C64.4307 18.0804 65.9848 13.8006 67.5393 9.52079C67.6726 9.15294 68.1715 8.79506 68.5359 8.79506C69.1732 8.79506 69.8104 8.79506 70.4473 8.79506C70.8101 8.79506 71.2682 9.13778 71.4074 9.53077C72.9194 13.8042 74.4307 18.0776 75.942 22.351C76.076 22.7293 75.848 23.0852 75.4879 23.0852ZM68.0719 17.3423H70.8201L69.4749 13.1072L68.0719 17.3423ZM88.5755 23.0852C87.6833 23.0852 86.791 23.0852 85.8988 23.0852C85.5323 23.0852 84.9879 22.7253 84.7967 22.3626L82.6791 18.3477H81.2761C81.2761 19.6831 81.2761 21.0185 81.2761 22.3538C81.2761 22.7297 80.9212 23.0852 80.5623 23.0852C79.8425 23.0852 79.1228 23.0852 78.403 23.0852C78.0437 23.0852 77.6817 22.7245 77.6817 22.3614C77.6817 18.0796 77.6817 13.7978 77.6817 9.516C77.6817 9.15573 78.0434 8.79506 78.3967 8.79506H83.6015C85.3059 8.79506 86.5999 9.2463 87.4842 10.1488C88.3681 11.0381 88.8103 12.166 88.8103 13.5325C88.8103 14.4609 88.5894 15.3019 88.1472 16.056C87.7051 16.8105 87.0615 17.3874 86.2156 17.7868C87.0995 19.3097 87.9835 20.8325 88.8674 22.3554C89.0887 22.7369 88.9396 23.0852 88.5755 23.0852ZM83.5634 12.1018H81.2761V15.1958H83.4286C84.1464 15.2345 84.646 14.9832 84.928 14.4414C85.2099 13.8999 85.2099 13.3617 84.928 12.8267C84.646 12.2917 84.1912 12.0503 83.5634 12.1018ZM99.0986 8.79506C100.023 8.79506 100.948 8.79506 101.873 8.79506C102.236 8.79506 102.401 9.15852 102.208 9.52518L97.6131 18.2895C97.6131 19.6468 97.6131 21.0041 97.6131 22.361C97.6131 22.7241 97.2558 23.0852 96.8929 23.0852C96.1839 23.0852 95.4744 23.0852 94.7654 23.0852C94.3875 23.0852 94.0381 22.7237 94.0381 22.357V18.2895C92.5248 15.369 91.0112 12.4485 89.4975 9.52797C89.3111 9.1681 89.4765 8.79506 89.8401 8.79506C90.7673 8.79506 91.6948 8.79506 92.622 8.79506C92.9868 8.79506 93.5099 9.15573 93.6756 9.52199L95.8258 14.2674C96.565 12.6847 97.3041 11.1023 98.0437 9.51959C98.2107 9.16211 98.7397 8.79506 99.0986 8.79506ZM115.046 21.1904C113.636 22.6084 111.874 23.3174 109.76 23.3174C107.646 23.3174 105.871 22.6084 104.436 21.1904C103.027 19.7721 102.322 18.0254 102.322 15.9499C102.322 13.8744 103.033 12.1209 104.456 10.6902C105.878 9.25906 107.64 8.5437 109.741 8.5437C111.855 8.5437 113.624 9.25906 115.046 10.6902C116.468 12.1209 117.18 13.8744 117.18 15.9499C117.18 18.0126 116.468 19.7593 115.046 21.1904ZM109.741 19.7401C110.792 19.7401 111.676 19.3791 112.394 18.6569C113.111 17.9352 113.47 17.0263 113.47 15.9303C113.444 14.822 113.073 13.9131 112.355 13.2037C111.638 12.482 110.766 12.1209 109.741 12.1209C108.703 12.1209 107.826 12.4884 107.108 13.2233C106.39 13.945 106.032 14.8475 106.032 15.9303C106.032 17.0263 106.39 17.9352 107.108 18.6569C107.826 19.3791 108.703 19.7401 109.741 19.7401Z" fill="black"/>
<path id="Vector_2" fill-rule="evenodd" clip-rule="evenodd" d="M5.30892 1.32617H27.4523C35.4782 1.32617 42.0452 7.93281 42.0452 16.0081C42.0452 24.0829 35.4782 30.69 27.4523 30.69H5.30892C3.37175 30.69 1.78711 29.0953 1.78711 27.1463V4.86988C1.78711 2.92088 3.37175 1.32617 5.30892 1.32617ZM10.5593 8.78622H27.3535C31.262 8.78622 34.4599 12.0036 34.4599 15.9359C34.4599 19.8678 31.2612 23.0851 27.3535 23.0851H20.6378C20.4376 23.0851 20.2575 23.1366 20.0981 23.2579L15.5754 26.7002C15.2934 26.9149 14.9298 26.9332 14.6126 26.7716C14.2953 26.61 14.0947 26.3064 14.0943 25.9485L14.0939 25.1965C14.0939 24.1982 13.1489 23.0799 12.0341 23.0791C11.5535 23.0787 11.0729 23.0783 10.5923 23.0783C9.39743 23.0783 8.48257 22.1559 8.48257 20.9769V10.9012C8.48257 9.73738 9.40258 8.78622 10.5593 8.78622Z" fill="#008CCC"/>
</g>
</svg>
