<svg width="88" height="35" viewBox="0 0 88 35" fill="none" xmlns="http://www.w3.org/2000/svg">
<g id="kun-uz-logo 1" clip-path="url(#clip0_99_1223)">
<path id="Vector" d="M70.4669 34.9344C79.8871 34.9344 87.5239 27.1396 87.5239 17.5246C87.5239 7.90955 79.8871 0.114746 70.4669 0.114746C61.0468 0.114746 53.41 7.90955 53.41 17.5246C53.41 27.1396 61.0468 34.9344 70.4669 34.9344ZM48.1165 25.329C48.5844 25.329 49.0332 25.1392 49.3642 24.8015C49.6951 24.4637 49.881 24.0056 49.881 23.528C49.881 23.0503 49.6951 22.5922 49.3642 22.2545C49.0332 21.9167 48.5844 21.727 48.1165 21.727C47.6485 21.727 47.1997 21.9167 46.8688 22.2545C46.5378 22.5922 46.3519 23.0503 46.3519 23.528C46.3519 24.0056 46.5378 24.4637 46.8688 24.8015C47.1997 25.1392 47.6485 25.329 48.1165 25.329ZM40.262 10.108H44.2945V25.4467H40.5761L34.4333 17.0347L34.4827 25.3266H30.4396V10.0083H34.1698L40.2632 18.909L40.262 10.108ZM22.0699 25.7048C18.1845 25.7048 15.5083 23.1041 15.5083 19.3472V10.108H19.5514V19.3568C19.5514 20.9021 20.596 21.9683 22.0699 21.9683C23.5545 21.9683 24.5991 20.9021 24.5991 19.3664V10.108H28.6421V19.3472C28.6421 23.1053 25.966 25.7048 22.0699 25.7048ZM9.269 17.5642L15.1178 25.3278H10.0383L5.68586 19.1275H5.53059V25.3266H1.48633V10.108H5.52941V16.4476H5.63528L9.74659 10.108H14.4143L9.269 17.5642Z" fill="#0C2F75"/>
<path id="Vector_2" d="M84.2398 25.3231V21.6454H78.4875L84.6786 10.1045H73.0011V13.7726H78.0487L71.8283 25.3231H84.2398ZM70.9307 19.3437V10.1045H66.8876V19.3629C66.8876 20.8986 65.843 21.9648 64.3585 21.9648C62.8845 21.9648 61.84 20.8986 61.84 19.3533V10.1045H57.7969V19.3437C57.7969 23.1018 60.4719 25.7025 64.3585 25.7025C68.2545 25.7025 70.9307 23.1006 70.9307 19.3437Z" fill="white"/>
</g>
<defs>
<clipPath id="clip0_99_1223">
<rect width="87.0492" height="34.8197" fill="white" transform="translate(0.474609 0.114746)"/>
</clipPath>
</defs>
</svg>
