<svg width="148" height="18" viewBox="0 0 148 18" fill="none" xmlns="http://www.w3.org/2000/svg">
<g id="uznews">
<path id="Vector" fill-rule="evenodd" clip-rule="evenodd" d="M148.001 17.4762H133.354V14.2755L142.272 4.80438H133.679V1.27706H147.74V4.47779L138.822 13.9489H148.001V17.4762ZM127.335 14.8635H126.879C126.227 16.3658 124.73 17.7375 121.768 17.7375C118.188 17.7375 115.486 15.1574 115.486 10.9444V1.27706H119.587V10.5524C119.587 12.8059 120.889 14.1449 123.232 14.1449C125.869 14.1449 127.269 12.512 127.269 9.6379V1.27706H131.37V17.4762H127.335V14.8635ZM111.679 17.9335C109.921 17.9335 108.586 16.6597 108.586 14.8308C108.586 13.0018 109.921 11.7282 111.679 11.7282C113.435 11.7282 114.77 13.0018 114.77 14.8308C114.77 16.6597 113.436 17.9335 111.679 17.9335ZM99.933 7.44974L100.487 7.51506C105.662 8.13559 107.583 9.47462 107.583 12.4466C107.583 15.6146 104.62 17.9335 100.324 17.9335C95.8645 17.9335 93.5896 15.6473 92.0928 13.3611L95.1485 11.3035C96.1576 13.4264 98.3384 14.5368 100.421 14.5368C102.081 14.5368 103.611 13.8183 103.611 12.5446C103.611 11.3363 101.951 11.1076 100.194 10.9116L99.6405 10.8463C95.1161 10.3238 93.0652 8.85408 93.0652 5.84941C93.0652 2.84474 95.7997 0.819824 99.5426 0.819824C102.863 0.819824 105.207 2.28949 107.387 4.57567L104.425 6.92718C103.188 5.4575 101.561 4.15113 99.4124 4.15113C97.8826 4.15113 97.0363 4.80429 97.0363 5.78409C97.0363 6.95982 98.2406 7.25376 99.933 7.44974ZM83.1306 17.4762L80.5919 4.80438H80.2014L77.6626 17.4762H71.8038L68.614 1.27706H72.715L74.6356 13.9489H75.026L77.5649 1.27706H83.2285L85.7673 13.9489H86.1582L88.0783 1.27706H92.1797L88.99 17.4762H83.1306ZM60.3449 14.4062C62.6231 14.4062 63.8273 13.1325 64.3809 11.9894L67.7335 13.949C66.6267 15.6473 64.7389 17.9335 60.4099 17.9335C55.5925 17.9335 52.1096 14.2756 52.1096 9.246C52.1096 4.34706 55.4621 0.819824 60.2146 0.819824C64.9017 0.819824 68.0591 4.11844 68.0591 8.98473V10.5851H56.3084C56.4711 12.7406 58.0014 14.4062 60.3449 14.4062ZM63.8927 7.7109C63.5996 5.65334 62.2975 4.34697 60.1822 4.34697C57.8711 4.34697 56.6668 5.71867 56.3414 7.7109H63.8927ZM46.478 8.20078C46.478 5.94729 45.1759 4.60822 42.8323 4.60822C40.1957 4.60822 38.7963 6.24123 38.7963 9.11525V17.4762H34.6953V1.27706H38.7314V3.88982H39.1867C39.8378 2.3875 41.3351 1.01576 44.2972 1.01576C47.8774 1.01576 50.5794 3.59588 50.5794 7.80896V17.4762H46.478V8.20078Z" fill="#4E6293"/>
<path id="Vector_2" d="M27.0022 4.70515H18.5092V1.37783H32.3704V4.4389L23.4792 13.8811L23.3204 14.0497H23.552H32.6309V17.377H18.1837V14.3159L27.075 4.87371L27.2337 4.70515H27.0022ZM11.9654 14.8643V14.7643H11.8654H11.4096H11.344L11.3179 14.8245C10.9992 15.5598 10.4742 16.2618 9.66704 16.7805C8.85991 17.2991 7.76471 17.6382 6.2996 17.6382C4.53412 17.6382 2.99054 17.0026 1.88813 15.8524C0.785629 14.7021 0.117578 13.0299 0.117578 10.9451V1.37783H4.01877V10.5531C4.01877 11.699 4.35012 12.6254 4.99211 13.2653C5.63408 13.9052 6.57369 14.2457 7.76429 14.2457C9.1039 14.2457 10.1431 13.8301 10.8459 13.0362C11.547 12.2444 11.9004 11.0905 11.9004 9.63867V1.37783H15.8017V17.377H11.9654V14.8643Z" fill="#EEF5FF" fill-opacity="0.5" stroke="#4E6293" stroke-width="0.2"/>
</g>
</svg>
