<svg width="105" height="105" viewBox="0 0 105 105" fill="none" xmlns="http://www.w3.org/2000/svg">
<path fill-rule="evenodd" clip-rule="evenodd" d="M82 52.5L37.75 78.0477V26.9522L82 52.5ZM80 52.5L38.75 76.3157V28.6843L80 52.5Z" fill="#FFFDF7"/>
<path fill-rule="evenodd" clip-rule="evenodd" d="M52.5 104C80.9427 104 104 80.9427 104 52.5C104 24.0573 80.9427 1 52.5 1C24.0573 1 1 24.0573 1 52.5C1 80.9427 24.0573 104 52.5 104ZM52.5 105C81.4949 105 105 81.4949 105 52.5C105 23.5051 81.4949 0 52.5 0C23.5051 0 0 23.5051 0 52.5C0 81.4949 23.5051 105 52.5 105Z" fill="#FFFDF7"/>
</svg>
