<svg width="27" height="25" viewBox="0 0 27 25" fill="none" xmlns="http://www.w3.org/2000/svg">
<path fill-rule="evenodd" clip-rule="evenodd" d="M12.957 0C20.1014 0 25.9127 5.24596 25.9127 11.6953C25.9127 14.7381 24.6191 17.5133 22.5023 19.5961L26.6676 23.3482C27.0574 23.7001 27.0587 24.2694 26.6689 24.6213C26.4747 24.799 26.2179 24.8867 25.9624 24.8867C25.7083 24.8867 25.4529 24.799 25.2573 24.6237L21.0418 20.8289C18.8243 22.432 16.0126 23.3918 12.957 23.3918C5.81263 23.3918 0 18.1447 0 11.6953C0 5.24596 5.81263 0 12.957 0ZM12.957 1.8015C6.91289 1.8015 1.99564 6.23918 1.99564 11.6953C1.99564 17.1514 6.91289 21.5903 12.957 21.5903C18.9998 21.5903 23.917 17.1514 23.917 11.6953C23.917 6.23918 18.9998 1.8015 12.957 1.8015Z" fill="#313131"/>
</svg>
