<svg width="28" height="26" viewBox="0 0 28 26" fill="none" xmlns="http://www.w3.org/2000/svg">
<path d="M22.1712 16.2824C21.8221 16.6111 21.6617 17.0866 21.7412 17.5528L22.9394 23.9967C23.0405 24.5429 22.8033 25.0956 22.3329 25.4113C21.8719 25.7387 21.2587 25.778 20.7559 25.516L14.7863 22.4905C14.5787 22.3831 14.3482 22.3255 14.1123 22.319H13.7471C13.6204 22.3373 13.4964 22.3766 13.3832 22.4368L7.41216 25.4768C7.11698 25.6208 6.78271 25.6719 6.45518 25.6208C5.65726 25.4741 5.12485 24.7354 5.2556 23.9561L6.45518 17.5122C6.53471 17.042 6.37431 16.564 6.02522 16.23L1.15812 11.6459C0.751068 11.2622 0.609544 10.6859 0.795548 10.1659C0.97616 9.64725 1.43713 9.26873 1.99379 9.1836L8.69262 8.23928C9.20211 8.1882 9.6496 7.88696 9.87873 7.44165L12.8305 1.56092C12.9006 1.42994 12.9909 1.30945 13.1001 1.20729L13.2214 1.11561C13.2848 1.0475 13.3575 0.991182 13.4384 0.945341L13.5853 0.892951L13.8145 0.80127H14.3819C14.8887 0.852349 15.3348 1.14704 15.568 1.58711L18.5589 7.44165C18.7746 7.86993 19.1938 8.16724 19.6776 8.23928L26.3765 9.1836C26.9426 9.26218 27.4157 9.64201 27.603 10.1659C27.7796 10.6911 27.6273 11.2674 27.2121 11.6459L22.1712 16.2824Z" fill="#FFD12F"/>
</svg>
