<svg width="29" height="26" viewBox="0 0 29 26" fill="none" xmlns="http://www.w3.org/2000/svg">
<path fill-rule="evenodd" clip-rule="evenodd" d="M22.6448 15.6799L27.8824 11.041C28.0612 10.884 28.1271 10.6473 28.0548 10.4308C27.967 10.2033 27.7518 10.039 27.4959 10.0048L27.494 10.0046L20.5305 9.05929C19.744 8.94654 19.0609 8.48154 18.708 7.80875C18.7076 7.80791 18.7072 7.80708 18.7067 7.80624L15.6065 1.96256C15.5071 1.78526 15.3234 1.66225 15.1102 1.63083H14.7515L14.6598 1.66617L14.6054 1.68483L14.5658 1.72579L14.4251 1.82821C14.3967 1.85784 14.3694 1.89384 14.3451 1.93614L11.282 7.81265C10.9118 8.50546 10.1914 8.9765 9.36847 9.06242L2.43445 10.0037C2.18501 10.0419 1.97793 10.2059 1.89622 10.4318L1.89388 10.4383C1.81435 10.6524 1.87407 10.8903 2.04999 11.0502L7.10927 15.6388C7.67714 16.162 7.93785 16.9107 7.80858 17.6468L7.80742 17.6533L6.56208 24.0953C6.50788 24.4249 6.73942 24.736 7.08662 24.8035C7.23567 24.8235 7.38778 24.8008 7.52411 24.738L13.7106 21.7051C13.9221 21.5979 14.1486 21.5301 14.3755 21.4985L14.4405 21.4894H14.8981L14.9108 21.4898C15.2864 21.4998 15.659 21.5881 15.9983 21.7565L22.2035 24.7849C22.4274 24.8973 22.6978 24.8792 22.899 24.7416L22.9086 24.735L22.9184 24.7286C23.1213 24.5975 23.2226 24.3691 23.1796 24.1442L21.9342 17.6944L21.9331 17.6885C21.8032 16.9548 22.0649 16.2057 22.6372 15.6867L22.6448 15.6799ZM24.052 23.9967C24.157 24.5429 23.9107 25.0956 23.4222 25.4113C22.9435 25.7387 22.3066 25.778 21.7845 25.516L15.5853 22.4905C15.3697 22.3831 15.1304 22.3255 14.8854 22.319H14.5061C14.3746 22.3373 14.2458 22.3766 14.1282 22.4368L7.92756 25.4768C7.62103 25.6208 7.27391 25.6719 6.93378 25.6208C6.10516 25.4741 5.55228 24.7354 5.68805 23.9561L6.93378 17.5122C7.01636 17.042 6.8498 16.564 6.48728 16.23L1.43298 11.6459C1.01027 11.2622 0.863306 10.6859 1.05646 10.1659C1.24402 9.64725 1.72272 9.26873 2.30079 9.1836L9.25727 8.23928C9.78636 8.1882 10.2511 7.88696 10.489 7.44165L13.5543 1.56092C13.6271 1.42994 13.7209 1.30945 13.8343 1.20729L13.9602 1.11561C14.026 1.0475 14.1016 0.991182 14.1856 0.945341L14.3382 0.892951L14.5761 0.80127H15.1654C15.6917 0.852349 16.155 1.14704 16.3971 1.58711L19.503 7.44165C19.727 7.86993 20.1623 8.16724 20.6648 8.23928L27.6213 9.1836C28.2091 9.26218 28.7004 9.64201 28.895 10.1659C29.0783 10.6911 28.9202 11.2674 28.4891 11.6459L23.2542 16.2824C22.8917 16.6111 22.7251 17.0866 22.8077 17.5528L24.052 23.9967Z" fill="#313131"/>
</svg>
