<svg width="65" height="65" viewBox="0 0 65 65" fill="none" xmlns="http://www.w3.org/2000/svg">
<path d="M64.2906 32.1453C64.2906 49.8987 49.8987 64.2906 32.1453 64.2906C14.392 64.2906 0 49.8987 0 32.1453C0 14.392 14.392 0 32.1453 0C49.8987 0 64.2906 14.392 64.2906 32.1453Z" fill="#EF3131"/>
<path fill-rule="evenodd" clip-rule="evenodd" d="M39.6645 45.7254H43.2938C43.2938 39.5894 38.4192 34.6153 32.4059 34.6153C26.3927 34.6153 21.518 39.5894 21.518 45.7254H25.1473C25.1473 41.6348 28.3971 38.3186 32.4059 38.3186C36.4147 38.3186 39.6645 41.6348 39.6645 45.7254ZM21.518 27.2085C23.5224 27.2085 25.1473 25.5505 25.1473 23.5051C25.1473 21.4598 23.5224 19.8018 21.518 19.8018C19.5136 19.8018 17.8887 21.4598 17.8887 23.5051C17.8887 25.5505 19.5136 27.2085 21.518 27.2085ZM43.2938 27.2085C45.2983 27.2085 46.9232 25.5505 46.9232 23.5051C46.9232 21.4598 45.2983 19.8018 43.2938 19.8018C41.2894 19.8018 39.6645 21.4598 39.6645 23.5051C39.6645 25.5505 41.2894 27.2085 43.2938 27.2085Z" fill="#FFFDF7"/>
</svg>
