<svg width="65" height="64" viewBox="0 0 65 64" fill="none" xmlns="http://www.w3.org/2000/svg">
<path d="M64.5524 31.7558C64.5524 49.2228 50.1604 63.3826 32.407 63.3826C14.6537 63.3826 0.261719 49.2228 0.261719 31.7558C0.261719 14.2887 14.6537 0.128906 32.407 0.128906C50.1604 0.128906 64.5524 14.2887 64.5524 31.7558Z" fill="#00B05C"/>
<path fill-rule="evenodd" clip-rule="evenodd" d="M43.2938 36.941H46.9232C46.9232 45.245 40.4236 51.9767 32.4059 51.9767C24.3883 51.9767 17.8887 45.245 17.8887 36.941H21.518C21.518 43.169 26.3927 48.2178 32.4059 48.2178C38.4192 48.2178 43.2938 43.169 43.2938 36.941ZM21.518 29.4231C23.5224 29.4231 25.1473 27.7402 25.1473 25.6642C25.1473 23.5882 23.5224 21.9053 21.518 21.9053C19.5136 21.9053 17.8887 23.5882 17.8887 25.6642C17.8887 27.7402 19.5136 29.4231 21.518 29.4231ZM43.2938 29.4231C45.2983 29.4231 46.9232 27.7402 46.9232 25.6642C46.9232 23.5882 45.2983 21.9053 43.2938 21.9053C41.2894 21.9053 39.6645 23.5882 39.6645 25.6642C39.6645 27.7402 41.2894 29.4231 43.2938 29.4231Z" fill="#FFFDF7"/>
</svg>
