<svg width="1084" height="460" viewBox="0 0 1084 460" fill="none" xmlns="http://www.w3.org/2000/svg">
<path d="M285 747C225.667 747 174.667 732.333 132 703C89.3333 673.667 56.6667 631.333 34 576C11.3333 520 0 452.667 0 374C0 255.333 25.3333 163.333 76 98C126.667 32.6666 196.333 0 285 0C374.333 0 444 32.6666 494 98C544.667 163.333 570 255.333 570 374C570 452.667 558.667 520 536 576C513.333 631.333 480.667 673.667 438 703C396 732.333 345 747 285 747ZM285 637C332.333 637 369 615 395 571C421 526.333 434 460.667 434 374C434 286.667 421 221 395 177C369 132.333 332.333 110 285 110C238.333 110 202 132.333 176 177C150 221 137 286.667 137 374C137 460.667 150 526.333 176 571C202 615 238.333 637 285 637Z" fill="#313131"/>
<path d="M1084.27 731H583.273V623L853.273 383C885.273 353 909.273 325.667 925.273 301C941.273 276.333 949.273 250.667 949.273 224C949.273 202.667 944.273 183.667 934.273 167C924.273 149.667 910.273 136.333 892.273 127C874.273 117 853.607 112 830.273 112C798.273 112 767.607 121.333 738.273 140C708.94 158 682.273 185.333 658.273 222L571.273 136C605.273 92 644.273 58.3333 688.273 35C732.273 11.6667 781.607 0 836.273 0C886.273 0 929.273 9.66665 965.273 29C1001.94 48.3333 1030.27 74.6666 1050.27 108C1070.27 141.333 1080.27 179.667 1080.27 223C1080.27 253 1073.94 282.333 1061.27 311C1049.27 339.667 1030.61 368.667 1005.27 398C979.94 427.333 947.607 458.667 908.273 492C894.273 505.333 878.273 520 860.273 536C842.273 551.333 823.94 566.667 805.273 582C787.273 596.667 770.94 610.333 756.273 623H1084.27V731Z" fill="#313131"/>
</svg>
