<svg width="1116" height="460" viewBox="0 0 1116 460" fill="none" xmlns="http://www.w3.org/2000/svg">
<path d="M285 747C225.667 747 174.667 732.333 132 703C89.3333 673.667 56.6667 631.333 34 576C11.3333 520 0 452.667 0 374C0 255.333 25.3333 163.333 76 98C126.667 32.6666 196.333 0 285 0C374.333 0 444 32.6666 494 98C544.667 163.333 570 255.333 570 374C570 452.667 558.667 520 536 576C513.333 631.333 480.667 673.667 438 703C396 732.333 345 747 285 747ZM285 637C332.333 637 369 615 395 571C421 526.333 434 460.667 434 374C434 286.667 421 221 395 177C369 132.333 332.333 110 285 110C238.333 110 202 132.333 176 177C150 221 137 286.667 137 374C137 460.667 150 526.333 176 571C202 615 238.333 637 285 637Z" fill="#313131"/>
<path d="M566.273 627L653.273 541C676.607 571 703.273 594.333 733.273 611C763.94 627 798.273 635 836.273 635C878.273 635 912.607 625 939.273 605C965.94 584.333 979.273 556.667 979.273 522C979.273 500 972.94 481 960.273 465C948.273 449 931.607 437 910.273 429C888.94 420.333 863.94 416 835.273 416H769.273V306H835.273C859.94 306 881.273 302 899.273 294C917.94 286 932.607 275 943.273 261C953.94 246.333 959.273 230 959.273 212C959.273 180.667 948.273 156.333 926.273 139C904.273 121 875.94 112 841.273 112C806.607 112 775.273 120.333 747.273 137C719.273 153 694.607 176 673.273 206L586.273 120C619.607 81.3333 658.273 51.6666 702.273 30.9999C746.273 10.3333 793.94 0 845.273 0C895.273 0 938.94 8.99997 976.273 26.9999C1014.27 44.3333 1043.61 68.3333 1064.27 99C1085.61 129 1096.27 162.667 1096.27 200C1096.27 233.333 1086.27 263 1066.27 289C1046.27 315 1018.27 335.333 982.273 350C946.273 364 904.273 371 856.273 371L879.273 334C925.94 334 966.94 342.333 1002.27 359C1038.27 375.667 1066.27 398.667 1086.27 428C1106.27 456.667 1116.27 490.333 1116.27 529C1116.27 569.667 1104.61 606.667 1081.27 640C1057.94 672.667 1025.61 698.667 984.273 718C942.94 737.333 894.94 747 840.273 747C786.273 747 735.607 736.667 688.273 716C641.607 695.333 600.94 665.667 566.273 627Z" fill="#313131"/>
</svg>
