<svg width="1168" height="460" viewBox="0 0 1168 460" fill="none" xmlns="http://www.w3.org/2000/svg">
<path d="M285 747C225.667 747 174.667 732.333 132 703C89.3333 673.667 56.6667 631.333 34 576C11.3333 520 0 452.667 0 374C0 255.333 25.3333 163.333 76 98C126.667 32.6666 196.333 0 285 0C374.333 0 444 32.6666 494 98C544.667 163.333 570 255.333 570 374C570 452.667 558.667 520 536 576C513.333 631.333 480.667 673.667 438 703C396 732.333 345 747 285 747ZM285 637C332.333 637 369 615 395 571C421 526.333 434 460.667 434 374C434 286.667 421 221 395 177C369 132.333 332.333 110 285 110C238.333 110 202 132.333 176 177C150 221 137 286.667 137 374C137 460.667 150 526.333 176 571C202 615 238.333 637 285 637Z" fill="#313131"/>
<path d="M1068.27 731H936.273V586H576.273V480L936.273 16H1068.27V480H1168.27V586H1068.27V731ZM936.273 185L704.273 480H936.273V185Z" fill="#313131"/>
</svg>
