<svg width="1113" height="460" viewBox="0 0 1113 460" fill="none" xmlns="http://www.w3.org/2000/svg">
<g clip-path="url(#clip0_99_1067)">
<path d="M285 747C225.667 747 174.667 732.333 132 703C89.3333 673.667 56.6667 631.333 34 576C11.3333 520 0 452.667 0 374C0 255.333 25.3333 163.333 76 98C126.667 32.6666 196.333 0 285 0C374.333 0 444 32.6666 494 98C544.667 163.333 570 255.333 570 374C570 452.667 558.667 520 536 576C513.333 631.333 480.667 673.667 438 703C396 732.333 345 747 285 747ZM285 637C332.333 637 369 615 395 571C421 526.333 434 460.667 434 374C434 286.667 421 221 395 177C369 132.333 332.333 110 285 110C238.333 110 202 132.333 176 177C150 221 137 286.667 137 374C137 460.667 150 526.333 176 571C202 615 238.333 637 285 637Z" fill="#313131"/>
<path d="M658.273 531C680.273 563 705.94 588.333 735.273 607C765.273 625.667 799.607 635 838.273 635C865.607 635 889.94 628.667 911.273 616C932.607 603.333 949.273 586 961.273 564C973.94 542 980.273 517.333 980.273 490C980.273 463.333 974.607 440 963.273 420C951.94 399.333 935.94 383.333 915.273 372C894.607 360 870.94 354 844.273 354C815.607 354 789.94 360.333 767.273 373C744.607 385 725.273 402.667 709.273 426L664.273 423C670.273 388.333 682.273 357.667 700.273 331C718.94 304.333 742.607 283.667 771.273 269C800.607 253.667 834.273 246 872.273 246C919.607 246 961.273 256.667 997.273 278C1033.94 298.667 1062.27 327.333 1082.27 364C1102.94 400.667 1113.27 442.667 1113.27 490C1113.27 540 1101.27 584.333 1077.27 623C1053.94 661.667 1021.61 692 980.273 714C939.607 736 893.607 747 842.273 747C786.94 747 736.273 736.333 690.273 715C644.94 693 605.273 660 571.273 616L658.273 531ZM1073.27 124H693.273L753.273 58L709.273 426H594.273L643.273 16H1073.27V124Z" fill="#313131"/>
</g>
<defs>
<clipPath id="clip0_99_1067">
<rect width="1113" height="460" fill="white"/>
</clipPath>
</defs>
</svg>
