<svg width="160" height="40" viewBox="0 0 160 40" fill="none" xmlns="http://www.w3.org/2000/svg">
<g clip-path="url(#clip0_2501_1040)">
<mask id="mask0_2501_1040" style="mask-type:luminance" maskUnits="userSpaceOnUse" x="0" y="0" width="160" height="40">
<path d="M159.975 0.0927734H0V39.9562H159.975V0.0927734Z" fill="white"/>
</mask>
<g mask="url(#mask0_2501_1040)">
<path d="M149.742 5.56855C150.198 5.46123 150.465 5.06367 150.339 4.6783C150.212 4.29416 149.741 4.06855 149.284 4.17465C148.829 4.28196 148.562 4.67952 148.687 5.06489C148.815 5.44904 149.286 5.67465 149.742 5.56855Z" fill="white"/>
<path d="M149.553 7.69624C149.68 8.08038 150.151 8.30599 150.608 8.1999C151.063 8.09258 151.33 7.69502 151.205 7.30965C151.077 6.92551 150.606 6.6999 150.149 6.80599C149.694 6.91331 149.427 7.31087 149.553 7.69624Z" fill="white"/>
<path d="M150.42 10.3271C150.547 10.7112 151.018 10.9369 151.475 10.8308C151.93 10.7234 152.198 10.3259 152.072 9.94051C151.945 9.55637 151.473 9.33076 151.017 9.43685C150.561 9.54417 150.294 9.94173 150.42 10.3271Z" fill="white"/>
<path d="M151.285 12.9575C151.412 13.3416 151.883 13.5672 152.34 13.4611C152.795 13.3538 153.063 12.9562 152.937 12.5709C152.81 12.1867 152.339 11.9611 151.882 12.0672C151.427 12.1745 151.159 12.5721 151.285 12.9575Z" fill="white"/>
<path d="M152.15 15.5878C152.277 15.972 152.749 16.1976 153.205 16.0915C153.661 15.9842 153.928 15.5866 153.802 15.2013C153.675 14.8171 153.204 14.5915 152.747 14.6976C152.292 14.8049 152.024 15.2025 152.15 15.5878Z" fill="white"/>
<path d="M153.015 18.2182C153.143 18.6024 153.614 18.828 154.071 18.7219C154.527 18.6158 154.793 18.217 154.667 17.8316C154.54 17.4475 154.069 17.2219 153.612 17.328C153.157 17.4353 152.89 17.8328 153.015 18.2182Z" fill="white"/>
<path d="M153.881 20.85C154.008 21.2342 154.479 21.4598 154.936 21.3537C155.392 21.2476 155.658 20.8488 155.533 20.4635C155.406 20.0793 154.934 19.8537 154.478 19.9598C154.022 20.0671 153.755 20.4647 153.881 20.85Z" fill="white"/>
<path d="M154.746 23.4804C154.873 23.8646 155.344 24.0902 155.801 23.9841C156.256 23.8768 156.524 23.4792 156.398 23.0938C156.271 22.7097 155.8 22.4841 155.343 22.5902C154.888 22.6975 154.62 23.0951 154.746 23.4804Z" fill="white"/>
<path d="M157.263 25.7247C157.136 25.3405 156.665 25.1149 156.208 25.221C155.753 25.3283 155.485 25.7259 155.611 26.1113C155.738 26.4954 156.21 26.721 156.666 26.6149C157.122 26.5076 157.389 26.1101 157.263 25.7247Z" fill="white"/>
<path d="M157.073 27.8525C156.618 27.9598 156.351 28.3573 156.476 28.7427C156.604 29.1269 157.075 29.3525 157.531 29.2464C157.987 29.1391 158.254 28.7415 158.128 28.3561C158.003 27.9708 157.53 27.7464 157.073 27.8525Z" fill="white"/>
<path d="M146.539 4.93525C146.995 4.82793 147.262 4.43037 147.136 4.045C147.009 3.66086 146.538 3.43525 146.081 3.54135C145.624 3.64744 145.359 4.04622 145.484 4.43159C145.611 4.81574 146.083 5.04135 146.539 4.93525Z" fill="white"/>
<path d="M146.349 7.06245C146.477 7.44659 146.948 7.6722 147.405 7.56611C147.86 7.45879 148.127 7.06123 148.001 6.67586C147.874 6.29172 147.403 6.06611 146.946 6.1722C146.491 6.27952 146.224 6.67708 146.349 7.06245Z" fill="white"/>
<path d="M147.213 9.69282C147.34 10.077 147.811 10.3026 148.268 10.1965C148.723 10.0892 148.99 9.6916 148.865 9.30623C148.738 8.92209 148.266 8.69648 147.81 8.80258C147.354 8.90989 147.087 9.30745 147.213 9.69282Z" fill="white"/>
<path d="M148.677 11.4344C148.222 11.5417 147.954 11.9393 148.08 12.3247C148.207 12.7088 148.678 12.9344 149.135 12.8283C149.59 12.721 149.858 12.3234 149.732 11.9381C149.605 11.5539 149.134 11.3283 148.677 11.4344Z" fill="white"/>
<path d="M149.542 14.0648C149.087 14.1721 148.819 14.5697 148.945 14.955C149.072 15.3392 149.544 15.5648 150 15.4587C150.457 15.3526 150.723 14.9538 150.597 14.5684C150.47 14.1843 149.999 13.9587 149.542 14.0648Z" fill="white"/>
<path d="M149.81 17.5854C149.938 17.9695 150.409 18.1952 150.865 18.0891C151.321 17.9817 151.588 17.5842 151.462 17.1988C151.335 16.8147 150.864 16.5891 150.407 16.6952C149.952 16.8025 149.685 17.2 149.81 17.5854Z" fill="white"/>
<path d="M151.731 20.7194C152.186 20.6121 152.453 20.2145 152.328 19.8292C152.2 19.445 151.729 19.2194 151.273 19.3255C150.817 19.4328 150.55 19.8304 150.676 20.2158C150.803 20.5999 151.274 20.8255 151.731 20.7194Z" fill="white"/>
<path d="M152.596 23.3503C153.051 23.243 153.319 22.8454 153.193 22.46C153.066 22.0759 152.594 21.8503 152.138 21.9564C151.682 22.0637 151.415 22.4613 151.541 22.8466C151.667 23.232 152.139 23.4564 152.596 23.3503Z" fill="white"/>
<path d="M154.056 25.0914C153.929 24.7072 153.458 24.4816 153.001 24.5877C152.546 24.695 152.278 25.0926 152.404 25.478C152.531 25.8621 153.002 26.0877 153.459 25.9816C153.915 25.8743 154.182 25.4768 154.056 25.0914Z" fill="white"/>
<path d="M154.923 27.7223C154.796 27.3381 154.325 27.1125 153.868 27.2186C153.413 27.3259 153.146 27.7235 153.271 28.1088C153.398 28.493 153.87 28.7186 154.326 28.6125C154.782 28.5052 155.049 28.1076 154.923 27.7223Z" fill="white"/>
<path d="M154.733 29.8499C154.278 29.9573 154.011 30.3548 154.137 30.7402C154.264 31.1243 154.735 31.3499 155.192 31.2438C155.647 31.1365 155.914 30.739 155.789 30.3536C155.661 29.9694 155.19 29.7438 154.733 29.8499Z" fill="white"/>
<path d="M143.313 4.24042C143.768 4.13311 144.036 3.73555 143.91 3.35018C143.783 2.96603 143.311 2.74042 142.855 2.84652C142.398 2.95262 142.132 3.3514 142.258 3.73676C142.385 4.12091 142.856 4.34652 143.313 4.24042Z" fill="white"/>
<path d="M143.123 6.3686C143.25 6.75275 143.721 6.97836 144.178 6.87226C144.633 6.76494 144.901 6.36738 144.775 5.98202C144.648 5.59787 144.177 5.37226 143.72 5.47836C143.265 5.58567 142.997 5.98324 143.123 6.3686Z" fill="white"/>
<path d="M143.988 8.99897C144.115 9.38312 144.586 9.60873 145.043 9.50263C145.498 9.39531 145.766 8.99775 145.64 8.61239C145.513 8.22824 145.042 8.00263 144.585 8.10873C144.13 8.21605 143.862 8.61361 143.988 8.99897Z" fill="white"/>
<path d="M145.45 10.7406C144.995 10.8479 144.728 11.2454 144.853 11.6308C144.981 12.015 145.452 12.2406 145.908 12.1345C146.364 12.0271 146.631 11.6296 146.505 11.2442C146.378 10.8601 145.907 10.6345 145.45 10.7406Z" fill="white"/>
<path d="M146.315 13.3709C145.86 13.4783 145.593 13.8758 145.719 14.2612C145.846 14.6453 146.317 14.8709 146.774 14.7648C147.23 14.6587 147.496 14.26 147.371 13.8746C147.243 13.4904 146.772 13.2648 146.315 13.3709Z" fill="white"/>
<path d="M147.181 16.0013C146.725 16.1086 146.458 16.5062 146.584 16.8915C146.711 17.2757 147.182 17.5013 147.639 17.3952C148.094 17.2879 148.362 16.8903 148.236 16.505C148.109 16.1208 147.637 15.8952 147.181 16.0013Z" fill="white"/>
<path d="M148.506 20.0256C148.961 19.9183 149.229 19.5207 149.103 19.1353C148.976 18.7512 148.505 18.5256 148.048 18.6317C147.593 18.739 147.325 19.1366 147.451 19.5219C147.578 19.9061 148.049 20.1317 148.506 20.0256Z" fill="white"/>
<path d="M149.369 22.656C149.825 22.5487 150.092 22.1512 149.966 21.7658C149.841 21.3804 149.368 21.156 148.911 21.2621C148.456 21.3695 148.189 21.767 148.314 22.1524C148.441 22.5365 148.913 22.7621 149.369 22.656Z" fill="white"/>
<path d="M150.237 25.2868C150.692 25.1795 150.959 24.7819 150.833 24.3966C150.706 24.0124 150.235 23.7868 149.778 23.8929C149.323 24.0002 149.056 24.3978 149.181 24.7832C149.309 25.1673 149.78 25.3929 150.237 25.2868Z" fill="white"/>
<path d="M151.697 27.0279C151.57 26.6438 151.098 26.4182 150.642 26.5243C150.186 26.6316 149.919 27.0291 150.045 27.4145C150.172 27.7986 150.643 28.0243 151.1 27.9182C151.555 27.8108 151.823 27.4133 151.697 27.0279Z" fill="white"/>
<path d="M151.509 29.1551C151.054 29.2624 150.786 29.66 150.912 30.0454C151.039 30.4295 151.51 30.6551 151.967 30.549C152.422 30.4417 152.69 30.0441 152.564 29.6588C152.437 29.2746 151.966 29.049 151.509 29.1551Z" fill="white"/>
<path d="M140.108 3.60761C140.563 3.50029 140.83 3.10273 140.705 2.71737C140.577 2.33322 140.106 2.10761 139.649 2.21371C139.194 2.32103 138.927 2.71859 139.053 3.10395C139.18 3.4881 139.651 3.71371 140.108 3.60761Z" fill="white"/>
<path d="M139.918 5.7353C140.045 6.11945 140.516 6.34506 140.973 6.23896C141.428 6.13164 141.696 5.73408 141.57 5.34871C141.443 4.96457 140.971 4.73896 140.515 4.84506C140.059 4.95237 139.792 5.34993 139.918 5.7353Z" fill="white"/>
<path d="M140.783 8.36616C140.91 8.75031 141.381 8.97592 141.838 8.86982C142.293 8.7625 142.561 8.36494 142.435 7.97957C142.308 7.59543 141.837 7.36982 141.38 7.47592C140.925 7.58323 140.657 7.98079 140.783 8.36616Z" fill="white"/>
<path d="M142.245 10.1063C141.79 10.2136 141.523 10.6112 141.648 10.9965C141.775 11.3807 142.247 11.6063 142.703 11.5002C143.159 11.3929 143.426 10.9953 143.3 10.6099C143.173 10.2258 142.702 10.0002 142.245 10.1063Z" fill="white"/>
<path d="M143.112 12.7381C142.657 12.8454 142.39 13.243 142.515 13.6284C142.643 14.0125 143.114 14.2381 143.571 14.132C144.026 14.0247 144.293 13.6271 144.167 13.2418C144.04 12.8576 143.569 12.632 143.112 12.7381Z" fill="white"/>
<path d="M143.976 15.3685C143.52 15.4758 143.253 15.8734 143.379 16.2587C143.506 16.6429 143.977 16.8685 144.434 16.7624C144.891 16.6563 145.156 16.2575 145.031 15.8722C144.904 15.488 144.432 15.2624 143.976 15.3685Z" fill="white"/>
<path d="M145.299 19.3918C145.754 19.2845 146.022 18.8869 145.896 18.5015C145.769 18.1174 145.298 17.8918 144.841 17.9979C144.386 18.1052 144.118 18.5028 144.244 18.8881C144.371 19.2723 144.842 19.4979 145.299 19.3918Z" fill="white"/>
<path d="M146.166 22.0231C146.622 21.9158 146.889 21.5183 146.763 21.1329C146.636 20.7487 146.165 20.5231 145.708 20.6292C145.253 20.7366 144.985 21.1341 145.111 21.5195C145.238 21.9036 145.71 22.1292 146.166 22.0231Z" fill="white"/>
<path d="M147.032 24.6535C147.487 24.5462 147.754 24.1486 147.629 23.7633C147.501 23.3791 147.03 23.1535 146.573 23.2596C146.117 23.3657 145.851 23.7645 145.976 24.1499C146.104 24.534 146.575 24.7596 147.032 24.6535Z" fill="white"/>
<path d="M148.492 26.3941C148.365 26.01 147.893 25.7844 147.437 25.8905C146.98 25.9966 146.714 26.3953 146.84 26.7807C146.967 27.1649 147.438 27.3905 147.895 27.2844C148.35 27.1771 148.618 26.7795 148.492 26.3941Z" fill="white"/>
<path d="M149.359 29.0255C149.232 28.6413 148.76 28.4157 148.304 28.5218C147.848 28.6291 147.581 29.0267 147.707 29.4121C147.834 29.7962 148.305 30.0218 148.762 29.9157C149.217 29.8084 149.485 29.4108 149.359 29.0255Z" fill="white"/>
<path d="M149.169 31.1527C148.714 31.26 148.446 31.6576 148.572 32.0429C148.699 32.4271 149.17 32.6527 149.627 32.5466C150.082 32.4393 150.35 32.0417 150.224 31.6563C150.097 31.2722 149.626 31.0466 149.169 31.1527Z" fill="white"/>
<path d="M136.881 2.91328C137.336 2.80596 137.604 2.4084 137.478 2.02303C137.351 1.63888 136.88 1.41327 136.423 1.51937C135.968 1.62669 135.7 2.02425 135.826 2.40962C135.953 2.79376 136.424 3.01937 136.881 2.91328Z" fill="white"/>
<path d="M136.693 5.04048C136.82 5.42462 137.292 5.65023 137.748 5.54413C138.204 5.43682 138.471 5.03926 138.345 4.65389C138.218 4.26974 137.747 4.04413 137.29 4.15023C136.835 4.25755 136.567 4.65511 136.693 5.04048Z" fill="white"/>
<path d="M137.558 7.67182C137.686 8.05597 138.157 8.28158 138.614 8.17548C139.069 8.06817 139.336 7.6706 139.21 7.28524C139.083 6.90109 138.612 6.67548 138.155 6.78158C137.7 6.8889 137.433 7.28646 137.558 7.67182Z" fill="white"/>
<path d="M139.021 9.41244C138.565 9.51976 138.298 9.91732 138.424 10.3027C138.551 10.6868 139.022 10.9124 139.479 10.8063C139.935 10.7002 140.201 10.3015 140.076 9.9161C139.948 9.53195 139.477 9.30634 139.021 9.41244Z" fill="white"/>
<path d="M139.886 12.0428C139.431 12.1501 139.163 12.5477 139.289 12.9331C139.416 13.3172 139.887 13.5428 140.344 13.4367C140.799 13.3294 141.067 12.9318 140.941 12.5465C140.814 12.1623 140.343 11.9367 139.886 12.0428Z" fill="white"/>
<path d="M140.751 14.6746C140.296 14.782 140.028 15.1795 140.154 15.5649C140.281 15.949 140.752 16.1746 141.209 16.0685C141.664 15.9612 141.932 15.5637 141.806 15.1783C141.679 14.7942 141.208 14.5685 140.751 14.6746Z" fill="white"/>
<path d="M141.616 17.3051C141.161 17.4124 140.894 17.81 141.019 18.1953C141.147 18.5795 141.618 18.8051 142.074 18.699C142.53 18.5917 142.797 18.1941 142.671 17.8088C142.546 17.4234 142.073 17.199 141.616 17.3051Z" fill="white"/>
<path d="M142.94 21.3283C143.395 21.221 143.662 20.8234 143.537 20.4381C143.409 20.0539 142.938 19.8283 142.482 19.9344C142.026 20.0417 141.759 20.4393 141.885 20.8247C142.012 21.2088 142.483 21.4344 142.94 21.3283Z" fill="white"/>
<path d="M143.805 23.9587C144.26 23.8514 144.528 23.4538 144.402 23.0684C144.275 22.6843 143.804 22.4587 143.347 22.5648C142.89 22.6709 142.624 23.0697 142.75 23.455C142.877 23.8392 143.348 24.0648 143.805 23.9587Z" fill="white"/>
<path d="M145.267 25.7003C145.14 25.3161 144.669 25.0905 144.212 25.1966C143.757 25.3039 143.489 25.7015 143.615 26.0869C143.742 26.471 144.213 26.6966 144.67 26.5905C145.125 26.4832 145.393 26.0856 145.267 25.7003Z" fill="white"/>
<path d="M146.132 28.3306C146.005 27.9465 145.534 27.7209 145.077 27.827C144.622 27.9343 144.355 28.3319 144.48 28.7172C144.607 29.1014 145.079 29.327 145.535 29.2209C145.991 29.1136 146.258 28.716 146.132 28.3306Z" fill="white"/>
<path d="M145.942 30.4588C145.487 30.5661 145.22 30.9637 145.346 31.3491C145.473 31.7332 145.944 31.9588 146.401 31.8527C146.856 31.7454 147.123 31.3479 146.998 30.9625C146.87 30.5783 146.399 30.3527 145.942 30.4588Z" fill="white"/>
<path d="M134.541 4.91083C134.997 4.80352 135.264 4.40596 135.138 4.02059C135.011 3.63644 134.54 3.41083 134.083 3.51693C133.628 3.62425 133.36 4.02181 133.486 4.40718C133.613 4.79132 134.085 5.01693 134.541 4.91083Z" fill="white"/>
<path d="M134.353 7.03803C134.481 7.42218 134.952 7.64779 135.408 7.54169C135.864 7.43438 136.131 7.03682 136.005 6.65145C135.878 6.2673 135.407 6.04169 134.95 6.14779C134.495 6.25511 134.228 6.65267 134.353 7.03803Z" fill="white"/>
<path d="M135.815 8.77914C135.36 8.88646 135.093 9.28402 135.219 9.66938C135.346 10.0535 135.817 10.2791 136.274 10.173C136.729 10.0657 136.996 9.66816 136.871 9.2828C136.743 8.89865 136.272 8.67304 135.815 8.77914Z" fill="white"/>
<path d="M136.681 11.41C136.225 11.5173 135.958 11.9149 136.084 12.3002C136.211 12.6844 136.682 12.91 137.139 12.8039C137.596 12.6978 137.862 12.299 137.736 11.9137C137.609 11.5295 137.137 11.3039 136.681 11.41Z" fill="white"/>
<path d="M137.546 14.0404C137.091 14.1477 136.823 14.5452 136.949 14.9306C137.076 15.3148 137.547 15.5404 138.004 15.4343C138.459 15.327 138.727 14.9294 138.601 14.544C138.474 14.1599 138.003 13.9343 137.546 14.0404Z" fill="white"/>
<path d="M138.411 16.6722C137.956 16.7795 137.689 17.1771 137.814 17.5624C137.941 17.9466 138.413 18.1722 138.869 18.0661C139.325 17.9588 139.592 17.5612 139.466 17.1759C139.339 16.7917 138.868 16.5661 138.411 16.6722Z" fill="white"/>
<path d="M139.735 20.695C140.19 20.5877 140.457 20.1901 140.332 19.8048C140.204 19.4206 139.733 19.195 139.276 19.3011C138.821 19.4084 138.554 19.806 138.679 20.1914C138.807 20.5755 139.278 20.8011 139.735 20.695Z" fill="white"/>
<path d="M140.602 23.3259C141.057 23.2186 141.324 22.821 141.199 22.4356C141.072 22.0515 140.6 21.8259 140.144 21.932C139.688 22.0393 139.421 22.4368 139.547 22.8222C139.674 23.2064 140.145 23.432 140.602 23.3259Z" fill="white"/>
<path d="M141.465 25.9562C141.92 25.8489 142.188 25.4514 142.062 25.066C141.935 24.6819 141.464 24.4562 141.007 24.5623C140.552 24.6697 140.284 25.0672 140.41 25.4526C140.537 25.8367 141.008 26.0623 141.465 25.9562Z" fill="white"/>
<path d="M142.927 27.6978C142.8 27.3137 142.329 27.0881 141.872 27.1942C141.417 27.3015 141.149 27.6991 141.275 28.0844C141.402 28.4686 141.874 28.6942 142.33 28.5881C142.786 28.4808 143.053 28.0832 142.927 27.6978Z" fill="white"/>
<path d="M142.739 29.8255C142.284 29.9328 142.017 30.3304 142.142 30.7158C142.27 31.0999 142.741 31.3255 143.197 31.2194C143.653 31.1121 143.92 30.7145 143.794 30.3292C143.667 29.945 143.196 29.7194 142.739 29.8255Z" fill="white"/>
<path d="M144.468 35.0868C144.013 35.1941 143.745 35.5916 143.871 35.977C143.997 36.3624 144.469 36.5868 144.926 36.4807C145.383 36.3746 145.649 35.9758 145.523 35.5904C145.396 35.2063 144.925 34.9807 144.468 35.0868Z" fill="white"/>
<path d="M131.317 4.21601C131.772 4.10869 132.039 3.71113 131.914 3.32577C131.786 2.94162 131.315 2.71601 130.858 2.82211C130.403 2.92942 130.136 3.32699 130.262 3.71235C130.389 4.0965 130.86 4.32211 131.317 4.21601Z" fill="white"/>
<path d="M131.129 6.34419C131.256 6.72833 131.727 6.95394 132.184 6.84785C132.639 6.74053 132.906 6.34297 132.781 5.9576C132.654 5.57345 132.182 5.34785 131.726 5.45394C131.27 5.56126 131.003 5.95882 131.129 6.34419Z" fill="white"/>
<path d="M131.994 8.97456C132.121 9.3587 132.592 9.58431 133.049 9.47822C133.504 9.3709 133.772 8.97334 133.646 8.58797C133.519 8.20383 133.048 7.97822 132.591 8.08431C132.136 8.19163 131.868 8.58919 131.994 8.97456Z" fill="white"/>
<path d="M134.509 11.2183C134.382 10.8342 133.911 10.6086 133.454 10.7147C132.999 10.822 132.731 11.2196 132.857 11.6049C132.984 11.9891 133.456 12.2147 133.912 12.1086C134.368 12.0013 134.635 11.6037 134.509 11.2183Z" fill="white"/>
<path d="M134.78 14.739C135.235 14.6316 135.502 14.2341 135.376 13.8487C135.249 13.4646 134.778 13.239 134.321 13.3451C133.866 13.4524 133.599 13.8499 133.724 14.2353C133.852 14.6194 134.323 14.8451 134.78 14.739Z" fill="white"/>
<path d="M135.645 17.3698C136.1 17.2625 136.367 16.8649 136.242 16.4796C136.114 16.0954 135.643 15.8698 135.187 15.9759C134.731 16.0832 134.464 16.4808 134.59 16.8662C134.717 17.2503 135.188 17.4759 135.645 17.3698Z" fill="white"/>
<path d="M136.51 20.0012C136.965 19.8938 137.233 19.4963 137.107 19.1109C136.98 18.7268 136.509 18.5012 136.052 18.6073C135.595 18.7134 135.329 19.1121 135.455 19.4975C135.582 19.8817 136.053 20.1073 136.51 20.0012Z" fill="white"/>
<path d="M137.375 22.632C137.831 22.5247 138.098 22.1271 137.972 21.7418C137.845 21.3576 137.374 21.132 136.917 21.2381C136.462 21.3454 136.194 21.743 136.32 22.1284C136.447 22.5125 136.919 22.7381 137.375 22.632Z" fill="white"/>
<path d="M138.24 25.2624C138.696 25.1551 138.963 24.7575 138.837 24.3722C138.71 23.988 138.239 23.7624 137.782 23.8685C137.327 23.9758 137.06 24.3734 137.185 24.7587C137.313 25.1429 137.784 25.3685 138.24 25.2624Z" fill="white"/>
<path d="M139.703 27.004C139.575 26.6198 139.104 26.3942 138.648 26.5003C138.192 26.6076 137.925 27.0052 138.051 27.3906C138.178 27.7747 138.649 28.0003 139.106 27.8942C139.561 27.7869 139.828 27.3894 139.703 27.004Z" fill="white"/>
<path d="M140.568 29.6344C140.441 29.2502 139.969 29.0246 139.513 29.1307C139.057 29.238 138.79 29.6356 138.916 30.0209C139.043 30.4051 139.514 30.6307 139.971 30.5246C140.428 30.4185 140.694 30.0197 140.568 29.6344Z" fill="white"/>
<path d="M140.378 31.762C139.923 31.8694 139.655 32.2669 139.781 32.6523C139.908 33.0364 140.379 33.262 140.836 33.156C141.291 33.0486 141.559 32.6511 141.433 32.2657C141.306 31.8816 140.835 31.656 140.378 31.762Z" fill="white"/>
<path d="M128.708 2.69295C128.581 2.30881 128.11 2.0832 127.653 2.18929C127.198 2.29661 126.931 2.69417 127.056 3.07954C127.184 3.46368 127.655 3.68929 128.112 3.5832C128.567 3.47588 128.834 3.07832 128.708 2.69295Z" fill="white"/>
<path d="M129.574 5.3243C129.447 4.94015 128.975 4.71454 128.519 4.82064C128.063 4.92796 127.796 5.32552 127.922 5.71089C128.049 6.09503 128.52 6.32064 128.977 6.21454C129.434 6.10845 129.699 5.70967 129.574 5.3243Z" fill="white"/>
<path d="M130.439 7.95516C130.312 7.57101 129.841 7.3454 129.384 7.4515C128.929 7.55882 128.661 7.95638 128.787 8.34175C128.914 8.72589 129.385 8.9515 129.842 8.8454C130.297 8.73809 130.565 8.34053 130.439 7.95516Z" fill="white"/>
<path d="M131.304 10.5855C131.177 10.2014 130.706 9.97577 130.249 10.0819C129.794 10.1892 129.526 10.5868 129.652 10.9721C129.779 11.3563 130.251 11.5819 130.707 11.4758C131.163 11.3685 131.43 10.9709 131.304 10.5855Z" fill="white"/>
<path d="M132.17 13.2159C132.042 12.8318 131.571 12.6061 131.114 12.7122C130.658 12.8183 130.392 13.2171 130.517 13.6025C130.645 13.9866 131.116 14.2122 131.573 14.1061C132.028 13.9988 132.295 13.6013 132.17 13.2159Z" fill="white"/>
<path d="M133.037 15.8477C132.909 15.4636 132.438 15.238 131.982 15.3441C131.526 15.4514 131.259 15.849 131.385 16.2343C131.512 16.6185 131.983 16.8441 132.44 16.738C132.895 16.6307 133.162 16.2331 133.037 15.8477Z" fill="white"/>
<path d="M133.9 18.4781C133.773 18.094 133.302 17.8684 132.845 17.9745C132.39 18.0818 132.122 18.4793 132.248 18.8647C132.375 19.2488 132.846 19.4745 133.303 19.3684C133.758 19.261 134.026 18.8635 133.9 18.4781Z" fill="white"/>
<path d="M134.765 21.1085C134.638 20.7243 134.167 20.4987 133.71 20.6048C133.255 20.7121 132.987 21.1097 133.113 21.4951C133.24 21.8792 133.711 22.1048 134.168 21.9987C134.623 21.8914 134.891 21.4938 134.765 21.1085Z" fill="white"/>
<path d="M135.035 24.6296C135.491 24.5223 135.758 24.1247 135.632 23.7393C135.505 23.3552 135.034 23.1296 134.577 23.2357C134.122 23.343 133.855 23.7406 133.98 24.1259C134.107 24.5101 134.579 24.7357 135.035 24.6296Z" fill="white"/>
<path d="M136.498 26.3697C136.37 25.9856 135.899 25.76 135.442 25.8661C134.987 25.9734 134.72 26.3709 134.846 26.7563C134.973 27.1404 135.444 27.3661 135.901 27.26C136.356 27.1526 136.623 26.7551 136.498 26.3697Z" fill="white"/>
<path d="M137.363 29.0015C137.236 28.6174 136.764 28.3918 136.308 28.4979C135.852 28.6052 135.585 29.0028 135.711 29.3881C135.838 29.7723 136.309 29.9979 136.766 29.8918C137.221 29.7845 137.489 29.3869 137.363 29.0015Z" fill="white"/>
<path d="M137.175 31.1283C136.72 31.2356 136.452 31.6331 136.578 32.0185C136.705 32.4026 137.176 32.6283 137.633 32.5222C138.09 32.4161 138.356 32.0173 138.23 31.6319C138.103 31.2478 137.632 31.0222 137.175 31.1283Z" fill="white"/>
<path d="M138.903 36.3905C138.448 36.4978 138.181 36.8953 138.306 37.2807C138.434 37.6649 138.905 37.8905 139.362 37.7844C139.817 37.6771 140.084 37.2795 139.958 36.8941C139.831 36.51 139.36 36.2844 138.903 36.3905Z" fill="white"/>
<path d="M133.948 30.4344C133.493 30.5417 133.226 30.9393 133.351 31.3247C133.477 31.71 133.95 31.9344 134.406 31.8283C134.863 31.7222 135.129 31.3234 135.003 30.9381C134.876 30.5539 134.405 30.3283 133.948 30.4344Z" fill="white"/>
<path d="M135.679 35.6952C135.223 35.8025 134.956 36.2 135.082 36.5854C135.209 36.9695 135.68 37.1952 136.137 37.0891C136.592 36.9817 136.86 36.5842 136.734 36.1988C136.607 35.8147 136.136 35.5891 135.679 35.6952Z" fill="white"/>
<path d="M132.474 35.0624C132.018 35.1697 131.751 35.5673 131.877 35.9527C132.004 36.3368 132.475 36.5624 132.932 36.4563C133.387 36.349 133.655 35.9515 133.529 35.5661C133.403 35.1807 132.93 34.9563 132.474 35.0624Z" fill="white"/>
<path d="M130.114 36.9989C129.659 37.1062 129.392 37.5037 129.517 37.8891C129.645 38.2733 130.116 38.4989 130.572 38.3928C131.028 38.2854 131.295 37.8879 131.169 37.5025C131.042 37.1184 130.571 36.8928 130.114 36.9989Z" fill="white"/>
<path d="M126.909 36.3661C126.454 36.4734 126.187 36.8709 126.312 37.2563C126.44 37.6404 126.911 37.8661 127.367 37.76C127.823 37.6526 128.09 37.2551 127.964 36.8697C127.837 36.4856 127.366 36.26 126.909 36.3661Z" fill="white"/>
<path d="M105.576 22.8793H109.159L112.43 18.5281L118.159 22.8793H122.683L114.073 16.3415L118.407 10.5757H114.824L111.793 14.6086L106.481 10.5757H101.957L110.148 16.7952L105.576 22.8793Z" fill="white"/>
<path d="M70.7894 22.8769H80.4863C83.0431 22.8793 84.8902 20.8171 84.1921 18.7415L82.4678 13.6123C81.8637 11.8159 79.9183 10.5757 77.704 10.5757H66.6543L67.4319 12.8867L70.7894 22.8769ZM77.1027 12.8867C78.2706 12.8867 79.2982 13.5415 79.6162 14.4903L81.0586 18.7757C81.3578 19.6647 80.5658 20.5489 79.4702 20.5489H73.1526L70.5741 12.8867H77.1027Z" fill="white"/>
<path d="M89.929 22.8769L102.54 22.8781L101.758 20.5489H92.2893L91.3325 17.7037H97.9131L97.1674 15.4867H90.5852L89.7108 12.8867H99.1822L98.4046 10.5757H85.791L89.9262 22.8769H89.929Z" fill="white"/>
<path d="M53.4028 22.8769L50.5453 14.372L61.5213 22.8769H65.3919L61.2568 10.5757H58.1103L60.9706 19.0793L49.9946 10.5757H46.1211L50.2591 22.8769H53.4028Z" fill="white"/>
<path d="M33.7143 12.8867L36.2957 20.5647H32.3961L33.1737 22.8769H44.2856L43.508 20.5647H39.4437L36.8608 12.8867H40.8933L40.1157 10.5757H29.0039L29.7815 12.8867H33.7143Z" fill="white"/>
<path d="M159.711 25.9184L152.499 4.46107C151.636 1.88911 148.819 0.0927734 145.651 0.0927734H22.7617C19.0197 0.0927734 15.3716 0.989115 12.2121 2.68424L3.24516 7.49765C0.616064 8.91107 -0.579239 11.5598 0.270626 14.0891L7.48146 35.5477C8.34578 38.1196 11.1628 39.9159 14.3324 39.9159H116.56L116.591 39.9562L116.666 39.9159H137.165C140.942 39.9159 144.625 39.0111 147.815 37.2977L148.188 37.0977C148.316 37.0598 148.427 36.9989 148.517 36.9208L152.375 34.8525L156.737 32.5074C157.152 32.2855 157.533 32.0281 157.874 31.7428C159.704 30.2184 160.408 27.9867 159.713 25.9184H159.711ZM13.0143 3.74765C15.9281 2.18424 19.3088 1.35253 22.7617 1.35253H124.277L132.721 26.4489C133.299 28.1635 132.458 30.0294 130.673 30.9867L126.129 33.4257H22.7892C20.6544 33.4257 18.7566 32.2135 18.1727 30.483L9.7738 5.48911L13.0143 3.74765ZM116.388 38.655H14.3324C11.8146 38.655 9.60613 37.2464 8.91815 35.2038L8.59584 34.2452L1.70875 13.7452C1.04533 11.772 1.99493 9.66472 4.04733 8.56229L8.31977 6.26838L16.327 30.0916L16.5857 30.8598C17.3677 33.1903 19.9201 34.8172 22.7892 34.8172H123.536L118.052 37.7611L116.388 38.6538V38.655ZM143.19 37.7928C143.2 37.7062 143.192 37.6159 143.163 37.5257C143.036 37.1416 142.565 36.9159 142.108 37.022C141.653 37.1294 141.386 37.5269 141.511 37.9123C141.545 38.0135 141.601 38.1025 141.676 38.1781C140.318 38.4696 138.919 38.6269 137.505 38.6489C137.311 38.3781 136.922 38.2367 136.542 38.3257C136.32 38.3781 136.143 38.4989 136.035 38.6538H134.363C134.429 38.5123 134.444 38.3525 134.393 38.1952C134.266 37.8111 133.795 37.5855 133.338 37.6916C132.883 37.7989 132.615 38.1964 132.741 38.5818C132.75 38.6062 132.758 38.6306 132.77 38.6538H125.53C125.345 38.3635 124.941 38.2086 124.549 38.3013C124.315 38.3562 124.133 38.4879 124.026 38.6538H122.358C122.434 38.5062 122.453 38.3379 122.398 38.1708C122.271 37.7867 121.8 37.5611 121.343 37.6672C120.888 37.7745 120.62 38.172 120.746 38.5574C120.758 38.5916 120.772 38.6233 120.788 38.6538H119.013L123.066 36.4794C123.072 36.5062 123.077 36.533 123.086 36.5598C123.213 36.944 123.685 37.1696 124.141 37.0635C124.597 36.9562 124.864 36.5586 124.738 36.1733C124.682 36.0013 124.555 35.8611 124.391 35.7684L125.228 35.3184L125.78 35.0208C125.983 35.1403 126.244 35.1867 126.502 35.1257C126.714 35.0757 126.885 34.9623 126.994 34.8159H128.672C128.613 34.9525 128.602 35.105 128.652 35.2562C128.779 35.6403 129.251 35.8659 129.707 35.7598C130.163 35.6525 130.43 35.255 130.304 34.8696C130.298 34.8513 130.291 34.8342 130.283 34.8159H137.528C137.719 35.094 138.113 35.2391 138.498 35.1501C138.722 35.0977 138.901 34.9745 139.01 34.8159H140.68C140.612 34.9586 140.595 35.1208 140.649 35.2806C140.776 35.6647 141.247 35.8903 141.704 35.7842C142.159 35.6769 142.426 35.2794 142.301 34.894C142.292 34.8672 142.28 34.8416 142.269 34.8159H149.509C149.522 34.8355 149.535 34.855 149.549 34.8733L148.013 35.6964C147.903 35.6842 147.79 35.6903 147.677 35.7172C147.39 35.7842 147.177 35.9672 147.092 36.1903L147.015 36.2306C145.811 36.8769 144.528 37.3977 143.192 37.7891L143.19 37.7928ZM155.933 31.4452L153.352 32.8318C153.457 32.672 153.491 32.4781 153.428 32.2891C153.301 31.905 152.83 31.6794 152.373 31.7855C151.918 31.8928 151.651 32.2903 151.776 32.6757C151.888 33.0123 152.262 33.2269 152.659 33.2038L152.246 33.4257H147.778C147.588 33.1464 147.193 32.9989 146.807 33.0891C146.582 33.1416 146.403 33.2659 146.294 33.4257H144.623C144.693 33.283 144.71 33.1196 144.657 32.9598C144.529 32.5757 144.058 32.3501 143.601 32.4562C143.146 32.5635 142.879 32.9611 143.005 33.3464C143.013 33.3745 143.025 33.4001 143.038 33.4257H135.798C135.614 33.1306 135.207 32.972 134.811 33.0647C134.574 33.1208 134.389 33.255 134.282 33.4257H132.615C132.695 33.2769 132.717 33.105 132.66 32.9355C132.533 32.5513 132.062 32.3257 131.605 32.4318C131.15 32.5391 130.882 32.9367 131.008 33.322C131.02 33.3586 131.036 33.3928 131.054 33.4257H128.75L131.426 31.9891C133.733 30.7525 134.821 28.3403 134.072 26.1233L125.741 1.35253H129.566C129.775 1.5635 130.116 1.6635 130.452 1.58546C130.625 1.54521 130.771 1.46107 130.879 1.35253H132.636C132.582 1.48546 132.575 1.6318 132.623 1.77692C132.75 2.16107 133.221 2.38667 133.678 2.28058C134.133 2.17326 134.4 1.7757 134.275 1.39033C134.27 1.37814 134.264 1.36594 134.26 1.35253H141.54C141.747 1.57936 142.103 1.69033 142.449 1.60985C142.636 1.56594 142.791 1.47326 142.899 1.35253H144.645C144.583 1.49155 144.57 1.64643 144.62 1.80131C144.748 2.18546 145.219 2.41107 145.676 2.30497C146.131 2.19765 146.398 1.80009 146.272 1.41472C146.268 1.40375 146.264 1.39277 146.259 1.3818C146.868 1.43667 147.45 1.57448 147.991 1.78302C147.82 1.95863 147.75 2.19887 147.826 2.43546C147.953 2.8196 148.425 3.04521 148.881 2.93911C149.121 2.88302 149.309 2.74521 149.415 2.57082C150.185 3.15497 150.769 3.92082 151.067 4.80619L158.279 26.2647C158.942 28.2379 157.99 30.3452 155.937 31.4477L155.933 31.4452Z" fill="white"/>
</g>
</g>
<defs>
<clipPath id="clip0_2501_1040">
<rect width="160" height="40" fill="white"/>
</clipPath>
</defs>
</svg>
