<svg width="587" height="176" viewBox="0 0 587 176" fill="none" xmlns="http://www.w3.org/2000/svg">
<path d="M487.532 80.3271H587V111.388H487.532V80.3271Z" fill="#00B05C"/>
<path d="M477.585 111.388H587V142.45H477.585V111.388Z" fill="#FFD12F"/>
<path d="M489.742 142.45H587V173.511H489.742V142.45Z" fill="#EF3131"/>
<path d="M1.11073 80.3072H23.5474V173.511H1.11073V80.3072ZM0 46.8608C0 43.4418 1.33287 40.5431 3.99861 38.1647C6.81245 35.7863 9.84843 34.5971 13.1066 34.5971C16.3647 34.5971 19.3266 35.7863 21.9924 38.1647C24.6581 40.5431 25.991 43.4418 25.991 46.8608C25.991 50.577 24.6581 53.55 21.9924 55.7798C19.3266 58.0096 16.3647 59.1245 13.1066 59.1245C9.84843 59.1245 6.81245 58.0096 3.99861 55.7798C1.33287 53.55 0 50.577 0 46.8608Z" fill="#FFFDF7"/>
<path d="M78.8146 80.3072L80.3696 97.6993C83.4797 91.3073 88.2928 86.2532 94.8091 82.5369C101.325 78.672 108.878 76.7396 117.468 76.7396C126.206 76.7396 133.388 79.3409 139.016 84.5437C144.644 89.5978 147.531 96.2871 147.68 104.612V173.511H125.243V112.416C125.095 107.659 123.688 103.794 121.022 100.821C118.356 97.6993 114.21 96.0641 108.582 95.9155C100.733 95.9155 94.1426 99.1858 88.8112 105.726C83.6278 112.267 81.0361 120.666 81.0361 130.923V173.511H58.5994V80.3072H78.8146Z" fill="#FFFDF7"/>
<path d="M220.892 175.741C212.154 175.741 204.305 173.734 197.345 169.721C190.384 165.558 184.904 159.687 180.906 152.105C176.907 144.524 174.908 135.68 174.908 125.571C174.908 115.166 177.055 106.321 181.35 99.0371C185.645 91.7533 191.421 86.1789 198.677 82.3139C206.082 78.449 214.376 76.5166 223.558 76.5166C230.37 76.5166 236.886 77.8544 243.106 80.5301C249.475 83.2059 254.51 86.9964 258.212 91.9019V0.258789H280.649V173.511H257.99V159.91C253.547 164.518 248.142 168.308 241.774 171.281C235.554 174.254 228.593 175.741 220.892 175.741ZM227.778 156.788C235.628 156.788 242.144 154.781 247.327 150.768C252.659 146.605 256.213 141.105 257.99 134.267V115.76C256.361 109.517 252.733 104.389 247.105 100.375C241.626 96.3614 235.183 94.3547 227.778 94.3547C222.447 94.3547 217.486 95.6925 212.895 98.3682C208.304 100.895 204.601 104.537 201.788 109.294C199.122 113.902 197.789 119.254 197.789 125.348C197.789 131.146 199.122 136.423 201.788 141.18C204.601 145.936 208.304 149.727 212.895 152.551C217.486 155.376 222.447 156.788 227.778 156.788Z" fill="#FFFDF7"/>
<path d="M359.212 175.741C348.549 175.741 339.367 173.66 331.666 169.498C323.965 165.187 318.041 159.315 313.894 151.882C309.748 144.301 307.674 135.754 307.674 126.24C307.674 117.024 309.97 108.699 314.561 101.267C319.3 93.6857 325.594 87.6654 333.443 83.2058C341.292 78.7463 350.03 76.5166 359.656 76.5166C372.096 76.5166 382.389 80.1585 390.534 87.4424C398.828 94.5776 404.382 104.686 407.195 117.767L334.554 142.963C337.22 147.274 340.7 150.619 344.995 152.997C349.438 155.376 354.325 156.565 359.656 156.565C363.655 156.565 367.505 155.896 371.208 154.558C374.91 153.072 378.391 151.139 381.649 148.761L391.867 165.484C387.128 168.606 381.871 171.133 376.095 173.065C370.467 174.849 364.84 175.741 359.212 175.741ZM330.111 129.585L381.871 110.632C379.946 106.321 377.058 102.53 373.207 99.2601C369.505 95.9898 364.469 94.3547 358.101 94.3547C349.808 94.3547 342.995 97.2533 337.664 103.051C332.481 108.699 329.889 115.983 329.889 124.902C329.889 126.538 329.963 128.098 330.111 129.585Z" fill="#FFFDF7"/>
<path d="M513.974 173.511H486.872L462.437 141.18L439.778 173.511H417.341L451.329 126.686L416.23 80.3072H443.776L467.546 111.747L487.539 80.3072H509.976L477.765 125.571L513.974 173.511Z" fill="#FFFDF7"/>
</svg>
