<svg width="160" height="160" viewBox="0 0 160 160" fill="none" xmlns="http://www.w3.org/2000/svg">
<g id="Group 48095416">
<circle id="Ellipse 5" cx="80" cy="80" r="80" fill="#E41D32"/>
<g id="Group">
<path id="Vector" d="M52.8919 103.264L47.8896 108.266C45.2597 110.896 42.6299 113.526 40 116.156V103.282L40.0184 103.264H52.8919Z" fill="white"/>
<path id="Vector_2" d="M97.509 103.264V119.999H43.8633L51.5138 112.349L54.9345 108.946L60.5988 103.264H97.509Z" fill="white"/>
<path id="Vector_3" d="M97.5067 66.3721V97.8018H66.0586C76.3942 87.4846 87.024 76.8548 97.5067 66.3721Z" fill="white"/>
<path id="Vector_4" d="M119.999 43.8625V120H102.951V60.9107C106.022 57.8395 109.094 54.7682 112.165 51.6786L119.999 43.8625Z" fill="white"/>
<path id="Vector_5" d="M116.155 40C95.5577 60.616 76.1187 80.055 58.3533 97.8204H45.4062L102.528 40H116.155Z" fill="white"/>
<path id="Vector_6" d="M94.8595 40L40 95.5215V40H94.8595Z" fill="white"/>
</g>
</g>
</svg>
