<svg width="160" height="160" viewBox="0 0 160 160" fill="none" xmlns="http://www.w3.org/2000/svg">
<g id="Group 48095417">
<circle id="Ellipse 5" cx="80" cy="80" r="80" fill="#10447D"/>
<g id="Group 48095381">
<path id="Vector" d="M79.7921 70.6659L80.3634 74.157L82.2676 85.2649C82.4478 86.58 82.8566 91.2085 83.8239 91.9423C84.0914 92.1454 84.0575 92.247 83.7224 92.247C82.0484 92.247 80.3752 92.247 78.7029 92.247C78.4287 92.247 78.1993 92.12 78.0148 91.8661L77.1668 85.9377C77.1607 85.8921 77.1383 85.8503 77.1038 85.82C77.0692 85.7897 77.0249 85.7728 76.9789 85.7726L69.1336 85.7879C69.0952 85.788 69.0577 85.7984 69.0251 85.8181C68.9924 85.8378 68.9658 85.866 68.9482 85.8996C68.0173 87.6802 67.1397 89.4863 66.3154 91.3177C66.224 91.5208 66.2282 91.7256 66.328 91.9321C66.3438 91.9657 66.3509 92.0026 66.3486 92.0396C66.3464 92.0765 66.3348 92.1123 66.3151 92.1437C66.2954 92.175 66.2681 92.2009 66.2358 92.219C66.2034 92.237 66.167 92.2466 66.13 92.247H60.4301C60.4152 92.247 60.4005 92.2431 60.3875 92.2358C60.3746 92.2284 60.3637 92.2178 60.3561 92.2051C60.3484 92.1923 60.3442 92.1777 60.3438 92.1628C60.3434 92.1479 60.3469 92.1332 60.3539 92.12L62.4536 88.0679L68.6893 76.0866C70.3565 72.9349 71.5625 70.6041 72.3073 69.0943C72.4224 68.8641 72.3961 68.6229 72.2286 68.3707V68.1422C72.2292 68.1083 72.2445 68.0759 72.2711 68.0522C72.2977 68.0285 72.3335 68.0152 72.3707 68.0152L78.84 68C79.1887 67.9983 79.3909 68.171 79.4468 68.518L79.7921 70.6659ZM75.3108 71.9989L71.2561 81.0857C71.2507 81.0984 71.2485 81.1123 71.2497 81.126C71.2509 81.1397 71.2554 81.153 71.263 81.1645C71.2705 81.1761 71.2808 81.1856 71.2929 81.1922C71.305 81.1989 71.3185 81.2024 71.3323 81.2025H76.3772C76.396 81.2027 76.4146 81.1988 76.4318 81.1911C76.449 81.1835 76.4645 81.1722 76.4772 81.1581C76.4898 81.144 76.4995 81.1273 76.5054 81.1092C76.5114 81.091 76.5135 81.0718 76.5118 81.0527L75.547 72.0369C75.5131 71.7306 75.4344 71.7179 75.3108 71.9989Z" fill="#FEFEFE"/>
<path id="Vector_2" d="M34.823 68.0918C36.161 68.3076 38.2734 67.5002 37.8443 69.6558C37.543 71.1707 37.2798 72.6924 37.0547 74.2208L35.5796 82.3531C35.1175 84.4985 34.4015 87.2812 36.684 88.213C39.3195 89.292 41.7772 87.3319 42.2697 84.6305C42.8131 81.6549 43.1727 79.6059 43.3488 78.4837L44.1714 73.6699C44.4608 72.4055 45.3063 69.4958 44.636 68.3152C44.592 68.2391 44.6123 68.2018 44.697 68.2035L49.5717 68.2492C49.6127 68.2492 49.6529 68.2573 49.69 68.2731C49.7271 68.2888 49.7603 68.3118 49.7875 68.3406C50.0262 68.5962 50.0965 68.9339 49.9983 69.3537L49.3889 72.8879L47.9925 80.6951C47.5431 83.0132 47.3502 85.4836 46.2787 87.6772C44.669 90.4498 42.2773 92.1331 39.1037 92.7272C36.42 93.2299 33.4418 92.6917 31.4894 90.6605C29.1764 87.9971 30.0929 84.5493 30.7074 81.4568L31.7229 75.8077L32.868 68.9322C32.3771 68.465 32.3585 68.2365 32.8121 68.2467C33.4994 68.2585 34.1696 68.2069 34.823 68.0918Z" fill="#FEFEFE"/>
<path id="Vector_3" d="M112.806 76.1146L112.408 78.0976C112.34 78.4327 112.145 78.6011 111.824 78.6028L109.379 78.618C109.34 78.618 109.302 78.63 109.273 78.6519C109.244 78.6737 109.224 78.704 109.219 78.7374L108.663 81.7638C108.34 83.2398 108.057 84.7234 107.815 86.2146C107.505 88.1315 109.036 88.3041 110.455 88.3143C110.472 88.3141 110.488 88.3175 110.503 88.3242C110.518 88.3308 110.532 88.3406 110.543 88.3527C110.553 88.3649 110.561 88.3791 110.565 88.3944C110.569 88.4097 110.57 88.4257 110.567 88.4412L109.94 91.9907C109.926 92.0719 109.886 92.1467 109.824 92.2046C109.763 92.2625 109.685 92.3005 109.6 92.3131C105.753 92.8615 102.298 91.3509 103.189 86.7452C103.4 85.656 103.544 84.7014 103.702 83.6782L104.474 79.3594C104.557 78.9007 104.375 78.6663 103.93 78.6561L101.907 78.6028C101.881 78.6022 101.857 78.596 101.834 78.5847C101.811 78.5734 101.791 78.5572 101.775 78.5373C101.759 78.5173 101.747 78.4941 101.741 78.469C101.734 78.444 101.733 78.4178 101.737 78.3921L101.925 77.2039L102.341 75.0889C102.348 75.054 102.366 75.0223 102.393 74.9988C102.42 74.9754 102.455 74.9615 102.491 74.9594C105.522 74.8147 107.226 74.5786 108.208 71.2678C108.522 70.2133 109.323 69.7444 110.613 69.8612C110.631 69.863 110.648 69.8685 110.664 69.8775C110.68 69.8865 110.693 69.8987 110.704 69.9134C110.715 69.9282 110.723 69.9451 110.727 69.9632C110.732 69.9813 110.733 70.0002 110.73 70.0186L109.904 74.7157C109.902 74.7307 109.903 74.7461 109.907 74.7608C109.911 74.7755 109.919 74.7891 109.929 74.8007C109.94 74.8124 109.953 74.8217 109.967 74.828C109.982 74.8344 109.998 74.8377 110.014 74.8376C110.994 74.8274 113.182 74.3805 112.806 76.1146Z" fill="#FEFEFE"/>
<path id="Vector_4" d="M123.435 74.4007C125.872 74.7494 127.74 75.941 129.038 77.9755C130.083 80.1725 130.276 82.4542 129.62 84.8205C127.947 89.8493 124.474 92.4729 119.2 92.6913C116.549 92.8013 114.337 91.8111 112.563 89.7207C110.56 86.6587 110.974 82.6827 112.693 79.5928C114.167 77.3179 116.191 75.7387 118.766 74.8551C120.299 74.4218 121.856 74.2703 123.435 74.4007ZM117.256 87.611C117.692 87.9675 118.209 88.2153 118.779 88.3404C119.348 88.4654 119.959 88.4653 120.576 88.3398C121.193 88.2144 121.804 87.9663 122.374 87.6095C122.945 87.2527 123.463 86.7943 123.9 86.2605C124.337 85.7267 124.684 85.1278 124.921 84.4982C125.158 83.8686 125.28 83.2205 125.281 82.591C125.282 81.9614 125.162 81.3628 124.927 80.8291C124.692 80.2955 124.346 79.8374 123.911 79.4809C123.475 79.1244 122.958 78.8766 122.388 78.7515C121.819 78.6265 121.208 78.6267 120.591 78.7521C119.974 78.8775 119.363 79.1257 118.793 79.4824C118.222 79.8392 117.704 80.2976 117.267 80.8314C116.83 81.3653 116.483 81.9641 116.246 82.5937C116.009 83.2233 115.887 83.8714 115.886 84.5009C115.885 85.1305 116.005 85.7292 116.24 86.2628C116.476 86.7964 116.821 87.2545 117.256 87.611Z" fill="#FEFEFE"/>
<path id="Vector_5" d="M62.257 77.6788L52.609 88.2256C52.5176 88.3254 52.5388 88.3754 52.6725 88.3754L59.7968 88.3449L59.0402 92.1051C59.0331 92.141 59.0135 92.1733 58.9847 92.1965C58.956 92.2197 58.9199 92.2322 58.8827 92.232L53.2514 92.2574L47.9145 92.2473C47.2831 92.2456 46.9759 91.9307 46.9929 91.3028C47.0132 90.5157 47.2975 88.8832 47.8942 88.2865C48.4612 87.7195 49.0105 87.1271 49.542 86.5092L56.8237 78.8721C56.9083 78.7841 56.888 78.7401 56.7627 78.7401L49.4963 78.8112L50.1234 75.0459C50.1318 74.9927 50.1593 74.9442 50.2007 74.9093C50.2421 74.8744 50.2949 74.8553 50.3493 74.8555C54.1882 74.8555 57.9696 74.8555 61.6934 74.8555C62.5921 74.8555 62.4703 75.5892 62.3281 76.257C62.2384 76.6835 62.2147 77.1574 62.257 77.6788Z" fill="#FEFEFE"/>
<path id="Vector_6" d="M89.7486 79.6058C89.3322 81.5481 89.0351 83.498 88.6974 85.453C88.5375 86.3797 88.5476 87.8726 89.5582 88.0579C90.6888 88.2661 92.175 88.3364 94.0165 88.2687C94.0528 88.267 94.0873 88.2533 94.1145 88.2298C94.1418 88.2063 94.16 88.1743 94.1663 88.1392L95.3241 81.4567C95.6169 79.9976 95.8886 78.5343 96.1391 77.0668C96.2914 76.1731 96.4438 75.7212 95.9208 75.0915C95.7887 74.9324 95.826 74.8546 96.0325 74.8579L101.098 74.9189C101.119 74.919 101.14 74.9241 101.159 74.9338C101.178 74.9434 101.195 74.9574 101.209 74.9748C101.222 74.9922 101.232 75.0125 101.237 75.0344C101.243 75.0563 101.244 75.0793 101.24 75.1017L100.93 76.95L99.9145 82.98L98.3785 92.0695C98.3697 92.1216 98.3431 92.169 98.3033 92.2037C98.2635 92.2384 98.2129 92.2583 98.1601 92.2599C95.2776 92.3174 92.4526 92.3411 89.6851 92.331C86.0239 92.3183 83.127 90.1526 83.8988 86.1537C84.4676 82.909 85.0227 79.6616 85.5644 76.4118C85.6583 75.8558 85.6075 75.4673 85.2724 75.0484C85.1692 74.9197 85.2005 74.8554 85.3663 74.8554C86.4412 74.8554 87.516 74.8554 88.5908 74.8554C89.7333 74.8554 90.6702 74.6193 90.3198 76.1884C90.225 76.6081 90.0346 77.7473 89.7486 79.6058Z" fill="#FEFEFE"/>
</g>
</g>
</svg>
