<svg width="160" height="160" viewBox="0 0 160 160" fill="none" xmlns="http://www.w3.org/2000/svg">
<g id="512 1" clip-path="url(#clip0_83_1122)">
<g id="Group">
<path id="Vector" d="M78.0198 60.4399C65.8698 60.6699 51.8898 53.0999 41.1898 46.8099C40.9565 46.6766 40.7865 46.6899 40.6798 46.8499C40.6281 46.9252 40.6138 47.0265 40.6393 47.136C40.6649 47.2456 40.7288 47.3566 40.8198 47.4499C46.1198 53.0232 52.1798 58.4566 58.9998 63.7499C78.8398 79.1399 99.5298 66.3699 114.39 51.3899C114.44 51.3399 121.87 44.9899 117.03 47.7199C104.37 54.8799 92.8498 60.1599 78.0198 60.4399Z" stroke="#89CCC8" stroke-width="2"/>
<path id="Vector_2" d="M126.25 61.46C107.83 66.63 81.6301 77.1 83.7301 101C84.5568 110.433 86.4401 119.65 89.3801 128.65C89.5401 129.13 90.0001 129.17 90.0001 128.55C90.0701 106.65 92.3201 86.77 111.36 72.83C117.04 68.67 122.163 65.2533 126.73 62.58C129.477 60.9733 129.317 60.6 126.25 61.46Z" stroke="#89CCC8" stroke-width="2"/>
<path id="Vector_3" d="M74.9208 107.68C79.6108 77.11 56.2008 68.23 31.7508 61.25C30.4508 60.8766 30.3674 61.0433 31.5008 61.75C39.1741 66.5166 46.4041 71.8766 53.1908 77.83C69.3108 91.97 69.6408 107.32 69.9408 127.45C69.9674 129.543 70.2508 129.58 70.7908 127.56C72.4974 121.133 73.8741 114.507 74.9208 107.68Z" stroke="#89CCC8" stroke-width="2"/>
</g>
<path id="Vector_4" d="M77.06 0H84.06C126.12 3.14 157.9 35.06 160 77.31V83.31C157.42 125.75 125.17 157.8 82.69 160H76.69C34.23 157.54 2.54 125.33 0 82.94V76.69C3.04 34.28 34.47 2.11 77.06 0ZM78.02 60.44C65.87 60.67 51.89 53.1 41.19 46.81C40.9567 46.6767 40.7867 46.69 40.68 46.85C40.6282 46.9253 40.6139 47.0265 40.6395 47.1361C40.665 47.2457 40.7289 47.3567 40.82 47.45C46.12 53.0233 52.18 58.4567 59 63.75C78.84 79.14 99.53 66.37 114.39 51.39C114.44 51.34 121.87 44.99 117.03 47.72C104.37 54.88 92.85 60.16 78.02 60.44ZM126.25 61.46C107.83 66.63 81.63 77.1 83.73 101C84.5567 110.433 86.44 119.65 89.38 128.65C89.54 129.13 90 129.17 90 128.55C90.07 106.65 92.32 86.77 111.36 72.83C117.04 68.67 122.163 65.2533 126.73 62.58C129.477 60.9733 129.317 60.6 126.25 61.46ZM74.92 107.68C79.61 77.11 56.2 68.23 31.75 61.25C30.45 60.8767 30.3667 61.0433 31.5 61.75C39.1733 66.5167 46.4033 71.8767 53.19 77.83C69.31 91.97 69.64 107.32 69.94 127.45C69.9667 129.543 70.25 129.58 70.79 127.56C72.4967 121.133 73.8733 114.507 74.92 107.68Z" fill="#149992"/>
<path id="Vector_5" d="M78.0198 60.4401C92.8498 60.1601 104.37 54.8801 117.03 47.7201C121.87 44.9901 114.44 51.3401 114.39 51.3901C99.5298 66.3701 78.8399 79.1401 58.9998 63.7501C52.1798 58.4568 46.1198 53.0235 40.8198 47.4501C40.7288 47.3569 40.6649 47.2458 40.6393 47.1363C40.6138 47.0267 40.6281 46.9255 40.6798 46.8501C40.7865 46.6901 40.9565 46.6768 41.1898 46.8101C51.8898 53.1001 65.8698 60.6701 78.0198 60.4401Z" fill="#FEFEFE"/>
<path id="Vector_6" d="M83.7301 101C81.6301 77.1 107.83 66.63 126.25 61.46C129.317 60.6 129.477 60.9733 126.73 62.58C122.163 65.2533 117.04 68.67 111.36 72.83C92.3201 86.77 90.0701 106.65 90.0001 128.55C90.0001 129.17 89.5401 129.13 89.3801 128.65C86.4401 119.65 84.5568 110.433 83.7301 101Z" fill="#FEFEFE"/>
<path id="Vector_7" d="M31.7488 61.2502C56.1988 68.2302 79.6088 77.1102 74.9188 107.68C73.8721 114.507 72.4955 121.134 70.7888 127.56C70.2488 129.58 69.9655 129.544 69.9388 127.45C69.6388 107.32 69.3088 91.9702 53.1888 77.8302C46.4021 71.8769 39.1721 66.5169 31.4988 61.7502C30.3655 61.0436 30.4488 60.8769 31.7488 61.2502Z" fill="#FEFEFE"/>
</g>
<defs>
<clipPath id="clip0_83_1122">
<rect width="160" height="160" fill="white"/>
</clipPath>
</defs>
</svg>
