<svg width="160" height="160" viewBox="0 0 160 160" fill="none" xmlns="http://www.w3.org/2000/svg">
<g id="Group 48095418">
<circle id="Ellipse 5" cx="80" cy="80" r="80" fill="#ED0F73"/>
<g id="Vector">
<path d="M59.796 98.3316C59.8562 96.8296 59.4699 95.3433 58.6861 94.0606C57.9022 92.7779 56.7558 91.7561 55.3917 91.1244C54.0276 90.4927 52.5069 90.2793 51.0216 90.5113C49.5363 90.7432 48.153 91.41 47.0464 92.4274C45.9398 93.4449 45.1594 94.7675 44.8039 96.2281C44.4484 97.6887 44.5336 99.222 45.0488 100.634C45.564 102.046 46.4861 103.274 47.6986 104.163C48.9112 105.052 50.3598 105.561 51.8617 105.627C53.8812 105.711 55.8515 104.99 57.3394 103.622C58.8273 102.254 59.711 100.351 59.796 98.3316Z" fill="white"/>
<path d="M60.4663 87.0614C60.9514 86.0218 61.1172 84.8617 60.9428 83.7279C60.7684 82.594 60.2616 81.5374 59.4865 80.6916C58.7114 79.8459 57.7029 79.249 56.5886 78.9766C55.4742 78.7042 54.3041 78.7684 53.2262 79.1611C52.1483 79.5539 51.2112 80.2575 50.5333 81.183C49.8554 82.1084 49.4673 83.2142 49.418 84.3603C49.3687 85.5065 49.6605 86.6415 50.2564 87.6217C50.8523 88.602 51.7256 89.3835 52.7658 89.8673C54.1591 90.5154 55.7528 90.5839 57.1967 90.0578C58.6405 89.5317 59.8165 88.454 60.4663 87.0614Z" fill="white"/>
<path d="M67.0913 84.9415C66.4083 85.1868 65.8136 85.6295 65.3826 86.2134C64.9516 86.7973 64.7038 87.496 64.6705 88.221C64.6373 88.9459 64.8201 89.6644 65.1958 90.2853C65.5715 90.9062 66.1231 91.4016 66.7808 91.7084C67.4384 92.0153 68.1724 92.12 68.8896 92.0091C69.6067 91.8982 70.2748 91.5768 70.8091 91.0857C71.3433 90.5945 71.7197 89.9557 71.8903 89.2504C72.061 88.545 72.0183 87.8049 71.7677 87.1238C71.4305 86.2192 70.7512 85.4834 69.8763 85.0751C69.0015 84.6668 68.0012 84.6188 67.0913 84.9415ZM67.6212 86.3756C68.018 86.232 68.4485 86.2091 68.8583 86.31C69.268 86.4108 69.6387 86.6307 69.9236 86.9421C70.2084 87.2534 70.3947 87.6422 70.4588 88.0592C70.5229 88.4763 70.462 88.9031 70.2838 89.2856C70.1056 89.6681 69.818 89.9892 69.4574 90.2084C69.0969 90.4277 68.6794 90.5352 68.2578 90.5173C67.8362 90.4995 67.4293 90.3572 67.0886 90.1083C66.7478 89.8595 66.4883 89.5152 66.343 89.1191C66.1517 88.5856 66.1787 87.9982 66.418 87.4845C66.6574 86.9708 67.0898 86.5723 67.6212 86.3756Z" fill="white"/>
<path d="M75.8362 89.0411C75.6304 89.4853 75.5607 89.9805 75.636 90.4642C75.7112 90.948 75.9281 91.3986 76.2591 91.7592C76.5902 92.1199 77.0206 92.3744 77.4961 92.4907C77.9717 92.607 78.471 92.5799 78.9311 92.4128C79.3913 92.2457 79.7916 91.946 80.0817 91.5516C80.3717 91.1573 80.5385 90.6858 80.5609 90.1968C80.5833 89.7077 80.4604 89.223 80.2077 88.8037C79.955 88.3844 79.5838 88.0494 79.1409 87.8408C78.8452 87.7016 78.525 87.6223 78.1986 87.6073C77.8722 87.5923 77.546 87.642 77.2389 87.7536C76.9317 87.8651 76.6497 88.0363 76.409 88.2573C76.1682 88.4783 75.9736 88.7446 75.8362 89.0411ZM76.7715 89.4776C76.9327 89.1283 77.2261 88.8573 77.5872 88.7243C77.9482 88.5912 78.3473 88.6071 78.6966 88.7683C79.046 88.9296 79.3169 89.223 79.4499 89.584C79.583 89.945 79.5671 90.3441 79.4059 90.6935C79.2338 91.0217 78.9425 91.2715 78.592 91.3917C78.2414 91.5118 77.8581 91.4932 77.5209 91.3395C77.1837 91.1859 76.9181 90.9089 76.7787 90.5655C76.6393 90.2221 76.6367 89.8384 76.7715 89.4932" fill="white"/>
<path d="M97.5037 100.561C96.0029 100.707 94.5791 101.294 93.4125 102.25C92.2458 103.205 91.3886 104.485 90.9494 105.927C90.5102 107.37 90.5087 108.91 90.9451 110.353C91.3814 111.797 92.236 113.078 93.4008 114.036C94.5656 114.993 95.9882 115.584 97.4887 115.733C98.9891 115.882 100.5 115.582 101.83 114.872C103.161 114.163 104.25 113.074 104.962 111.745C105.674 110.415 105.975 108.905 105.828 107.404C105.631 105.393 104.643 103.543 103.082 102.259C101.521 100.976 99.5148 100.365 97.5037 100.561Z" fill="white"/>
<path d="M86.3114 99.6099C85.2144 99.274 84.0423 99.2712 82.9437 99.6017C81.845 99.9322 80.869 100.581 80.1393 101.466C79.4096 102.352 78.9589 103.434 78.8443 104.575C78.7296 105.717 78.9562 106.867 79.4953 107.88C80.0345 108.892 80.8619 109.722 81.8729 110.265C82.8839 110.807 84.0331 111.037 85.175 110.926C86.317 110.815 87.4003 110.368 88.2879 109.641C89.1756 108.914 89.8277 107.94 90.1617 106.843C90.6089 105.373 90.4546 103.786 89.7328 102.43C89.0109 101.074 87.7804 100.06 86.3114 99.6099Z" fill="white"/>
<path d="M86.9817 89.3373C86.2987 89.5827 85.704 90.0254 85.2731 90.6093C84.8421 91.1932 84.5942 91.8919 84.561 92.6168C84.5277 93.3418 84.7105 94.0603 85.0862 94.6812C85.4619 95.3021 86.0136 95.7974 86.6712 96.1043C87.3288 96.4112 88.0628 96.5158 88.78 96.405C89.4972 96.2941 90.1653 95.9727 90.6995 95.4815C91.2338 94.9904 91.6101 94.3516 91.7808 93.6462C91.9515 92.9409 91.9088 92.2007 91.6581 91.5196C91.3243 90.6125 90.6454 89.874 89.7694 89.4652C88.8935 89.0564 87.8914 89.0105 86.9817 89.3373ZM87.5117 90.7714C87.7796 90.6523 88.0692 90.5897 88.3624 90.5874C88.6556 90.5851 88.9462 90.6433 89.2159 90.7582C89.4857 90.8731 89.7289 91.0423 89.9304 91.2553C90.1319 91.4683 90.2874 91.7205 90.3872 91.9962C90.4869 92.272 90.5289 92.5653 90.5103 92.8579C90.4918 93.1505 90.4132 93.4362 90.2795 93.6971C90.1457 93.958 89.9596 94.1886 89.7329 94.3745C89.5061 94.5604 89.2435 94.6976 88.9614 94.7776C88.6924 94.9011 88.4006 94.9673 88.1046 94.9721C87.8086 94.9769 87.5148 94.92 87.242 94.8052C86.9691 94.6904 86.7231 94.5201 86.5195 94.3052C86.316 94.0902 86.1594 93.8353 86.0596 93.5566C85.9598 93.2779 85.9191 92.9814 85.94 92.6861C85.9609 92.3908 86.0429 92.1031 86.1809 91.8412C86.3189 91.5793 86.5099 91.349 86.7417 91.1648C86.9734 90.9806 87.241 90.8467 87.5273 90.7714" fill="white"/>
<path d="M87.5273 81.6056C87.3214 82.0498 87.2518 82.545 87.327 83.0287C87.4023 83.5124 87.6191 83.963 87.9502 84.3237C88.2812 84.6843 88.7117 84.9389 89.1872 85.0552C89.6627 85.1715 90.1621 85.1444 90.6222 84.9773C91.0824 84.8101 91.4827 84.5105 91.7727 84.1161C92.0628 83.7217 92.2295 83.2503 92.252 82.7612C92.2744 82.2722 92.1515 81.7875 91.8988 81.3682C91.6461 80.9489 91.2749 80.6139 90.832 80.4053C90.5363 80.2661 90.2161 80.1867 89.8897 80.1718C89.5632 80.1568 89.2371 80.2065 88.9299 80.3181C88.6228 80.4296 88.3408 80.6008 88.1 80.8218C87.8593 81.0427 87.6647 81.3091 87.5273 81.6056ZM88.4626 82.0576C88.5424 81.8847 88.6555 81.7291 88.7955 81.5999C88.9354 81.4706 89.0995 81.3702 89.2782 81.3043C89.457 81.2385 89.647 81.2084 89.8374 81.216C90.0277 81.2236 90.2147 81.2686 90.3877 81.3484C90.5607 81.4282 90.7162 81.5414 90.8455 81.6813C90.9747 81.8213 91.0752 81.9853 91.141 82.1641C91.2069 82.3428 91.2369 82.5328 91.2293 82.7232C91.2218 82.9135 91.1768 83.1005 91.097 83.2735C90.9357 83.6229 90.6423 83.8939 90.2813 84.0269C89.9202 84.1599 89.5212 84.144 89.1718 83.9828C88.8225 83.8215 88.5515 83.5281 88.4185 83.1671C88.2855 82.8061 88.3013 82.407 88.4626 82.0576Z" fill="white"/>
<path d="M69.5854 52.5337C69.6395 51.0289 69.2467 49.5418 68.4566 48.26C67.6665 46.9781 66.5144 45.959 65.1457 45.3312C63.777 44.7035 62.2531 44.4951 60.7661 44.7325C59.2792 44.9698 57.8958 45.6423 56.7906 46.665C55.6854 47.6877 54.9078 49.0148 54.556 50.4789C54.2043 51.943 54.294 53.4785 54.8139 54.8917C55.3338 56.3049 56.2607 57.5324 57.4775 58.4194C58.6943 59.3064 60.1465 59.8132 61.651 59.8758C63.6705 59.9602 65.6409 59.2391 67.1288 57.8711C68.6167 56.503 69.5003 54.6 69.5854 52.5805M66.4677 52.4558C66.4209 53.3308 66.1163 54.1724 65.5924 54.8747C65.0685 55.5771 64.3485 56.1088 63.5231 56.403C62.6978 56.6972 61.8038 56.7408 60.9537 56.5282C60.1037 56.3157 59.3354 55.8564 58.7457 55.2084C58.1559 54.5603 57.771 53.7523 57.6393 52.886C57.5076 52.0197 57.635 51.1338 58.0056 50.3398C58.3761 49.5457 58.9732 48.879 59.7216 48.4234C60.4701 47.9678 61.3367 47.7437 62.2122 47.7794C63.3964 47.8359 64.5097 48.3602 65.3076 49.237C66.1055 50.1139 66.5228 51.2715 66.4677 52.4558Z" fill="white"/>
<path d="M80.6685 57.7402C81.1536 56.7006 81.3194 55.5405 81.145 54.4066C80.9706 53.2728 80.4638 52.2161 79.6887 51.3704C78.9137 50.5246 77.9051 49.9278 76.7908 49.6553C75.6764 49.3829 74.5063 49.4471 73.4284 49.8399C72.3505 50.2326 71.4134 50.9362 70.7355 51.8617C70.0576 52.7872 69.6695 53.893 69.6202 55.0391C69.5709 56.1852 69.8627 57.3202 70.4586 58.3005C71.0545 59.2807 71.9278 60.0622 72.968 60.546C74.3619 61.1899 75.954 61.2562 77.3967 60.7306C78.8394 60.2049 80.0155 59.1299 80.6685 57.7402ZM78.4862 56.7581C78.2043 57.3652 77.7487 57.875 77.1769 58.2231C76.6052 58.5711 75.943 58.7417 75.2743 58.7132C74.6055 58.6847 73.9603 58.4585 73.4202 58.0632C72.8801 57.6678 72.4694 57.1211 72.2401 56.4923C72.0108 55.8634 71.9733 55.1807 72.1322 54.5305C72.2911 53.8803 72.6394 53.2919 73.1329 52.8397C73.6264 52.3875 74.2429 52.0919 74.9045 51.9902C75.5661 51.8886 76.243 51.9855 76.8494 52.2688C77.2527 52.4548 77.6152 52.7189 77.9161 53.0456C78.2169 53.3724 78.4501 53.7555 78.6022 54.1728C78.7544 54.5901 78.8224 55.0333 78.8025 55.477C78.7826 55.9208 78.6751 56.3561 78.4862 56.7581Z" fill="white"/>
<path d="M70.7077 65.4407C69.8005 65.7746 69.0621 66.4534 68.6533 67.3294C68.2445 68.2054 68.1985 69.2074 68.5254 70.1172C68.7708 70.8001 69.2135 71.3948 69.7973 71.8258C70.3812 72.2568 71.08 72.5046 71.8049 72.5379C72.5299 72.5712 73.2484 72.3883 73.8692 72.0126C74.4901 71.6369 74.9855 71.0853 75.2924 70.4276C75.5992 69.77 75.7039 69.0361 75.593 68.3189C75.4821 67.6017 75.1607 66.9336 74.6696 66.3993C74.1784 65.8651 73.5396 65.4887 72.8343 65.3181C72.1289 65.1474 71.3888 65.1901 70.7077 65.4407ZM71.2377 66.8748C71.6345 66.7312 72.0649 66.7084 72.4747 66.8092C72.8845 66.9101 73.2552 67.13 73.54 67.4413C73.8249 67.7527 74.0111 68.1414 74.0752 68.5585C74.1393 68.9756 74.0784 69.4023 73.9002 69.7848C73.722 70.1673 73.4345 70.4885 73.0739 70.7077C72.7133 70.9269 72.2959 71.0344 71.8743 71.0166C71.4527 70.9988 71.0458 70.8565 70.705 70.6076C70.3642 70.3588 70.1048 70.0145 69.9595 69.6183C69.7682 69.0849 69.7951 68.4975 70.0345 67.9838C70.2738 67.47 70.7062 67.0715 71.2377 66.8748Z" fill="white"/>
<path d="M68.2136 77.958C68.0058 78.4057 67.9355 78.9051 68.0117 79.3928C68.0879 79.8806 68.3071 80.3347 68.6416 80.6978C68.976 81.0609 69.4107 81.3165 69.8906 81.4324C70.3704 81.5482 70.8738 81.5191 71.3371 81.3486C71.8004 81.1782 72.2027 80.8741 72.493 80.4749C72.7834 80.0756 72.9487 79.5992 72.9681 79.1059C72.9875 78.6127 72.8601 78.1248 72.602 77.704C72.3439 77.2832 71.9667 76.9484 71.5183 76.7421C70.9181 76.4705 70.2352 76.4457 69.6169 76.6732C68.9987 76.9007 68.4946 77.3621 68.2136 77.958ZM69.1645 78.3944C69.2857 78.1337 69.4817 77.9149 69.7276 77.7658C69.9735 77.6167 70.2582 77.5442 70.5454 77.5573C70.8327 77.5705 71.1096 77.6688 71.3408 77.8397C71.572 78.0106 71.7472 78.2465 71.8441 78.5172C71.9409 78.788 71.9551 79.0814 71.8847 79.3602C71.8144 79.639 71.6627 79.8906 71.4489 80.083C71.2352 80.2754 70.9691 80.3999 70.6844 80.4406C70.3998 80.4813 70.1095 80.4365 69.8504 80.3118C69.507 80.1465 69.2425 79.8526 69.1141 79.4938C68.9857 79.135 69.0038 78.74 69.1645 78.3944Z" fill="white"/>
<path d="M108.104 54.3887C106.598 54.3255 105.107 54.7099 103.82 55.4935C102.533 56.2771 101.507 57.4247 100.871 58.7913C100.236 60.1578 100.02 61.6821 100.251 63.1713C100.481 64.6606 101.148 66.048 102.167 67.1584C103.186 68.2687 104.511 69.0521 105.975 69.4096C107.439 69.7671 108.976 69.6826 110.392 69.1668C111.808 68.6511 113.04 67.7271 113.931 66.5118C114.822 65.2964 115.333 63.8442 115.399 62.3387C115.483 60.3176 114.763 58.3456 113.395 56.8552C112.027 55.3648 110.124 54.4778 108.104 54.3887Z" fill="white"/>
<path d="M107.2 70.2574C106.16 69.7724 105 69.6065 103.866 69.7809C102.732 69.9554 101.675 70.4622 100.83 71.2372C99.984 72.0123 99.3871 73.0208 99.1147 74.1352C98.8422 75.2496 98.9064 76.4197 99.2992 77.4976C99.6919 78.5754 100.396 79.5126 101.321 80.1904C102.247 80.8683 103.352 81.2565 104.498 81.3057C105.645 81.355 106.78 81.0633 107.76 80.4673C108.74 79.8714 109.522 78.9981 110.005 77.958C110.328 77.2684 110.512 76.5218 110.546 75.761C110.58 75.0003 110.463 74.2404 110.202 73.5249C109.941 72.8094 109.542 72.1524 109.027 71.5917C108.511 71.031 107.89 70.5776 107.2 70.2574Z" fill="white"/>
<path d="M90.6449 69.821C89.9568 70.0638 89.3564 70.5058 88.9201 71.0908C88.4839 71.6757 88.2315 72.3772 88.195 73.106C88.1585 73.8348 88.3395 74.558 88.7151 75.1837C89.0907 75.8093 89.6439 76.3091 90.3043 76.6195C90.9647 76.9299 91.7025 77.0369 92.4239 76.9268C93.1453 76.8168 93.8177 76.4947 94.3555 76.0015C94.8933 75.5083 95.2723 74.8663 95.4443 74.1571C95.6163 73.448 95.5735 72.7037 95.3213 72.0189C94.9872 71.1114 94.3091 70.372 93.434 69.9607C92.5588 69.5494 91.5568 69.4992 90.6449 69.821ZM91.1749 71.2707C91.7082 71.0764 92.2969 71.1019 92.8114 71.3416C93.3259 71.5813 93.7241 72.0156 93.9184 72.5489C94.1127 73.0822 94.0872 73.6709 93.8475 74.1854C93.6078 74.6999 93.1735 75.0981 92.6402 75.2924C92.3761 75.3886 92.0957 75.4319 91.8149 75.4197C91.5341 75.4075 91.2585 75.3402 91.0037 75.2215C90.4892 74.9818 90.091 74.5475 89.8967 74.0142C89.7024 73.4809 89.7279 72.8922 89.9676 72.3777C90.2073 71.8632 90.6416 71.465 91.1749 71.2707Z" fill="white"/>
<path d="M79.8579 70.5224C79.6474 70.9693 79.5744 71.4686 79.648 71.9571C79.7217 72.4455 79.9387 72.9011 80.2716 73.266C80.6045 73.631 81.0382 73.8889 81.5179 74.007C81.9975 74.1251 82.5014 74.0981 82.9657 73.9295C83.43 73.7609 83.8338 73.4581 84.1258 73.0598C84.4178 72.6614 84.585 72.1852 84.6061 71.6917C84.6272 71.1982 84.5012 70.7095 84.2443 70.2877C83.9873 69.8658 83.6108 69.5298 83.1626 69.3222C82.867 69.183 82.5467 69.1036 82.2203 69.0886C81.8939 69.0736 81.5677 69.1233 81.2606 69.2349C80.9535 69.3465 80.6714 69.5176 80.4307 69.7386C80.19 69.9596 79.9953 70.226 79.8579 70.5224ZM80.7932 70.9745C80.8722 70.7998 80.9851 70.6425 81.1253 70.5117C81.2655 70.3808 81.4302 70.2792 81.61 70.2125C81.7898 70.1458 81.981 70.1154 82.1726 70.1231C82.3642 70.1309 82.5523 70.1765 82.7261 70.2574C82.9854 70.3782 83.2032 70.5729 83.3521 70.8172C83.501 71.0614 83.5742 71.3442 83.5627 71.63C83.5512 71.9158 83.4554 72.1918 83.2874 72.4233C83.1193 72.6548 82.8866 72.8314 82.6184 72.9308C82.3502 73.0303 82.0586 73.0482 81.7803 72.9824C81.502 72.9165 81.2493 72.7697 81.0542 72.5606C80.8591 72.3515 80.7302 72.0893 80.6838 71.807C80.6373 71.5248 80.6754 71.2351 80.7932 70.9745Z" fill="white"/>
<path d="M53.2334 67.9348C52.213 66.8251 50.8864 66.043 49.4214 65.6872C47.9564 65.3315 46.4189 65.4181 45.0031 65.9362C43.5874 66.4542 42.357 67.3805 41.4677 68.5977C40.5783 69.815 40.0699 71.2687 40.0067 72.7749C39.9435 74.2811 40.3283 75.7723 41.1126 77.0598C41.8968 78.3473 43.0452 79.3734 44.4125 80.0082C45.7799 80.6431 47.3048 80.8583 48.7944 80.6265C50.2841 80.3947 51.6715 79.7265 52.7814 78.7062C53.522 78.0309 54.1216 77.2157 54.5456 76.3075C54.9695 75.3993 55.2095 74.4161 55.2515 73.4147C55.2935 72.4133 55.1368 71.4135 54.7904 70.4729C54.4441 69.5324 53.9149 68.6698 53.2334 67.9348Z" fill="white"/>
<path d="M78.6732 107.232C77.6564 106.121 76.333 105.336 74.8702 104.976C73.4073 104.616 71.8706 104.697 70.4541 105.21C69.0376 105.723 67.8048 106.644 66.9114 107.857C66.018 109.07 65.504 110.52 65.4344 112.025C65.3648 113.53 65.7427 115.022 66.5204 116.312C67.298 117.602 68.4405 118.633 69.8037 119.275C71.1668 119.916 72.6895 120.139 74.1793 119.916C75.6691 119.692 77.0594 119.032 78.1744 118.019C79.6623 116.648 80.5468 114.744 80.6344 112.722C80.7221 110.701 80.0057 108.727 78.642 107.232M76.2882 109.384C76.8886 110.029 77.2836 110.838 77.423 111.708C77.5624 112.578 77.4399 113.47 77.0711 114.27C76.7023 115.07 76.1038 115.743 75.3518 116.202C74.5997 116.661 73.7281 116.887 72.8477 116.849C71.9673 116.812 71.118 116.513 70.4076 115.992C69.6972 115.47 69.158 114.75 68.8584 113.921C68.5588 113.092 68.5124 112.193 68.7251 111.338C68.9379 110.483 69.4001 109.71 70.053 109.119C70.9167 108.33 72.0571 107.916 73.2253 107.966C74.3935 108.015 75.4946 108.525 76.2882 109.384Z" fill="white"/>
<path d="M81.7441 42.0118C80.6344 43.0322 79.8523 44.3588 79.4965 45.8238C79.1407 47.2888 79.2274 48.8263 79.7454 50.2421C80.2635 51.6578 81.1897 52.8881 82.407 53.7775C83.6243 54.6668 85.078 55.1753 86.5842 55.2385C88.0904 55.3017 89.5816 54.9169 90.8691 54.1326C92.1566 53.3484 93.1827 52.2 93.8175 50.8327C94.4524 49.4653 94.6675 47.9404 94.4358 46.4508C94.204 44.9611 93.5358 43.5737 92.5155 42.4638C91.838 41.7268 91.0219 41.1305 90.1139 40.7089C89.2058 40.2873 88.2237 40.0487 87.2234 40.0067C86.2232 39.9647 85.2245 40.1202 84.2843 40.4642C83.3442 40.8083 82.481 41.3341 81.7441 42.0118Z" fill="white"/>
<path d="M107.215 81.325C106.105 82.3455 105.323 83.6721 104.967 85.137C104.612 86.602 104.698 88.1396 105.216 89.5553C105.734 90.9711 106.661 92.2014 107.878 93.0907C109.095 93.9801 110.549 94.4885 112.055 94.5517C113.561 94.6149 115.053 94.2301 116.34 93.4459C117.628 92.6616 118.654 91.5132 119.288 90.1459C119.923 88.7785 120.139 87.2536 119.907 85.764C119.675 84.2744 119.007 82.8869 117.986 81.7771C117.309 81.0401 116.493 80.4437 115.585 80.0221C114.677 79.6005 113.695 79.3619 112.694 79.32C111.694 79.278 110.695 79.4334 109.755 79.7775C108.815 80.1215 107.952 80.6474 107.215 81.325Z" fill="white"/>
<path d="M64.6907 63.7884C64.3011 62.7092 63.6002 61.7699 62.6766 61.0893C61.753 60.4086 60.6483 60.0173 59.5022 59.9647C58.3561 59.9121 57.2201 60.2007 56.2381 60.7939C55.2561 61.3871 54.4721 62.2584 53.9853 63.2973C53.4986 64.3362 53.331 65.4962 53.5037 66.6304C53.6765 67.7647 54.1818 68.8222 54.9558 69.6691C55.7297 70.516 56.7375 71.1144 57.8516 71.3884C58.9657 71.6623 60.1361 71.5997 61.2145 71.2083C62.6586 70.6843 63.8358 69.6086 64.4875 68.2174C65.1393 66.8263 65.2123 65.2334 64.6907 63.7884ZM62.4148 64.5522C62.6429 65.1811 62.6794 65.8636 62.5197 66.5132C62.36 67.1629 62.0112 67.7506 61.5174 68.202C61.0237 68.6535 60.4072 68.9483 59.7458 69.0494C59.0845 69.1504 58.4081 69.0531 57.802 68.7697C57.196 68.4863 56.6876 68.0296 56.3412 67.4573C55.9947 66.885 55.8258 66.2228 55.8557 65.5544C55.8856 64.8861 56.113 64.2416 56.5091 63.7025C56.9053 63.1634 57.4524 62.7539 58.0813 62.5257C58.4989 62.3742 58.9423 62.3065 59.3861 62.3263C59.8299 62.3462 60.2654 62.4533 60.6678 62.6414C61.0702 62.8296 61.4316 63.0952 61.7313 63.4231C62.0311 63.7509 62.2634 64.1346 62.4148 64.5522Z" fill="white"/>
<path d="M71.1286 98.8461C70.7379 97.7669 70.0357 96.828 69.1111 96.1481C68.1864 95.4683 67.0808 95.0781 65.9342 95.027C64.7876 94.976 63.6517 95.2663 62.6702 95.8612C61.6888 96.4561 60.9059 97.3289 60.4208 98.3691C59.9357 99.4092 59.7702 100.57 59.9452 101.704C60.1201 102.838 60.6278 103.895 61.4038 104.741C62.1798 105.586 63.1893 106.183 64.3044 106.454C65.4195 106.726 66.5902 106.66 67.668 106.266C69.1067 105.735 70.2775 104.658 70.9257 103.268C71.5738 101.879 71.6467 100.289 71.1286 98.8461Z" fill="white"/>
<path d="M92.2817 53.8743C91.2043 54.2675 90.2677 54.9712 89.5903 55.8966C88.9129 56.8221 88.5251 57.9276 88.476 59.0734C88.4268 60.2191 88.7186 61.3538 89.3143 62.3338C89.91 63.3138 90.7829 64.0952 91.8226 64.5791C92.8624 65.063 94.0223 65.2277 95.1557 65.0524C96.2891 64.8772 97.345 64.3697 98.19 63.5943C99.035 62.819 99.6311 61.8104 99.903 60.6962C100.175 59.5821 100.11 58.4123 99.7172 57.3349C99.4562 56.6194 99.0569 55.9623 98.542 55.4012C98.0271 54.8401 97.4067 54.3858 96.7162 54.0645C96.0257 53.7431 95.2787 53.5609 94.5178 53.5283C93.757 53.4957 92.9971 53.6133 92.2817 53.8743Z" fill="white"/>
<path d="M98.7351 88.9008C97.665 89.3036 96.7378 90.0138 96.0702 90.9421C95.4026 91.8704 95.0243 92.9753 94.9829 94.118C94.9415 95.2607 95.2389 96.3901 95.8376 97.3642C96.4363 98.3384 97.3097 99.1138 98.3478 99.593C99.386 100.072 100.543 100.234 101.672 100.057C102.802 99.8809 103.855 99.3744 104.697 98.6016C105.54 97.8287 106.135 96.824 106.409 95.7137C106.682 94.6034 106.621 93.4371 106.233 92.3614C105.703 90.919 104.623 89.7453 103.229 89.0968C101.836 88.4483 100.243 88.3779 98.7975 88.9008" fill="white"/>
</g>
</g>
</svg>
