<svg width="160" height="160" viewBox="0 0 160 160" fill="none" xmlns="http://www.w3.org/2000/svg">
<g id="Group 48095413">
<rect id="&#208;&#164;&#208;&#190;&#208;&#189;" width="160" height="160" rx="80" fill="url(#paint0_linear_83_1155)"/>
<g id="Group">
<path id="Vector" d="M65.4581 95.8103C61.4945 93.3695 58.8568 88.9909 58.8568 84.0039C58.8568 84.0003 58.8568 84.0003 58.8568 83.9968L51.9284 87.9991L45 92.0014C45 97.0131 47.6623 101.406 51.6505 103.839C51.6576 103.843 51.6646 103.85 51.6716 103.854L79.6279 120L93.4706 112.006C93.4741 111.999 65.5636 95.8736 65.4581 95.8103Z" fill="white"/>
<path id="Vector_2" d="M107.641 88.1753C107.627 88.1648 107.613 88.1577 107.599 88.1472L65.8207 64.0174L65.7855 63.9998L65.7891 63.9963C63.6859 62.7794 61.9345 61.0315 60.7176 58.9284C59.5359 56.8921 58.8607 54.5217 58.8607 52L51.9323 55.9988L45.0039 60.0046C45.0039 62.5262 45.6792 64.8966 46.8609 66.933C48.0214 68.9376 49.6674 70.6293 51.6439 71.8356C51.6545 71.8426 51.665 71.8496 51.6756 71.8567C51.6756 71.8567 93.7136 96.1271 93.8227 96.201C95.7746 97.4073 97.4064 99.0814 98.5565 101.072C99.7346 103.108 100.41 105.479 100.41 108L114.267 99.9993C114.267 97.4741 113.591 95.1072 112.41 93.0709C111.249 91.0627 109.607 89.3781 107.641 88.1753Z" fill="white"/>
<path id="Vector_3" d="M107.708 56.2131L79.6318 40L65.7891 47.994C65.8946 48.0573 93.7347 64.1403 93.8613 64.2177C97.8003 66.6549 100.424 71.0124 100.431 75.9819L107.335 71.9937L114.267 67.9914V67.9879C114.267 63.0184 111.643 58.6574 107.708 56.2131Z" fill="white"/>
</g>
</g>
<defs>
<linearGradient id="paint0_linear_83_1155" x1="0" y1="0" x2="169.32" y2="10.7275" gradientUnits="userSpaceOnUse">
<stop stop-color="#254F99"/>
<stop offset="0.400039" stop-color="#437CD1"/>
<stop offset="1" stop-color="#A2CE4E"/>
</linearGradient>
</defs>
</svg>
