<svg width="160" height="160" viewBox="0 0 160 160" fill="none" xmlns="http://www.w3.org/2000/svg">
<g id="512-2 1" clip-path="url(#clip0_83_1131)">
<g id="Group">
<path id="Vector" d="M89.9015 80.37L82.5415 87.84C82.4299 87.9528 82.339 88.0839 82.274 88.2256C82.2091 88.3673 82.1713 88.5169 82.1629 88.6657C82.1546 88.8145 82.1758 88.9596 82.2253 89.0925C82.2748 89.2254 82.3517 89.3435 82.4515 89.44L85.5815 92.47C85.6791 92.5656 85.8156 92.614 85.9616 92.6046C86.1075 92.5953 86.2512 92.529 86.3615 92.42L98.6515 80.6C98.7481 80.5082 98.8044 80.3815 98.8081 80.2469C98.8118 80.1124 98.7628 79.9807 98.6715 79.88C88.2615 68.31 76.3215 57.44 65.2615 46.39C65.1792 46.3063 65.081 46.2398 64.9725 46.1944C64.8641 46.1491 64.7475 46.1257 64.6294 46.1257C64.5114 46.1257 64.3942 46.1491 64.2847 46.1944C64.1753 46.2398 64.0756 46.3063 63.9915 46.39C59.5648 50.81 55.1181 55.2567 50.6515 59.73C49.3915 60.99 48.4515 61.49 50.5415 62.78C51.3548 63.28 52.0115 63.9367 52.5115 64.75C53.0715 65.6767 53.6815 65.7367 54.3415 64.93C57.2515 61.39 61.0715 58.05 64.3915 54.85C64.487 54.7558 64.6153 54.7021 64.7494 54.7002C64.8836 54.6984 65.0133 54.7485 65.1115 54.84C73.6181 62.86 81.8815 71.1233 89.9015 79.63C89.9979 79.7326 90.0519 79.8675 90.0519 80.0057C90.0519 80.1439 89.9979 80.2747 89.9015 80.37Z" stroke="#80B6D4" stroke-width="2"/>
<path id="Vector_2" d="M95.1198 55.59L105.39 65.39C105.497 65.4915 105.632 65.5549 105.775 65.5694C105.917 65.584 106.056 65.5489 106.17 65.4701C107.723 64.3834 109 63.0367 110 61.43C110.074 61.3075 110.105 61.1631 110.087 61.0199C110.068 60.8767 110.003 60.7429 109.9 60.64L95.6098 46.2401C95.5629 46.192 95.5067 46.1538 95.4446 46.1278C95.3825 46.1018 95.3156 46.0884 95.2477 46.0884C95.1799 46.0884 95.1125 46.1018 95.0493 46.1278C94.9862 46.1538 94.9286 46.192 94.8798 46.2401L81.9698 59.1501C81.8898 59.2319 81.8262 59.3282 81.7827 59.433C81.7392 59.5379 81.7168 59.6493 81.7168 59.7604C81.7168 59.8715 81.7392 59.9801 81.7827 60.0798C81.8262 60.1794 81.8898 60.2679 81.9698 60.34L85.3998 63.44C85.5164 63.5443 85.6729 63.5961 85.8379 63.585C86.0029 63.5739 86.1644 63.5007 86.2898 63.3801L94.3698 55.57C94.4695 55.4755 94.6033 55.4248 94.7432 55.4285C94.8831 55.4323 95.0181 55.4902 95.1198 55.59Z" stroke="#80B6D4" stroke-width="2"/>
<path id="Vector_3" d="M30.8607 80.2001L45.7707 95.3701C45.9301 95.5331 46.1492 95.6247 46.3798 95.6247C46.6104 95.6247 46.8338 95.5331 47.0007 95.3701L50.8907 91.5901C50.9362 91.5466 50.9722 91.494 50.9964 91.4354C51.0206 91.3768 51.0326 91.3135 51.0317 91.2491C51.0308 91.1847 51.0169 91.1207 50.991 91.0607C50.965 91.0008 50.9275 90.9462 50.8807 90.9001L40.0007 79.9701C39.9454 79.9156 39.9017 79.8503 39.8723 79.7781C39.8429 79.7058 39.8282 79.6279 39.8291 79.549C39.8301 79.47 39.8466 79.3915 39.8777 79.3179C39.9089 79.2443 39.954 79.1771 40.0107 79.1202L50.4207 68.7101C50.512 68.6204 50.561 68.4949 50.5573 68.3603C50.5535 68.2258 50.4973 68.0929 50.4007 67.9901L47.2507 64.6501C47.1541 64.5474 47.0399 64.4631 46.9149 64.4023C46.7899 64.3414 46.6567 64.3052 46.5233 64.2959C46.3898 64.2865 46.2588 64.3043 46.1381 64.3479C46.0174 64.3916 45.9094 64.4604 45.8207 64.5502L30.8707 79.5001C30.7777 79.5923 30.7246 79.7172 30.7227 79.8481C30.7208 79.979 30.7704 80.1054 30.8607 80.2001Z" stroke="#80B6D4" stroke-width="2"/>
<path id="Vector_4" d="M129.141 79.77L113.861 64.6C113.751 64.4911 113.609 64.4238 113.465 64.4126C113.321 64.4013 113.187 64.4471 113.091 64.54L109.371 68.1C109.278 68.1884 109.206 68.2962 109.158 68.417C109.11 68.5378 109.088 68.6692 109.092 68.8034C109.097 68.9376 109.129 69.0719 109.185 69.1984C109.241 69.3249 109.321 69.4411 109.421 69.54L119.281 79.4C119.538 79.6612 119.682 80.0127 119.682 80.3779C119.682 80.7431 119.538 81.0925 119.281 81.35L109.501 91.13C109.435 91.1935 109.385 91.2715 109.353 91.3594C109.321 91.4473 109.308 91.5433 109.314 91.6419C109.321 91.7405 109.347 91.8397 109.391 91.9338C109.435 92.0279 109.496 92.115 109.571 92.19L112.651 95.3C112.837 95.4882 113.081 95.6045 113.328 95.6232C113.576 95.642 113.807 95.5617 113.971 95.4L129.131 80.5C129.179 80.4519 129.218 80.3948 129.245 80.332C129.272 80.2692 129.286 80.202 129.287 80.1341C129.288 80.0663 129.276 79.9992 129.251 79.9367C129.226 79.8742 129.188 79.8176 129.141 79.77Z" stroke="#80B6D4" stroke-width="2"/>
<path id="Vector_5" d="M94.3215 104.95L70.0315 80.9101C69.9444 80.8236 69.8753 80.7208 69.8282 80.6075C69.781 80.4942 69.7567 80.3728 69.7567 80.2501C69.7567 80.1274 69.781 80.0059 69.8282 79.8926C69.8753 79.7793 69.9444 79.6765 70.0315 79.59L77.4115 72.2201C77.5225 72.11 77.6105 71.979 77.6706 71.8345C77.7306 71.6901 77.7615 71.5349 77.7615 71.378C77.7615 71.2211 77.7306 71.0654 77.6706 70.9199C77.6105 70.7744 77.5225 70.6419 77.4115 70.5301L74.5115 67.6401C74.4306 67.5571 74.3343 67.4907 74.2281 67.4448C74.1219 67.3989 74.0079 67.3743 73.8927 67.3724C73.7775 67.3706 73.6633 67.3915 73.5567 67.434C73.4501 67.4765 73.3532 67.5397 73.2715 67.6201L61.2715 79.3701C61.2026 79.4354 61.1481 79.5145 61.1112 79.6026C61.0743 79.6907 61.0557 79.7861 61.0567 79.8831C61.0576 79.98 61.078 80.0766 61.1166 80.1672C61.1552 80.2577 61.2113 80.3403 61.2815 80.4101L94.7115 113.58C94.8547 113.724 95.0495 113.804 95.2536 113.804C95.4577 113.804 95.6546 113.724 95.8015 113.58L110.332 99.1801C110.427 99.0833 110.481 98.9538 110.483 98.8192C110.485 98.6847 110.434 98.5557 110.342 98.4601L106.912 95.0301C106.736 94.8566 106.499 94.7594 106.252 94.7594C106.004 94.7594 105.767 94.8566 105.592 95.0301L95.6815 104.94C95.5002 105.121 95.2554 105.223 95.0007 105.225C94.7459 105.227 94.5017 105.128 94.3215 104.95Z" stroke="#80B6D4" stroke-width="2"/>
<path id="Vector_6" d="M75.5913 97.5C75.3246 97.0667 74.958 96.77 74.4913 96.61C74.3557 96.5646 74.2037 96.563 74.052 96.6053C73.9004 96.6476 73.7548 96.7323 73.6313 96.85L65.5613 104.69C65.5132 104.739 65.4561 104.778 65.3933 104.805C65.3305 104.831 65.2633 104.846 65.1954 104.847C65.1276 104.848 65.0605 104.835 64.998 104.81C64.9355 104.785 64.8789 104.747 64.8313 104.7L55.2113 95.19C54.9353 94.9166 54.5763 94.7494 54.2128 94.725C53.8493 94.7007 53.5108 94.8211 53.2713 95.06L49.7713 98.58C49.6795 98.6741 49.6364 98.8087 49.6514 98.9547C49.6663 99.1007 49.7382 99.2463 49.8513 99.36L64.1013 113.73C64.2012 113.828 64.3354 113.884 64.4766 113.885C64.6178 113.887 64.7554 113.835 64.8613 113.74C69.0513 109.99 72.6713 105.86 76.7013 102.12C78.1413 100.78 77.9813 99.4767 76.2213 98.21C75.9946 98.05 75.7846 97.8133 75.5913 97.5Z" stroke="#80B6D4" stroke-width="2"/>
</g>
<path id="Vector_7" d="M76.81 0H84.06C126.09 3.39 157.88 34.79 160 77.06V83.31C156.92 125.68 125.51 157.95 82.94 160H76.44C34.25 157.44 2.32 125.12 0 82.94V76.69C2.43 33.99 34.32 3.19 76.81 0ZM89.9 80.37L82.54 87.84C82.4285 87.9528 82.3376 88.0839 82.2726 88.2256C82.2076 88.3673 82.1698 88.5169 82.1615 88.6657C82.1531 88.8145 82.1743 88.9596 82.2238 89.0925C82.2733 89.2254 82.3502 89.3435 82.45 89.44L85.58 92.47C85.6776 92.5656 85.8141 92.614 85.9601 92.6046C86.1061 92.5953 86.2497 92.5289 86.36 92.42L98.65 80.6C98.7467 80.5082 98.8029 80.3815 98.8066 80.2469C98.8104 80.1124 98.7613 79.9806 98.67 79.88C88.26 68.31 76.32 57.44 65.26 46.39C65.1777 46.3062 65.0796 46.2398 64.9711 46.1944C64.8626 46.1491 64.746 46.1257 64.628 46.1257C64.5099 46.1257 64.3928 46.1491 64.2833 46.1944C64.1738 46.2398 64.0741 46.3062 63.99 46.39C59.5633 50.81 55.1167 55.2567 50.65 59.73C49.39 60.99 48.45 61.49 50.54 62.78C51.3533 63.28 52.01 63.9367 52.51 64.75C53.07 65.6767 53.68 65.7367 54.34 64.93C57.25 61.39 61.07 58.05 64.39 54.85C64.4855 54.7557 64.6138 54.7021 64.748 54.7002C64.8822 54.6983 65.0119 54.7484 65.11 54.84C73.6167 62.86 81.88 71.1233 89.9 79.63C89.9965 79.7326 90.0505 79.8674 90.0505 80.0057C90.0505 80.1439 89.9965 80.2747 89.9 80.37ZM95.12 55.59L105.39 65.39C105.497 65.4914 105.633 65.5548 105.775 65.5694C105.917 65.584 106.056 65.5489 106.17 65.47C107.723 64.3833 109 63.0367 110 61.43C110.074 61.3075 110.105 61.1631 110.087 61.0198C110.069 60.8766 110.003 60.7429 109.9 60.64L95.61 46.24C95.5631 46.1919 95.5069 46.1538 95.4448 46.1278C95.3827 46.1017 95.3158 46.0883 95.2479 46.0883C95.1801 46.0883 95.1127 46.1017 95.0495 46.1278C94.9864 46.1538 94.9288 46.1919 94.88 46.24L81.97 59.15C81.89 59.2319 81.8264 59.3281 81.7829 59.433C81.7394 59.5379 81.717 59.6492 81.717 59.7603C81.717 59.8715 81.7394 59.9801 81.7829 60.0797C81.8264 60.1793 81.89 60.2678 81.97 60.34L85.4 63.44C85.5166 63.5443 85.673 63.5961 85.8381 63.5849C86.0031 63.5738 86.1646 63.5006 86.29 63.38L94.37 55.57C94.4697 55.4755 94.6035 55.4248 94.7434 55.4285C94.8833 55.4322 95.0183 55.4901 95.12 55.59ZM30.86 80.2L45.77 95.37C45.9294 95.533 46.1485 95.6245 46.3791 95.6245C46.6098 95.6245 46.8331 95.533 47 95.37L50.89 91.59C50.9356 91.5465 50.9715 91.4939 50.9957 91.4353C51.02 91.3767 51.032 91.3133 51.031 91.249C51.0301 91.1846 51.0163 91.1205 50.9903 91.0606C50.9644 91.0006 50.9269 90.946 50.88 90.9L40 79.97C39.9447 79.9155 39.9011 79.8502 39.8717 79.7779C39.8422 79.7056 39.8275 79.6278 39.8285 79.5488C39.8294 79.4698 39.8459 79.3913 39.8771 79.3177C39.9082 79.2441 39.9534 79.1769 40.01 79.12L50.42 68.71C50.5113 68.6203 50.5603 68.4947 50.5566 68.3602C50.5529 68.2256 50.4967 68.0927 50.4 67.99L47.25 64.65C47.1534 64.5473 47.0392 64.463 46.9142 64.4021C46.7893 64.3412 46.6561 64.3051 46.5226 64.2957C46.3892 64.2864 46.2582 64.3041 46.1375 64.3478C46.0167 64.3915 45.9088 64.4603 45.82 64.55L30.87 79.5C30.777 79.5921 30.7239 79.7171 30.7221 79.848C30.7202 79.9788 30.7697 80.1052 30.86 80.2ZM129.14 79.77L113.86 64.6C113.75 64.4911 113.608 64.4238 113.464 64.4126C113.32 64.4013 113.186 64.4471 113.09 64.54L109.37 68.1C109.277 68.1884 109.205 68.2962 109.157 68.417C109.109 68.5378 109.087 68.6692 109.092 68.8034C109.096 68.9376 109.128 69.0719 109.184 69.1984C109.241 69.3249 109.321 69.4411 109.42 69.54L119.28 79.4C119.537 79.6612 119.681 80.0127 119.681 80.3779C119.681 80.7431 119.537 81.0925 119.28 81.35L109.5 91.13C109.434 91.1936 109.384 91.2715 109.352 91.3594C109.32 91.4473 109.307 91.5433 109.314 91.6419C109.32 91.7405 109.346 91.8397 109.39 91.9338C109.434 92.0279 109.495 92.115 109.57 92.19L112.65 95.3C112.836 95.4882 113.08 95.6045 113.327 95.6232C113.575 95.642 113.806 95.5617 113.97 95.4L129.13 80.5C129.179 80.4519 129.218 80.3948 129.245 80.332C129.271 80.2692 129.286 80.202 129.287 80.1341C129.288 80.0663 129.275 79.9992 129.25 79.9367C129.225 79.8742 129.187 79.8176 129.14 79.77ZM94.32 104.95L70.03 80.91C69.9429 80.8236 69.8738 80.7207 69.8267 80.6075C69.7795 80.4942 69.7552 80.3727 69.7552 80.25C69.7552 80.1273 69.7795 80.0058 69.8267 79.8925C69.8738 79.7793 69.9429 79.6764 70.03 79.59L77.41 72.22C77.521 72.11 77.609 71.979 77.669 71.8345C77.7291 71.69 77.76 71.5349 77.76 71.3779C77.76 71.221 77.7291 71.0653 77.669 70.9199C77.609 70.7744 77.521 70.6419 77.41 70.53L74.51 67.64C74.4291 67.557 74.3328 67.4907 74.2266 67.4448C74.1204 67.3988 74.0064 67.3742 73.8912 67.3724C73.776 67.3705 73.6618 67.3914 73.5552 67.4339C73.4486 67.4764 73.3517 67.5397 73.27 67.62L61.27 79.37C61.2011 79.4354 61.1466 79.5144 61.1097 79.6026C61.0728 79.6907 61.0542 79.786 61.0552 79.883C61.0561 79.98 61.0765 80.0766 61.1151 80.1671C61.1537 80.2576 61.2098 80.3402 61.28 80.41L94.71 113.58C94.8532 113.724 95.048 113.804 95.2521 113.804C95.4562 113.804 95.6531 113.724 95.8 113.58L110.33 99.18C110.425 99.0833 110.48 98.9538 110.482 98.8192C110.484 98.6846 110.433 98.5557 110.34 98.46L106.91 95.03C106.734 94.8566 106.497 94.7593 106.25 94.7593C106.003 94.7593 105.766 94.8566 105.59 95.03L95.68 104.94C95.4987 105.121 95.2539 105.223 94.9992 105.225C94.7444 105.227 94.5002 105.128 94.32 104.95ZM75.59 97.5C75.3233 97.0667 74.9567 96.77 74.49 96.61C74.3544 96.5646 74.2024 96.563 74.0508 96.6053C73.8991 96.6476 73.7535 96.7323 73.63 96.85L65.56 104.69C65.5119 104.739 65.4548 104.778 65.392 104.805C65.3292 104.831 65.262 104.846 65.1941 104.847C65.1263 104.848 65.0592 104.835 64.9967 104.81C64.9342 104.785 64.8776 104.747 64.83 104.7L55.21 95.19C54.934 94.9165 54.5751 94.7494 54.2115 94.725C53.848 94.7006 53.5095 94.8211 53.27 95.06L49.77 98.58C49.6782 98.6741 49.6351 98.8087 49.6501 98.9547C49.665 99.1007 49.7369 99.2463 49.85 99.36L64.1 113.73C64.1999 113.828 64.3341 113.884 64.4753 113.885C64.6165 113.887 64.7541 113.835 64.86 113.74C69.05 109.99 72.67 105.86 76.7 102.12C78.14 100.78 77.98 99.4767 76.22 98.21C75.9933 98.05 75.7833 97.8133 75.59 97.5Z" fill="#006CA8"/>
<path id="Vector_8" d="M89.8995 79.63C81.8795 71.1233 73.6162 62.86 65.1095 54.84C65.0114 54.7485 64.8817 54.6984 64.7475 54.7002C64.6133 54.7021 64.485 54.7558 64.3895 54.85C61.0695 58.05 57.2495 61.39 54.3395 64.93C53.6795 65.7367 53.0695 65.6767 52.5095 64.75C52.0095 63.9367 51.3528 63.28 50.5395 62.78C48.4495 61.49 49.3895 60.99 50.6495 59.73C55.1162 55.2567 59.5628 50.81 63.9895 46.39C64.0736 46.3063 64.1733 46.2398 64.2828 46.1944C64.3923 46.1491 64.5094 46.1257 64.6275 46.1257C64.7455 46.1257 64.8621 46.1491 64.9706 46.1944C65.0791 46.2398 65.1773 46.3063 65.2595 46.39C76.3195 57.44 88.2595 68.31 98.6695 79.88C98.7608 79.9807 98.8099 80.1124 98.8062 80.2469C98.8024 80.3815 98.7462 80.5083 98.6495 80.6L86.3595 92.42C86.2492 92.529 86.1056 92.5953 85.9596 92.6046C85.8137 92.614 85.6771 92.5656 85.5795 92.47L82.4495 89.44C82.3497 89.3435 82.2729 89.2254 82.2233 89.0925C82.1738 88.9596 82.1526 88.8145 82.161 88.6657C82.1693 88.5169 82.2071 88.3673 82.2721 88.2256C82.3371 88.0839 82.428 87.9528 82.5395 87.84L89.8995 80.37C89.996 80.2747 90.05 80.1439 90.05 80.0057C90.05 79.8675 89.996 79.7326 89.8995 79.63Z" fill="white"/>
<path id="Vector_9" d="M94.3698 55.57L86.2898 63.3801C86.1644 63.5007 86.0029 63.5739 85.8379 63.585C85.6729 63.5961 85.5164 63.5443 85.3998 63.44L81.9698 60.34C81.8898 60.2679 81.8262 60.1794 81.7827 60.0798C81.7392 59.9801 81.7168 59.8715 81.7168 59.7604C81.7168 59.6493 81.7392 59.5379 81.7827 59.433C81.8262 59.3282 81.8898 59.2319 81.9698 59.1501L94.8798 46.2401C94.9286 46.192 94.9862 46.1538 95.0493 46.1278C95.1125 46.1018 95.1799 46.0884 95.2477 46.0884C95.3156 46.0884 95.3825 46.1018 95.4446 46.1278C95.5067 46.1538 95.5629 46.192 95.6098 46.2401L109.9 60.64C110.003 60.7429 110.068 60.8767 110.087 61.0199C110.105 61.1631 110.074 61.3075 110 61.43C109 63.0367 107.723 64.3834 106.17 65.4701C106.056 65.5489 105.917 65.584 105.775 65.5694C105.632 65.5549 105.497 65.4915 105.39 65.39L95.1198 55.59C95.0181 55.4902 94.8831 55.4323 94.7432 55.4285C94.6033 55.4248 94.4694 55.4755 94.3698 55.57Z" fill="white"/>
<path id="Vector_10" d="M30.8607 80.1999C30.7704 80.1051 30.7208 79.9787 30.7227 79.8479C30.7246 79.717 30.7777 79.5921 30.8707 79.4999L45.8207 64.5499C45.9094 64.4602 46.0174 64.3914 46.1381 64.3477C46.2588 64.304 46.3898 64.2863 46.5233 64.2956C46.6567 64.305 46.7899 64.3411 46.9149 64.402C47.0399 64.4629 47.1541 64.5472 47.2507 64.6499L50.4007 67.9899C50.4973 68.0926 50.5535 68.2255 50.5573 68.3601C50.561 68.4946 50.512 68.6202 50.4207 68.7099L40.0107 79.1199C39.954 79.1769 39.9089 79.244 39.8777 79.3176C39.8466 79.3912 39.8301 79.4697 39.8291 79.5487C39.8282 79.6277 39.8429 79.7055 39.8723 79.7778C39.9017 79.8501 39.9454 79.9154 40.0007 79.9699L50.8807 90.8999C50.9275 90.9459 50.965 91.0005 50.991 91.0605C51.0169 91.1204 51.0308 91.1845 51.0317 91.2489C51.0326 91.3132 51.0206 91.3766 50.9964 91.4352C50.9722 91.4938 50.9362 91.5464 50.8907 91.5899L47.0007 95.3699C46.8338 95.5329 46.6104 95.6244 46.3798 95.6244C46.1492 95.6244 45.9301 95.5329 45.7707 95.3699L30.8607 80.1999Z" fill="white"/>
<path id="Vector_11" d="M129.139 79.77C129.186 79.8176 129.224 79.8742 129.249 79.9367C129.274 79.9992 129.286 80.0663 129.285 80.1341C129.285 80.202 129.27 80.2692 129.243 80.332C129.216 80.3948 129.178 80.4519 129.129 80.5L113.969 95.4C113.805 95.5617 113.574 95.642 113.326 95.6232C113.079 95.6045 112.835 95.4882 112.649 95.3L109.569 92.19C109.494 92.115 109.433 92.0279 109.389 91.9338C109.345 91.8397 109.319 91.7405 109.312 91.6419C109.306 91.5433 109.319 91.4473 109.351 91.3594C109.383 91.2715 109.433 91.1935 109.499 91.13L119.279 81.35C119.536 81.0925 119.68 80.7431 119.68 80.3779C119.68 80.0127 119.536 79.6612 119.279 79.4L109.419 69.54C109.32 69.4411 109.239 69.3249 109.183 69.1984C109.127 69.0719 109.095 68.9376 109.09 68.8034C109.086 68.6692 109.108 68.5378 109.156 68.417C109.204 68.2962 109.276 68.1884 109.369 68.1L113.089 64.54C113.185 64.4471 113.319 64.4013 113.463 64.4126C113.607 64.4238 113.749 64.4911 113.859 64.6L129.139 79.77Z" fill="white"/>
<path id="Vector_12" d="M94.3196 104.95C94.4998 105.128 94.7439 105.227 94.9987 105.225C95.2535 105.223 95.4982 105.121 95.6796 104.94L105.59 95.0301C105.765 94.8566 106.003 94.7594 106.25 94.7594C106.497 94.7594 106.734 94.8566 106.91 95.0301L110.34 98.4601C110.432 98.5557 110.483 98.6847 110.481 98.8192C110.479 98.9538 110.425 99.0833 110.33 99.1801L95.7996 113.58C95.6526 113.724 95.4557 113.804 95.2517 113.804C95.0476 113.804 94.8528 113.724 94.7096 113.58L61.2796 80.4101C61.2093 80.3403 61.1533 80.2577 61.1146 80.1672C61.076 80.0766 61.0557 79.98 61.0547 79.8831C61.0538 79.7861 61.0723 79.6907 61.1092 79.6026C61.1461 79.5145 61.2006 79.4354 61.2696 79.3701L73.2695 67.6201C73.3512 67.5397 73.4482 67.4765 73.5548 67.434C73.6614 67.3915 73.7755 67.3706 73.8908 67.3724C74.006 67.3743 74.1199 67.3989 74.2261 67.4448C74.3323 67.4907 74.4286 67.5571 74.5096 67.6401L77.4096 70.5301C77.5205 70.6419 77.6085 70.7744 77.6686 70.9199C77.7287 71.0654 77.7596 71.2211 77.7596 71.378C77.7596 71.5349 77.7287 71.6901 77.6686 71.8345C77.6085 71.979 77.5205 72.11 77.4096 72.2201L70.0296 79.59C69.9425 79.6765 69.8734 79.7793 69.8262 79.8926C69.779 80.0059 69.7548 80.1274 69.7548 80.2501C69.7548 80.3728 69.779 80.4942 69.8262 80.6075C69.8734 80.7208 69.9425 80.8236 70.0296 80.9101L94.3196 104.95Z" fill="white"/>
<path id="Vector_13" d="M76.2213 98.21C77.9813 99.4767 78.1413 100.78 76.7013 102.12C72.6713 105.86 69.0513 109.99 64.8613 113.74C64.7554 113.835 64.6178 113.887 64.4766 113.885C64.3354 113.884 64.2012 113.828 64.1013 113.73L49.8513 99.36C49.7382 99.2463 49.6663 99.1007 49.6514 98.9547C49.6364 98.8087 49.6795 98.6741 49.7713 98.58L53.2713 95.06C53.5108 94.8211 53.8493 94.7007 54.2128 94.725C54.5763 94.7494 54.9353 94.9166 55.2113 95.19L64.8313 104.7C64.8789 104.747 64.9355 104.785 64.998 104.81C65.0605 104.835 65.1276 104.848 65.1954 104.847C65.2633 104.846 65.3305 104.831 65.3933 104.805C65.4561 104.778 65.5132 104.739 65.5613 104.69L73.6313 96.85C73.7548 96.7323 73.9004 96.6476 74.052 96.6053C74.2037 96.563 74.3557 96.5646 74.4913 96.61C74.958 96.77 75.3246 97.0667 75.5913 97.5C75.7846 97.8133 75.9946 98.05 76.2213 98.21Z" fill="white"/>
</g>
<defs>
<clipPath id="clip0_83_1131">
<rect width="160" height="160" fill="white"/>
</clipPath>
</defs>
</svg>
