<svg width="160" height="160" viewBox="0 0 160 160" fill="none" xmlns="http://www.w3.org/2000/svg">
<rect width="160" height="160" rx="80" fill="url(#paint0_linear_208_480)"/>
<path d="M79.5354 124C95.1619 124 108.054 111.456 108.054 95.8243C108.054 80.3857 95.3572 67.6487 79.5354 67.6487C86.3718 67.6487 92.0365 73.0522 92.0365 79.8066C92.0365 95.2452 79.3401 107.982 63.5182 107.982C47.6965 108.175 35 95.4382 35 79.9996C35 104.315 54.9237 124 79.5354 124Z" fill="white"/>
<path d="M67.0328 80C67.0328 64.5614 79.7292 51.8246 95.551 51.8246C111.373 51.8246 124.069 64.3684 124.069 80C124.069 55.6842 104.145 36 79.5339 36C63.9073 36 51.0156 48.5439 51.0156 64.1754C51.0156 79.6139 63.712 92.3509 79.5339 92.3509C72.6974 92.1579 67.0328 86.7544 67.0328 80Z" fill="white"/>
<path d="M90.7484 86.5392C87.7585 98.7037 76.6203 107.675 63.5182 107.675C47.9692 107.675 35.5 95.159 35.5 80C35.5 60.273 48.768 43.6235 66.9835 38.2897C57.2345 42.8923 50.5705 52.7169 50.7124 64.1786C50.7142 80.0927 63.837 92.8509 79.7307 92.8509C84.4402 92.8509 88.5242 90.3004 90.7484 86.5392Z" stroke="white"/>
<path d="M79.5343 67.1489C74.7695 67.1489 70.5498 69.7626 68.286 73.6057C71.2226 61.3675 82.3973 52.3242 95.5514 52.3242C111.101 52.3242 123.57 64.8408 123.57 79.9995C123.57 99.7869 110.22 116.478 91.9188 121.759C101.773 117.145 108.553 107.209 108.553 95.8242C108.553 79.9085 95.429 67.1489 79.5343 67.1489Z" stroke="white"/>
<defs>
<linearGradient id="paint0_linear_208_480" x1="0" y1="0" x2="169.32" y2="10.7275" gradientUnits="userSpaceOnUse">
<stop stop-color="#1F315B"/>
<stop offset="0.400039" stop-color="#203C7C"/>
<stop offset="1" stop-color="#447FD6"/>
</linearGradient>
</defs>
</svg>
