<svg width="160" height="160" viewBox="0 0 160 160" fill="none" xmlns="http://www.w3.org/2000/svg">
<circle cx="80" cy="80" r="80" fill="#404A71"/>
<path d="M64.5062 43.0879C64.5618 43.0911 64.6174 43.0818 64.669 43.0606C64.7206 43.0395 64.7667 43.0072 64.8042 42.9659C66.7014 40.8507 68.892 39.0369 71.3758 37.5246C74.7996 35.4381 77.5514 33.2695 79.8473 30.0807C79.8656 30.0557 79.8896 30.0354 79.9172 30.0214C79.9448 30.0073 79.9753 30 80.0061 30C80.037 30 80.0673 30.0073 80.0946 30.0214C80.1219 30.0354 80.1455 30.0557 80.1633 30.0807C82.5532 33.4596 85.041 35.216 88.9308 37.6966C91.2666 39.1863 93.3532 40.9407 95.1904 42.9599C95.2179 42.9906 95.252 43.0149 95.2903 43.0312C95.3287 43.0474 95.3703 43.0552 95.4124 43.0539C98.2136 42.9592 100.825 43.1833 103.248 43.7261C105.934 44.3282 109.666 45.1965 112.985 44.8464C113.731 44.7677 114.505 44.6917 115.307 44.6183C115.319 44.6173 115.332 44.6191 115.343 44.6235C115.354 44.6279 115.365 44.6349 115.373 44.6439C115.381 44.6529 115.388 44.6637 115.392 44.6755C115.396 44.6874 115.397 44.7 115.395 44.7123C115.109 46.7829 114.887 49.0834 115.185 51.0899C115.393 52.4943 115.797 54.6174 116.395 57.4595C116.862 59.68 117.038 62.0113 116.923 64.4532C116.919 64.5382 116.934 64.6231 116.966 64.7017C116.999 64.7803 117.049 64.8506 117.113 64.9073C119.989 67.484 121.863 70.3847 123.881 73.5835C125.083 75.4893 126.559 77.1517 128.308 78.5707C128.878 79.0335 129.431 79.4963 129.968 79.959C129.979 79.9682 129.987 79.9794 129.992 79.992C129.998 80.0046 130 80.0183 130 80.032C130 80.0457 129.996 80.0592 129.99 80.0715C129.984 80.0838 129.975 80.0945 129.964 80.1031C127.651 81.8855 125.847 83.4639 124.135 86.1446C121.699 89.9575 119.943 92.5942 117.063 95.1428C117.018 95.1834 116.981 95.2339 116.958 95.2906C116.934 95.3474 116.923 95.4089 116.925 95.4709C117.049 98.2969 116.806 101.012 116.197 103.615C115.607 106.137 114.811 109.732 115.147 112.803C115.238 113.631 115.311 114.461 115.365 115.292C115.366 115.304 115.364 115.317 115.36 115.329C115.356 115.341 115.349 115.351 115.34 115.36C115.331 115.369 115.321 115.376 115.309 115.38C115.298 115.385 115.286 115.387 115.273 115.386C113.995 115.29 112.557 115.08 111.419 115.078C109.888 115.076 108.239 115.265 106.474 115.644C102.294 116.538 99.3242 117.144 95.4004 116.924C95.3687 116.922 95.337 116.928 95.3079 116.94C95.2787 116.952 95.2529 116.971 95.2324 116.994C93.3952 119.045 91.2006 120.87 88.6488 122.47C86.6169 123.744 83.4251 125.804 81.5492 128.171C80.9159 128.971 80.4066 129.572 80.0213 129.973C80.0128 129.982 80.0024 129.989 79.9908 129.994C79.9792 129.999 79.9667 130.001 79.9542 130C79.9416 129.999 79.9293 129.996 79.9181 129.99C79.9069 129.984 79.8971 129.975 79.8893 129.965C78.9787 128.718 77.9694 127.563 76.8615 126.501C74.2776 124.02 70.6638 122.293 68.15 120.245C67.0234 119.326 65.9261 118.273 64.8582 117.086C64.8174 117.041 64.7674 117.005 64.7115 116.981C64.6555 116.957 64.5951 116.945 64.5342 116.946C63.4116 116.981 62.333 116.973 61.2984 116.922C57.6646 116.744 54.1448 115.536 50.639 115.156C48.6411 114.94 46.7432 115.238 44.7354 115.374C44.7195 115.375 44.7037 115.372 44.6889 115.366C44.6742 115.361 44.6608 115.352 44.6498 115.34C44.6388 115.329 44.6304 115.315 44.6251 115.3C44.6199 115.285 44.6179 115.27 44.6194 115.254C44.8154 113.225 45.0973 111.283 44.8534 109.234C44.5014 106.264 43.5414 102.769 43.3014 100.99C43.0655 99.2351 42.9815 97.382 43.0495 95.4309C43.0514 95.3788 43.0418 95.3269 43.0214 95.2789C43.001 95.2309 42.9703 95.1878 42.9315 95.1528C39.9396 92.4761 38.0118 89.4134 35.8859 86.1146C34.156 83.4339 32.2601 81.9195 30.0302 80.0751C30.0208 80.0669 30.0131 80.0567 30.0079 80.0454C30.0027 80.034 30 80.0217 30 80.0093C30 79.997 30.0027 79.9848 30.0079 79.9737C30.0131 79.9626 30.0208 79.9528 30.0302 79.945C31.2042 78.9668 32.5221 77.9425 33.494 76.9223C35.4019 74.9198 36.8498 72.3852 38.3837 70.0866C39.6943 68.1208 41.2342 66.357 43.0035 64.7953C43.0264 64.7754 43.0445 64.7502 43.0563 64.7218C43.0681 64.6933 43.0733 64.6624 43.0715 64.6313C42.8655 60.5502 43.6314 56.6793 44.3894 53.4405C44.924 51.1559 45.0907 49.1221 44.8894 47.339C44.7547 46.148 44.684 45.2765 44.6774 44.7243C44.677 44.7119 44.6794 44.6996 44.6843 44.6881C44.6893 44.6766 44.6967 44.6663 44.7062 44.6578C44.7156 44.6493 44.7269 44.6428 44.7391 44.6388C44.7514 44.6347 44.7644 44.6332 44.7774 44.6343C46.7532 44.7964 48.6251 45.0944 50.723 44.8544C51.3616 44.7824 52.2256 44.6343 53.3149 44.4103C57.9026 43.468 60.6204 42.8619 64.5062 43.0879ZM89.3048 44.2222C86.2509 42.1117 82.8291 40.2012 80.1453 37.7286C80.1132 37.6992 80.0715 37.6826 80.0281 37.6819C79.9846 37.6811 79.9423 37.6963 79.9093 37.7246C76.9675 40.1872 73.7797 42.0677 70.6898 44.2242C70.5579 44.3162 70.5672 44.3909 70.7178 44.4483C74.491 45.8753 77.5608 48.2119 79.9273 51.458C79.9342 51.4674 79.9431 51.4751 79.9534 51.4805C79.9637 51.4859 79.9751 51.4888 79.9866 51.489C79.9981 51.4892 80.0094 51.4867 80.0196 51.4817C80.0298 51.4766 80.0386 51.4692 80.0453 51.46C82.4585 48.1939 85.537 45.844 89.2808 44.4103C89.4087 44.3623 89.4167 44.2996 89.3048 44.2222ZM48.3132 61.4005C51.9849 59.7721 55.7907 59.2879 59.7765 59.8641C59.7879 59.8658 59.7995 59.8648 59.8104 59.8611C59.8214 59.8573 59.8313 59.8511 59.8395 59.8427C59.8476 59.8344 59.8538 59.8242 59.8574 59.8129C59.8611 59.8017 59.8621 59.7898 59.8605 59.7781C59.2512 55.7811 59.7718 51.9508 61.4224 48.2872C61.4811 48.1552 61.4391 48.1005 61.2964 48.1232C57.5566 48.7293 54.0068 49.6716 50.163 50.0577C50.134 50.0604 50.1068 50.0731 50.0863 50.0936C50.0658 50.1141 50.0533 50.141 50.0511 50.1697C49.6971 53.9786 48.7551 57.5175 48.1332 61.2604C48.1078 61.4178 48.1678 61.4645 48.3132 61.4005ZM98.5802 48.3032C100.276 52.1422 100.606 55.641 100.156 59.7621C100.155 59.7756 100.157 59.7893 100.161 59.8021C100.166 59.8149 100.174 59.8264 100.183 59.8358C100.193 59.8453 100.205 59.8524 100.218 59.8566C100.231 59.8608 100.245 59.862 100.258 59.8601C104.294 59.2813 108.117 59.8014 111.727 61.4205C111.859 61.4791 111.912 61.4378 111.885 61.2964C111.213 57.5955 110.292 54.0406 109.964 50.2337C109.96 50.1898 109.941 50.1486 109.91 50.1172C109.879 50.0858 109.839 50.0662 109.796 50.0617C105.966 49.6536 102.426 48.6973 98.7102 48.1352C98.5635 48.1125 98.5202 48.1685 98.5802 48.3032ZM63.5303 80.0571C61.5444 80.5312 59.1585 80.8413 57.4506 81.8595C53.2335 84.3761 50.2984 88.015 48.6451 92.7762C48.6221 92.8429 48.624 92.9157 48.6505 92.9809C48.677 93.0461 48.7263 93.0992 48.7891 93.1303C52.9929 95.2361 57.3733 95.8049 61.9304 94.8367C64.4382 94.3066 66.3441 92.8862 68.352 91.5619C68.4906 91.4699 68.5153 91.4946 68.426 91.6359C67.0421 93.8245 65.5081 95.911 65.0502 98.5136C64.2636 102.997 64.8782 107.252 66.8941 111.277C66.9192 111.327 66.9614 111.366 67.0128 111.387C67.0643 111.409 67.1215 111.411 67.174 111.393C72.4877 109.598 77.9634 105.225 79.2613 99.4859C79.484 98.5043 79.704 97.526 79.9213 96.5511C79.9706 96.3351 80.022 96.3351 80.0753 96.5511C80.2926 97.4287 80.4946 98.2922 80.6813 99.1418C81.9992 105.125 87.2129 109.49 92.8025 111.393C92.8549 111.411 92.9118 111.409 92.9629 111.388C93.0139 111.368 93.0557 111.33 93.0805 111.281C95.7284 106.111 96.3523 99.0238 93.0605 93.9845C92.5066 93.1343 92.0326 92.3761 91.5286 91.5679C91.4806 91.4919 91.4946 91.4786 91.5706 91.5279C92.2546 91.9707 92.9152 92.4094 93.5525 92.8442C98.7362 96.3851 105.872 95.799 111.247 93.1263C111.298 93.1009 111.338 93.0581 111.359 93.0056C111.381 92.9531 111.383 92.8944 111.365 92.8402C109.987 88.6752 107.506 85.2984 103.924 82.7097C101.742 81.1333 99.1702 80.6212 96.4963 80.0851C96.271 80.0397 96.271 79.993 96.4963 79.945C97.3629 79.7623 98.2329 79.5783 99.1062 79.3929C105.04 78.1366 109.548 72.6352 111.387 67.1399C111.401 67.0977 111.399 67.0521 111.382 67.0113C111.365 66.9705 111.333 66.9373 111.293 66.9178C107.274 64.8987 103.038 64.2738 98.5862 65.0434C95.9044 65.5075 93.9125 67.0358 91.6366 68.3802C91.578 68.4149 91.5653 68.4035 91.5986 68.3462C91.9373 67.7647 92.3959 67.0432 92.9745 66.1816C96.3563 61.1404 95.7404 54.0186 93.1465 48.8074C93.1121 48.7387 93.0539 48.6849 92.9826 48.6559C92.9113 48.6268 92.8317 48.6245 92.7586 48.6493C87.1409 50.5598 81.6892 55.1749 80.5373 61.2224C80.4953 61.4385 80.1313 63.619 79.9953 63.585C79.98 63.581 79.9648 63.5683 79.9516 63.5483C79.9384 63.5284 79.9279 63.5022 79.9213 63.473C79.7433 62.6288 79.6033 62.0266 79.3773 60.9463C78.1294 54.9849 72.6677 50.4278 67.0941 48.5913C67.0674 48.5825 67.0384 48.5834 67.0124 48.5941C66.9863 48.6047 66.9649 48.6243 66.9521 48.6493C64.4622 53.4225 63.7783 59.8861 66.1941 64.7493C66.7421 65.8516 67.682 67.1659 68.416 68.3582C68.4853 68.4702 68.464 68.4915 68.352 68.4222C67.6774 68.0061 67.0194 67.5826 66.3781 67.1519C61.2284 63.687 54.0308 64.1551 48.7191 66.9218C48.6783 66.9429 48.6464 66.9778 48.6291 67.0204C48.6119 67.063 48.6105 67.1103 48.6251 67.1539C50.571 72.9353 55.2188 78.3927 61.4384 79.4909C62.1477 79.6163 62.845 79.787 63.5303 80.003C63.5943 80.0244 63.5943 80.0424 63.5303 80.0571ZM51.475 79.939C48.2258 77.5624 45.8806 74.4857 44.4394 70.7088C44.3847 70.5661 44.3141 70.5574 44.2274 70.6827C42.0635 73.7755 40.1996 76.9583 37.7578 79.897C37.7275 79.9328 37.7108 79.9782 37.7108 80.0251C37.7108 80.0719 37.7275 80.1173 37.7578 80.1531C40.2396 83.1038 42.0235 86.2286 44.2034 89.2893C44.3087 89.4374 44.3934 89.426 44.4574 89.2553C45.8253 85.5811 48.1645 82.523 51.475 80.0811C51.4861 80.0729 51.4952 80.0622 51.5015 80.0499C51.5077 80.0375 51.511 80.0239 51.511 80.0101C51.511 79.9962 51.5077 79.9826 51.5015 79.9702C51.4952 79.9579 51.4861 79.9472 51.475 79.939ZM108.526 80.0571C111.773 82.6497 114.083 85.3724 115.557 89.2793C115.612 89.4234 115.684 89.4327 115.773 89.3074C117.957 86.2326 119.783 83.0718 122.219 80.1471C122.248 80.1115 122.264 80.0669 122.265 80.021C122.265 79.975 122.25 79.9305 122.221 79.895C120.262 77.4491 118.499 74.9618 116.931 72.4332C116.572 71.8544 116.189 71.2889 115.779 70.7368C115.673 70.5927 115.588 70.6047 115.525 70.7728C114.135 74.4617 111.803 77.5178 108.53 79.941C108.52 79.9478 108.513 79.9565 108.508 79.9665C108.502 79.9766 108.499 79.9876 108.499 79.9988C108.499 80.0101 108.501 80.0212 108.505 80.0313C108.51 80.0414 108.517 80.0502 108.526 80.0571ZM111.735 98.5896C108.028 100.22 104.192 100.766 100.21 100.132C100.198 100.13 100.187 100.131 100.175 100.135C100.164 100.139 100.154 100.145 100.146 100.154C100.137 100.162 100.131 100.172 100.127 100.183C100.124 100.194 100.122 100.206 100.124 100.218C100.737 104.279 100.214 108.128 98.5542 111.765C98.5182 111.844 98.5435 111.878 98.6302 111.867C99.5235 111.763 100.373 111.614 101.178 111.421C104.029 110.739 106.91 110.25 109.824 109.952C109.852 109.95 109.878 109.937 109.898 109.917C109.918 109.897 109.931 109.871 109.934 109.842C110.162 107.523 110.538 105.229 111.061 102.959C111.395 101.522 111.662 100.098 111.863 98.6857C111.878 98.5776 111.835 98.5456 111.735 98.5896ZM50.173 109.95C53.9928 110.333 57.5246 111.307 61.2524 111.871C61.4257 111.898 61.4764 111.831 61.4044 111.671C59.7858 108.095 59.2725 104.28 59.8645 100.226C59.8662 100.214 59.8651 100.202 59.8613 100.191C59.8576 100.18 59.8513 100.17 59.843 100.162C59.8346 100.153 59.8245 100.147 59.8133 100.143C59.8021 100.139 59.7902 100.138 59.7785 100.14C55.7641 100.719 51.9316 100.219 48.2812 98.6417C48.2715 98.6376 48.261 98.636 48.2506 98.6371C48.2402 98.6382 48.2302 98.642 48.2216 98.6479C48.213 98.6539 48.2061 98.662 48.2015 98.6714C48.1969 98.6808 48.1947 98.6912 48.1952 98.7017C48.2392 99.4579 48.3998 100.429 48.6771 101.614C49.2958 104.267 49.7564 107.008 50.0591 109.838C50.0618 109.867 50.0747 109.894 50.0955 109.915C50.1163 109.935 50.1437 109.948 50.173 109.95ZM89.3028 115.594C85.603 114.185 82.5265 111.846 80.0733 108.574C80.0633 108.561 80.0503 108.55 80.0352 108.542C80.0202 108.535 80.0036 108.531 79.9868 108.531C79.97 108.531 79.9535 108.535 79.9386 108.543C79.9238 108.551 79.911 108.562 79.9013 108.576C77.5534 111.824 74.4836 114.155 70.6918 115.572C70.5652 115.619 70.5565 115.682 70.6658 115.762C73.7457 117.98 76.9395 119.805 79.8993 122.273C79.9314 122.3 79.9719 122.315 80.0137 122.314C80.0554 122.314 80.0957 122.299 80.1273 122.271C83.0151 119.789 86.2409 117.93 89.3248 115.786C89.4381 115.707 89.4307 115.643 89.3028 115.594Z" fill="#D2AA3B"/>
</svg>
