<svg width="239" height="257" viewBox="0 0 239 257" fill="none" xmlns="http://www.w3.org/2000/svg">
<path d="M199.834 240.022H28.1738" stroke="black" stroke-linecap="round" stroke-linejoin="round"/>
<path fill-rule="evenodd" clip-rule="evenodd" d="M95.3352 134.726H127.217C127.497 136.008 133.635 163.104 142.709 190.133C149.06 209.06 135 209.877 137.843 220.622L116.765 220.831C116.765 220.831 115.8 215.786 115.034 213.506C113.037 207.509 108.77 207.435 106.486 200.689C103.823 192.817 109.369 189.627 107.152 184.575C104.935 179.522 102.319 181.31 101.826 174.274C101.826 174.025 102.365 172.028 102.365 172.028C102.092 173.438 99.2697 183.873 95.9477 193.512C94.33 198.234 93.8107 201.863 91.7868 206.227C89.9694 210.153 84.9297 211.448 82.9658 213.971C81.4674 215.908 80.5851 218.26 80.436 220.716H58.207C58.207 220.716 59.7116 216.447 58.8062 212.318C57.8608 208.015 54.5321 203.711 55.584 197.64C56.4495 192.629 62.2414 186.848 63.6461 181.31C64.6847 177.107 62.4811 172.386 63.6461 168.251C65.0774 163.131 70.4633 158.733 72.354 154.47C74.9237 148.655 68.4794 145.384 72.354 134.74L95.3352 134.726Z" fill="#6062CC"/>
<path d="M95.3352 134.726H127.217C127.497 136.008 133.635 163.104 142.709 190.133C149.06 209.06 135 209.877 137.843 220.622L116.765 220.831C116.765 220.831 115.8 215.786 115.034 213.506C113.037 207.509 108.77 207.435 106.486 200.689C103.823 192.817 109.369 189.627 107.152 184.575C104.935 179.522 102.319 181.31 101.826 174.274C101.826 174.025 102.365 172.028 102.365 172.028C102.092 173.438 99.2697 183.873 95.9477 193.512C94.33 198.234 93.8107 201.863 91.7869 206.227C89.9694 210.153 84.9297 211.448 82.9658 213.971C81.4674 215.908 80.5851 218.26 80.436 220.716H58.207C58.207 220.716 59.7116 216.447 58.8062 212.318C57.8608 208.015 54.5321 203.711 55.584 197.64C56.4495 192.629 62.2414 186.848 63.6461 181.31C64.6847 177.107 62.4811 172.386 63.6461 168.251C65.0774 163.131 70.4633 158.733 72.354 154.47C74.9237 148.655 68.4794 145.384 72.354 134.74L95.3352 134.726Z" stroke="black" stroke-linecap="round" stroke-linejoin="round"/>
<path fill-rule="evenodd" clip-rule="evenodd" d="M131.67 38.6715C132.595 41.0189 134.379 46.6783 133.367 48.7221C132.768 49.9296 130.145 53.6733 126.637 55.2787C119.314 58.6514 122.849 57.5654 115.366 58.5502C114.973 59.3799 111.272 74.8808 112.23 75.1236C119.267 76.8977 126.031 74.4491 132.828 73.0393C135.97 72.3648 137.715 73.525 140.937 70.1928C143.8 67.2248 148.26 59.8925 149.498 57.2079C153.672 48.2837 152.494 46.7862 145.504 34.948C144.079 32.5331 140.937 26.7996 139.512 24.3307C137.515 20.958 135.651 16.8029 134.998 13.4976C134.033 10.8602 130.918 10.6443 130.185 13.0592C129.659 14.8062 130.778 18.0103 130.731 17.8417C129.12 12.162 127.402 10.6038 126.157 10.9074C122.909 11.7101 124.719 16.3037 125.652 19.3459C125.771 19.7169 121.417 17.7944 118.408 22.813C117.157 24.8906 117.323 27.636 119.567 27.953C121.511 28.2228 121.564 24.8097 123.621 24.8232C124.779 24.8232 126.517 25.4977 126.863 26.7996C127.529 29.3493 124.66 30.5365 122.656 29.5922C121.231 28.9176 120.166 28.5871 119.294 29.9024C117.516 32.6006 122.383 34.9075 124.906 34.975C128.235 35.0627 128.661 34.206 130.152 35.8789C130.839 36.6962 131.355 37.6462 131.67 38.6715Z" fill="#C48F6C"/>
<path d="M131.67 38.6715C132.595 41.0189 134.379 46.6783 133.367 48.7221C132.768 49.9296 130.145 53.6733 126.637 55.2787C119.314 58.6514 122.849 57.5654 115.366 58.5502C114.973 59.3799 111.272 74.8808 112.23 75.1236C119.267 76.8977 126.031 74.4491 132.828 73.0393C135.97 72.3648 137.715 73.525 140.937 70.1928C143.8 67.2248 148.26 59.8925 149.498 57.2079C153.672 48.2837 152.494 46.7862 145.504 34.948C144.079 32.5331 140.937 26.7996 139.512 24.3307C137.515 20.958 135.651 16.8029 134.998 13.4976C134.033 10.8602 130.918 10.6443 130.185 13.0592C129.659 14.8062 130.778 18.0103 130.731 17.8417C129.12 12.162 127.402 10.6038 126.157 10.9074C122.909 11.7101 124.719 16.3037 125.652 19.3459C125.771 19.7169 121.417 17.7944 118.408 22.813C117.157 24.8906 117.323 27.636 119.567 27.953C121.511 28.2228 121.564 24.8097 123.621 24.8232C124.779 24.8232 126.517 25.4977 126.863 26.7996C127.529 29.3493 124.66 30.5365 122.656 29.5922C121.231 28.9176 120.166 28.5871 119.294 29.9024C117.516 32.6006 122.383 34.9075 124.906 34.975C128.235 35.0627 128.661 34.206 130.152 35.8789C130.839 36.6962 131.355 37.6462 131.67 38.6715Z" stroke="black" stroke-linecap="round" stroke-linejoin="round"/>
<path d="M125.578 18.9883C125.901 20.436 126.491 21.809 127.316 23.0356L127.356 23.13" stroke="black" stroke-width="1.45" stroke-linecap="round" stroke-linejoin="round"/>
<path fill-rule="evenodd" clip-rule="evenodd" d="M102.996 63.0291C86.4723 54.5366 66.2139 73.0865 78.1972 92.3581L72.332 134.74L132.628 134.908L132.442 102.038L144.525 78.0039C139.079 71.6363 124.679 56.4928 122.981 55.1302C122.562 54.793 117.036 58.2399 114.54 58.7188C110.472 59.5013 110.352 60.9313 108.688 63.0291H102.996Z" fill="black"/>
<path d="M102.996 63.0291C86.4723 54.5366 66.2139 73.0865 78.1972 92.3581L72.332 134.74L132.628 134.908L132.442 102.038L144.525 78.0039C139.079 71.6363 124.679 56.4928 122.981 55.1302C122.562 54.793 117.036 58.2399 114.54 58.7188C110.472 59.5013 110.352 60.9313 108.688 63.0291H102.996Z" stroke="black" stroke-linecap="round" stroke-linejoin="round"/>
<path fill-rule="evenodd" clip-rule="evenodd" d="M113.269 70.2332L112.431 64.4658C114.235 65.2685 116.039 65.2348 117.384 64.2163C121.378 61.2011 118.289 57.0324 119.907 56.6951C124.567 55.7373 122.936 50.712 120.04 51.2988C116.864 51.9329 116.904 47.2988 115.972 44.4117C112.178 32.6343 90.3148 41.9227 102.491 57.6867C102.658 57.9026 103.157 70.1724 103.39 70.3276C108.037 73.3293 112.224 72.9246 113.269 70.2332Z" fill="#C48F6C"/>
<path d="M113.269 70.2332L112.431 64.4658C114.235 65.2685 116.039 65.2348 117.384 64.2163C121.378 61.2011 118.289 57.0324 119.907 56.6951C124.567 55.7373 122.936 50.712 120.04 51.2988C116.864 51.9329 116.904 47.2988 115.972 44.4117C112.178 32.6343 90.3148 41.9227 102.491 57.6867C102.658 57.9026 103.157 70.1724 103.39 70.3276C108.037 73.3293 112.224 72.9246 113.269 70.2332Z" stroke="black" stroke-linecap="round" stroke-linejoin="round"/>
<path d="M107.515 51.4607C107.452 51.4058 107.383 51.3583 107.309 51.319C107.063 51.1787 106.781 51.115 106.499 51.1359C106.218 51.1567 105.948 51.2612 105.725 51.4363C105.501 51.6113 105.333 51.8492 105.243 52.1201C105.152 52.3911 105.141 52.6833 105.213 52.9601C105.285 53.2368 105.436 53.486 105.647 53.6765C105.858 53.867 106.119 53.9903 106.399 54.0311C106.679 54.072 106.964 54.0284 107.219 53.906C107.475 53.7835 107.689 53.5876 107.835 53.3426" stroke="black" stroke-linecap="round" stroke-linejoin="round"/>
<path d="M112.511 64.4996C111.851 64.2548 111.28 63.8125 110.873 63.2314" stroke="black" stroke-linecap="round" stroke-linejoin="round"/>
<path d="M117.837 60.1893C116.945 60.1218 116.006 60.0207 115.387 59.2854C115.371 59.2659 115.359 59.2428 115.354 59.218" stroke="black" stroke-linecap="round" stroke-linejoin="round"/>
<path d="M115.898 58.3748C115.781 58.617 115.613 58.8302 115.406 58.9992C115.199 59.1683 114.958 59.289 114.699 59.3529H114.633" stroke="black" stroke-linecap="round" stroke-linejoin="round"/>
<path d="M134.918 64.6008H129.293V69.9971H134.918V64.6008Z" fill="black"/>
<path d="M134.918 64.6008H129.293V69.9971H134.918V64.6008Z" stroke="black" stroke-linecap="round" stroke-linejoin="round"/>
<path d="M137.429 44.432H127.376C125.986 44.432 124.859 45.5735 124.859 46.9817V59.7103C124.859 61.1185 125.986 62.2601 127.376 62.2601H137.429C138.818 62.2601 139.945 61.1185 139.945 59.7103V46.9817C139.945 45.5735 138.818 44.432 137.429 44.432Z" fill="black"/>
<path d="M137.429 44.432H127.376C125.986 44.432 124.859 45.5735 124.859 46.9817V59.7103C124.859 61.1185 125.986 62.2601 127.376 62.2601H137.429C138.818 62.2601 139.945 61.1185 139.945 59.7103V46.9817C139.945 45.5735 138.818 44.432 137.429 44.432Z" stroke="black" stroke-linecap="round" stroke-linejoin="round"/>
<path fill-rule="evenodd" clip-rule="evenodd" d="M158.172 45.228L170.235 44.8637V62.1792L158.172 61.7879V45.228Z" fill="black"/>
<path d="M158.172 45.228L170.235 44.8637V62.1792L158.172 61.7879V45.228Z" stroke="black" stroke-linecap="round" stroke-linejoin="round"/>
<path fill-rule="evenodd" clip-rule="evenodd" d="M139.457 46.9953L158.164 46.739V60.3242L139.457 59.8723V46.9953Z" fill="black"/>
<path d="M139.457 46.9953L158.164 46.739V60.3242L139.457 59.8723V46.9953Z" stroke="black" stroke-linecap="round" stroke-linejoin="round"/>
<path d="M153.166 48.8233V58.2196" stroke="#ED3237" stroke-linecap="round" stroke-linejoin="round"/>
<path fill-rule="evenodd" clip-rule="evenodd" d="M137.914 41.0863C138.061 41.1876 138.186 41.3176 138.283 41.4687C138.379 41.6198 138.445 41.789 138.476 41.9663C138.507 42.1436 138.503 42.3253 138.464 42.5009C138.424 42.6765 138.35 42.8422 138.247 42.9885L136.343 45.7474C136.243 45.8962 136.115 46.0233 135.965 46.1212C135.816 46.219 135.649 46.2856 135.474 46.317C135.299 46.3485 135.12 46.3441 134.947 46.3042C134.773 46.2643 134.61 46.1896 134.465 46.0846C134.319 45.9834 134.193 45.8534 134.097 45.7022C134 45.5511 133.934 45.3819 133.903 45.2046C133.872 45.0274 133.877 44.8456 133.916 44.6701C133.955 44.4945 134.029 44.3287 134.133 44.1824L136.037 41.4236C136.137 41.2747 136.265 41.1476 136.414 41.0498C136.563 40.9519 136.73 40.8853 136.905 40.8539C137.08 40.8225 137.259 40.8268 137.433 40.8668C137.606 40.9067 137.77 40.9813 137.914 41.0863Z" fill="black"/>
<path d="M137.914 41.0863C138.061 41.1876 138.186 41.3176 138.283 41.4687C138.379 41.6198 138.445 41.789 138.476 41.9663C138.507 42.1436 138.503 42.3253 138.464 42.5009C138.424 42.6765 138.35 42.8422 138.247 42.9885L136.343 45.7474C136.243 45.8962 136.115 46.0233 135.965 46.1212C135.816 46.219 135.649 46.2856 135.474 46.317C135.299 46.3485 135.12 46.3441 134.947 46.3042C134.773 46.2643 134.61 46.1896 134.465 46.0846C134.319 45.9834 134.193 45.8534 134.097 45.7022C134 45.5511 133.934 45.3819 133.903 45.2046C133.872 45.0274 133.877 44.8456 133.916 44.6701C133.955 44.4945 134.029 44.3287 134.133 44.1824L136.037 41.4236C136.137 41.2747 136.265 41.1476 136.414 41.0498C136.563 40.9519 136.73 40.8853 136.905 40.8539C137.08 40.8225 137.259 40.8268 137.433 40.8668C137.606 40.9067 137.77 40.9813 137.914 41.0863Z" stroke="black" stroke-linecap="round" stroke-linejoin="round"/>
<path d="M114.759 48.9379C114.638 48.7201 114.443 48.5543 114.21 48.4712C113.978 48.3881 113.723 48.3933 113.494 48.4859C113.358 48.5352 113.232 48.612 113.126 48.7117C113.019 48.8114 112.934 48.932 112.875 49.066" stroke="black" stroke-linecap="round" stroke-linejoin="round"/>
<path fill-rule="evenodd" clip-rule="evenodd" d="M115.712 43.1706C116.984 42.2532 118.236 41.1942 117.097 39.4471C116.465 38.4623 116.585 40.4589 116.125 38.2127C115.613 35.7236 111.944 35.6764 111.725 36.6343C111.725 36.6343 109.641 34.0171 107.85 35.2852C107.104 35.8113 108.649 35.9597 106.099 35.4538C102.484 34.7793 103.097 37.3628 102.378 37.0862C99.8413 36.1081 100.56 38.2734 99.9411 38.3476C96.3861 38.7996 97.7309 40.8434 97.0452 41.2144C95.767 41.8889 94.3822 42.8603 95.1545 44.7018C95.8202 46.3274 96.0666 43.9395 94.9415 46.0981C94.329 47.2785 93.4635 48.1217 95.8535 48.9379C96.0865 49.6124 93.6433 52.803 97.5778 52.6141C97.5778 52.6141 97.9572 55.825 101.046 53.5383C101.712 53.0661 101.279 52.7693 102.444 51.771C103.609 50.7726 101.779 50.2667 103.736 49.8485C106.891 49.174 103.856 48.1487 107.73 48.1487C109.288 43.1706 109.461 47.4741 111.285 44.8907C112.497 43.1706 110.054 44.5736 112.737 44.3713C113.602 44.3105 112.47 43.5753 114.681 43.6967C115.173 43.7035 115.413 43.3864 115.712 43.1706Z" fill="black"/>
<path d="M115.712 43.1706C116.984 42.2532 118.236 41.1942 117.097 39.4471C116.465 38.4623 116.585 40.4589 116.125 38.2127C115.613 35.7236 111.944 35.6764 111.725 36.6343C111.725 36.6343 109.641 34.0171 107.85 35.2852C107.104 35.8113 108.649 35.9597 106.099 35.4538C102.484 34.7793 103.097 37.3628 102.378 37.0862C99.8413 36.1081 100.56 38.2734 99.9411 38.3476C96.3861 38.7996 97.7309 40.8434 97.0452 41.2144C95.767 41.8889 94.3822 42.8603 95.1545 44.7018C95.8202 46.3274 96.0666 43.9395 94.9415 46.0981C94.329 47.2785 93.4635 48.1217 95.8535 48.9379C96.0865 49.6124 93.6433 52.803 97.5778 52.6141C97.5778 52.6141 97.9572 55.825 101.046 53.5383C101.712 53.0661 101.279 52.7693 102.444 51.771C103.609 50.7726 101.779 50.2667 103.736 49.8485C106.891 49.174 103.856 48.1487 107.73 48.1487C109.288 43.1706 109.461 47.4741 111.285 44.8907C112.497 43.1706 110.054 44.5736 112.737 44.3713C113.602 44.3105 112.47 43.5753 114.681 43.6967C115.173 43.7035 115.413 43.3864 115.712 43.1706Z" stroke="black" stroke-linecap="round" stroke-linejoin="round"/>
<path d="M83.4629 95.9265C83.5228 96.0007 91.4518 101.889 91.6448 101.323C92.1907 99.8658 106.957 81.4036 106.717 81.0866C106.205 80.412 98.6417 77.5452 98.6018 77.5183C98.4819 77.0933 98.7749 76.2164 98.7749 75.4946" stroke="white" stroke-linecap="round" stroke-linejoin="round"/>
<path d="M86.4918 138.868C84.9806 143.468 79.6015 150.794 72.8775 152.075L72.3516 154.456" stroke="black" stroke-linecap="round" stroke-linejoin="round"/>
<path d="M139.18 39.7642L141.47 37.4505" stroke="#FEFEFE" stroke-linecap="round" stroke-linejoin="round"/>
<path d="M140.619 41.2347L144.6 40.5197" stroke="#FEFEFE" stroke-linecap="round" stroke-linejoin="round"/>
<path d="M140.332 43.1167L143.92 44.3308" stroke="#FEFEFE" stroke-linecap="round" stroke-linejoin="round"/>
<path fill-rule="evenodd" clip-rule="evenodd" d="M80.4539 220.716H58.205L54.5234 240.035H102.596C103.622 237.647 104.247 232.615 99.9334 229.317C94.8006 225.378 80.4539 225.539 80.4539 220.716Z" fill="#FFFDF7"/>
<path d="M80.4539 220.716H58.205L54.5234 240.035H102.596C103.622 237.647 104.247 232.615 99.9334 229.317C94.8006 225.378 80.4539 225.539 80.4539 220.716Z" stroke="black" stroke-linecap="round" stroke-linejoin="round"/>
<path fill-rule="evenodd" clip-rule="evenodd" d="M137.807 220.447L116.816 220.696L120.098 240.008H165.102C165.236 237.62 163.957 232.771 158.878 229.29C152.254 224.723 140.903 226.254 137.807 220.447Z" fill="#FFFDF7"/>
<path d="M137.807 220.447L116.816 220.696L120.098 240.008H165.102C165.236 237.62 163.957 232.771 158.878 229.29C152.254 224.723 140.903 226.254 137.807 220.447Z" stroke="black" stroke-linecap="round" stroke-linejoin="round"/>
<path fill-rule="evenodd" clip-rule="evenodd" d="M54.5299 235.104H104.214C104.252 235.103 104.29 235.111 104.324 235.127C104.359 235.143 104.389 235.167 104.412 235.197C104.436 235.228 104.452 235.263 104.459 235.301C104.466 235.339 104.464 235.378 104.454 235.415L103.542 239.779C103.522 239.864 103.475 239.94 103.409 239.996C103.343 240.052 103.261 240.084 103.175 240.089H53.4913C53.4534 240.091 53.4156 240.083 53.3812 240.067C53.3467 240.051 53.3165 240.027 53.2931 239.996C53.2697 239.966 53.2537 239.93 53.2465 239.893C53.2393 239.855 53.2411 239.816 53.2517 239.779L54.1637 235.415C54.1846 235.33 54.2313 235.255 54.2971 235.199C54.3628 235.144 54.4443 235.11 54.5299 235.104Z" fill="#FEFEFE"/>
<path d="M54.5299 235.104H104.214C104.252 235.103 104.29 235.111 104.324 235.127C104.359 235.143 104.389 235.167 104.412 235.197C104.436 235.228 104.452 235.263 104.459 235.301C104.466 235.339 104.464 235.378 104.454 235.415L103.542 239.779C103.522 239.864 103.475 239.94 103.409 239.996C103.343 240.052 103.261 240.084 103.175 240.089H53.4913C53.4534 240.091 53.4156 240.083 53.3812 240.067C53.3467 240.051 53.3165 240.027 53.2931 239.996C53.2697 239.966 53.2537 239.93 53.2465 239.893C53.2393 239.855 53.2411 239.816 53.2517 239.779L54.1637 235.415C54.1846 235.33 54.2313 235.255 54.2971 235.199C54.3628 235.144 54.4443 235.11 54.5299 235.104Z" stroke="black" stroke-linecap="round" stroke-linejoin="round"/>
<path fill-rule="evenodd" clip-rule="evenodd" d="M118.356 235.104H164.897C164.981 235.108 165.062 235.141 165.125 235.197C165.188 235.254 165.23 235.331 165.243 235.415L165.909 239.779C165.917 239.817 165.917 239.856 165.908 239.894C165.899 239.931 165.881 239.966 165.857 239.996C165.833 240.026 165.802 240.05 165.767 240.066C165.732 240.082 165.694 240.09 165.656 240.089H119.121C119.037 240.087 118.956 240.055 118.892 239.998C118.829 239.941 118.787 239.864 118.775 239.779L118.109 235.415C118.101 235.377 118.102 235.339 118.11 235.302C118.119 235.265 118.136 235.23 118.159 235.2C118.183 235.17 118.213 235.146 118.247 235.13C118.281 235.113 118.318 235.105 118.356 235.104Z" fill="#FEFEFE"/>
<path d="M118.356 235.104H164.897C164.981 235.108 165.062 235.141 165.125 235.197C165.188 235.254 165.23 235.331 165.243 235.415L165.909 239.779C165.917 239.817 165.917 239.856 165.908 239.894C165.899 239.931 165.881 239.966 165.857 239.996C165.833 240.026 165.802 240.05 165.767 240.066C165.732 240.082 165.694 240.09 165.656 240.089H119.121C119.037 240.087 118.956 240.055 118.892 239.998C118.829 239.941 118.787 239.864 118.775 239.779L118.109 235.415C118.101 235.377 118.102 235.339 118.11 235.302C118.119 235.265 118.136 235.23 118.159 235.2C118.183 235.17 118.213 235.146 118.247 235.13C118.281 235.113 118.318 235.105 118.356 235.104Z" fill="#FFFDF7" stroke="black" stroke-linecap="round" stroke-linejoin="round"/>
<path fill-rule="evenodd" clip-rule="evenodd" d="M103.71 235.125H84.9824C85.3486 232.555 86.1941 230.403 88.0914 228.669C90.7943 226.234 92.0859 226.565 93.0112 226.403C95.2348 226.032 103.044 228.258 103.663 234.902C103.703 235.017 103.763 234.916 103.71 235.125Z" fill="#FEFEFE"/>
<path d="M103.71 235.125H84.9824C85.3486 232.555 86.1941 230.403 88.0914 228.669C90.7943 226.234 92.0859 226.565 93.0112 226.403C95.2348 226.032 103.044 228.258 103.663 234.902C103.703 235.017 103.763 234.916 103.71 235.125Z" fill="#FFFDF7" stroke="black" stroke-linecap="round" stroke-linejoin="round"/>
<path fill-rule="evenodd" clip-rule="evenodd" d="M164.438 235.091H147.176C146.972 233.957 147.014 232.793 147.3 231.678C147.587 230.563 148.11 229.524 148.833 228.636C150.864 226.517 151.65 226.531 152.435 226.369C154.266 225.998 163.38 226.99 164.372 234.868C164.385 234.99 164.438 234.882 164.438 235.091Z" fill="#FEFEFE"/>
<path d="M164.438 235.091H147.176C146.972 233.957 147.014 232.793 147.3 231.678C147.587 230.563 148.11 229.524 148.833 228.636C150.864 226.517 151.65 226.531 152.435 226.369C154.266 225.998 163.38 226.99 164.372 234.868C164.385 234.99 164.438 234.882 164.438 235.091Z" fill="#FFFDF7" stroke="black" stroke-linecap="round" stroke-linejoin="round"/>
<path d="M101.883 174.558L106.17 152.669" stroke="black" stroke-linecap="round" stroke-linejoin="round"/>
<path d="M60.7617 52.9852V34.5837H77.4118" stroke="black" stroke-linecap="round" stroke-linejoin="round"/>
<path d="M175.035 154.207V172.608H158.385" stroke="black" stroke-linecap="round" stroke-linejoin="round"/>
<path d="M175.035 52.9852V34.5837H158.385" stroke="black" stroke-linecap="round" stroke-linejoin="round"/>
<path d="M60.7617 154.207V172.608H77.4118" stroke="black" stroke-linecap="round" stroke-linejoin="round"/>
<path d="M81.6664 215.684H61.1816" stroke="black" stroke-linecap="round" stroke-linejoin="round"/>
<path d="M137.336 215.684H116.725" stroke="black" stroke-linecap="round" stroke-linejoin="round"/>
<path d="M162.189 238.963L132.67 136.264" stroke="black" stroke-linecap="round" stroke-linejoin="round"/>
<path d="M132.041 240.035L132.667 136.264L103.361 240.035" stroke="black" stroke-linecap="round" stroke-linejoin="round"/>
<path d="M132.602 137.195V69.6936" stroke="black" stroke-linecap="round" stroke-linejoin="round"/>
<path fill-rule="evenodd" clip-rule="evenodd" d="M106.717 81.0933L94.4141 97.4239C98.4794 98.9371 102.658 100.117 106.91 100.952C117.562 102.631 122.462 101.269 128.18 88.8977C131.468 81.8127 134.371 74.5505 136.875 67.1438C137.541 65.6531 137.541 65.5249 140.297 63.6767C142.494 62.1859 142.906 59.2314 141.428 58.6176C141.428 58.4894 145.137 55.8655 142.147 53.1606C141.655 52.7154 143.805 51.3595 141.841 49.1538C141.029 48.2364 139.844 48.3443 138.473 48.5332C134.578 49.0863 133.606 50.4894 129.652 48.9042C126.955 47.825 124.039 46.5366 123.221 50.3747C122.182 55.2921 129.339 51.5619 123.334 62.1522C120.144 67.9039 116.511 73.3915 112.469 78.5638C110.818 80.6481 109.846 82.294 106.717 81.0933Z" fill="#C48F6C"/>
<path d="M106.717 81.0933L94.4141 97.4239C98.4794 98.9371 102.658 100.117 106.91 100.952C117.562 102.631 122.462 101.269 128.18 88.8977C131.468 81.8127 134.371 74.5505 136.875 67.1438C137.541 65.6531 137.541 65.5249 140.297 63.6767C142.494 62.1859 142.906 59.2314 141.428 58.6176C141.428 58.4894 145.137 55.8655 142.147 53.1606C141.655 52.7154 143.805 51.3595 141.841 49.1538C141.029 48.2364 139.844 48.3443 138.473 48.5332C134.578 49.0863 133.606 50.4894 129.652 48.9042C126.955 47.825 124.039 46.5366 123.221 50.3747C122.182 55.2921 129.339 51.5619 123.334 62.1522C120.144 67.9039 116.511 73.3915 112.469 78.5638C110.818 80.6481 109.846 82.294 106.717 81.0933Z" stroke="black" stroke-linecap="round" stroke-linejoin="round"/>
<path d="M153.012 131.198C195.026 116.851 169.269 67.7509 156.034 85.1945C151.294 91.4407 156.387 107.731 172.944 108.689C190.846 109.728 199.42 89.2417 198.415 80.5941" stroke="black" stroke-linecap="round" stroke-linejoin="round"/>
<path fill-rule="evenodd" clip-rule="evenodd" d="M196.394 71.1236C194.796 76.3918 199.376 76.0882 199.21 73.9364C199.21 76.1489 202.012 75.9601 202.412 74.0106C202.592 73.9769 203.743 76.6751 205.421 74.8066C206.366 73.7543 205.235 71.5014 204.702 68.1152C204.702 68.1152 204.216 60.25 205.315 60.3175C210.6 60.6412 214.635 59.1775 214.149 55.9532C216.399 55.454 219.055 54.9414 218.276 51.9801C219.234 51.694 220.161 51.3145 221.046 50.8469C222.511 49.7811 223.143 46.3275 218.556 45.889C215.833 45.6327 205.601 46.1386 204.349 46.6648C204.036 46.7929 203.823 37.8957 198.664 40.1689C196.174 41.255 195.515 46.7525 195.335 46.739C192.725 46.5501 182.147 45.0189 183.425 49.0999C183.831 50.3815 185.975 50.5569 185.942 50.8065C185.529 54.2466 189.863 54.5367 189.836 54.7188C189.323 58.3208 195.355 60.0611 195.395 60.331C195.541 61.3495 195.755 63.2247 196.52 67.1168C197.059 69.8892 197.113 68.8369 196.394 71.1236Z" fill="#FFFDF7"/>
<path d="M196.394 71.1236C194.796 76.3918 199.376 76.0882 199.21 73.9364C199.21 76.1489 202.012 75.9601 202.412 74.0106C202.592 73.9769 203.743 76.6751 205.421 74.8066C206.366 73.7543 205.235 71.5014 204.702 68.1152C204.702 68.1152 204.216 60.25 205.315 60.3175C210.6 60.6412 214.635 59.1775 214.149 55.9532C216.399 55.454 219.055 54.9414 218.276 51.9801C219.234 51.694 220.161 51.3145 221.046 50.8469C222.511 49.7811 223.143 46.3275 218.556 45.889C215.833 45.6327 205.601 46.1386 204.349 46.6648C204.036 46.7929 203.823 37.8957 198.664 40.1689C196.174 41.255 195.515 46.7525 195.335 46.739C192.725 46.5501 182.147 45.0189 183.425 49.0999C183.831 50.3815 185.975 50.5569 185.942 50.8065C185.529 54.2466 189.863 54.5367 189.836 54.7188C189.323 58.3208 195.355 60.0611 195.395 60.331C195.541 61.3495 195.755 63.2247 196.52 67.1168C197.059 69.8892 197.113 68.8369 196.394 71.1236Z" stroke="black" stroke-linecap="round" stroke-linejoin="round"/>
<path fill-rule="evenodd" clip-rule="evenodd" d="M196.999 41.8822C195.495 41.9429 194.416 41.9699 192.912 43.2313C192.512 43.5618 196.14 45.3359 196.64 44.9176C197.325 44.3375 198.004 42.5635 196.999 41.8822Z" fill="#FFD12F"/>
<path d="M196.999 41.8822C195.495 41.9429 194.416 41.9699 192.912 43.2313C192.512 43.5618 196.14 45.3358 196.64 44.9176C197.325 44.3375 198.004 42.5635 196.999 41.8822Z" stroke="black" stroke-linecap="round" stroke-linejoin="round"/>
<path d="M199.953 42.6917C199.953 42.5128 200.023 42.3413 200.148 42.2147C200.273 42.0882 200.442 42.0172 200.619 42.0172C200.795 42.0172 200.965 42.0882 201.09 42.2147C201.214 42.3413 201.285 42.5128 201.285 42.6917" stroke="black" stroke-linecap="round" stroke-linejoin="round"/>
<path d="M195.521 61.1606C194.676 54.5906 194.562 51.6361 195.594 45.8755" stroke="black" stroke-linecap="round" stroke-linejoin="round"/>
<path d="M202.438 59.2921C203.443 60.2972 205.806 60.4523 206.791 60.3849" stroke="black" stroke-linecap="round" stroke-linejoin="round"/>
<path d="M202.664 47.4741C203.142 47.0543 203.725 46.7765 204.348 46.6714" stroke="black" stroke-linecap="round" stroke-linejoin="round"/>
<path d="M219.693 51.5012C217.116 52.2971 214.061 52.884 212.283 52.7221" stroke="black" stroke-linecap="round" stroke-linejoin="round"/>
<path d="M184.41 50.1926C186.66 50.9885 189.33 51.5417 190.881 51.4135" stroke="black" stroke-linecap="round" stroke-linejoin="round"/>
<path d="M215.245 55.7036C213.664 56.0219 212.057 56.1935 210.445 56.2162" stroke="black" stroke-linecap="round" stroke-linejoin="round"/>
<path d="M188.438 54.3411C189.704 54.6582 191.001 54.8301 192.305 54.8537" stroke="black" stroke-linecap="round" stroke-linejoin="round"/>
</svg>
